<svg xmlns="http://www.w3.org/2000/svg" viewBox="0 0 356.28 440.86"><defs><style>.cls-1{fill:#aaa;}</style></defs><title>logos</title><g id="android"><path class="cls-1" d="M245.84,0c6.3,4.46,6.88,7.56,2.81,14.45L231.39,43.54c7.75,5.72,15.9,10.67,22.88,16.88a113.93,113.93,0,0,1,39.67,85.24,8.24,8.24,0,0,1-6.64,9.58,8.33,8.33,0,0,1-2,.12H73.51c-10.18,0-12.61-2.52-11.93-12.51a114.91,114.91,0,0,1,60.13-97,26.09,26.09,0,0,0,2.61-1.65c-2.81-4.65-5.52-9.7-8.34-13.87s-6.3-10.66-9.69-15.9-3.2-9.7,3-14.06h4.27a47.41,47.41,0,0,1,6.11,6.4c5.82,9.7,11.54,18.81,17.07,28.41,1.35,2.23,2.52,2.91,5,2a111.42,111.42,0,0,1,71.08,0,3.69,3.69,0,0,0,5-1.61,3.25,3.25,0,0,0,.18-.43c5.53-9.69,11.25-19.39,17.07-28.41a47.41,47.41,0,0,1,6.11-6.4Zm32.29,139.26a97.64,97.64,0,0,0-48.49-77.58,96.39,96.39,0,0,0-107.45,2.13,97.57,97.57,0,0,0-44.9,75.84Z"/><path class="cls-1" d="M185.52,364.15h-15v45.77A30.91,30.91,0,0,1,129.17,439a31.52,31.52,0,0,1-20.56-30.45V363.37h-8.53a37,37,0,0,1-36.56-28.32,44.72,44.72,0,0,1-1.36-11.92V173.2c0-8.63,2.52-11.06,11-11.06H283.46c8.83,0,11.25,2.33,11.25,11.25V322.54a37.82,37.82,0,0,1-34.55,40.83,36.58,36.58,0,0,1-6.28,0h-5.72v5.34c0,15.22,0,30.54-.77,45.67a30,30,0,0,1-29.77,26.48,31.15,31.15,0,0,1-30.75-25.12,54.31,54.31,0,0,1-.67-9.7C185.42,392.46,185.52,378.21,185.52,364.15ZM77,178.44v147a22,22,0,0,0,20.68,23.28,22.38,22.38,0,0,0,2.59,0h12c8.63,0,11,2.42,11,11v49.55a15.61,15.61,0,0,0,9.7,15.61,15.32,15.32,0,0,0,21.63-14.45V358.72c0-7.08,2.91-9.7,9.7-9.7h25.5c8.63,0,11.15,2.52,11.15,11.05V410.4a15.22,15.22,0,0,0,10.48,15.23A15.42,15.42,0,0,0,232,410.21v-51.3c0-7.08,2.81-9.7,9.7-9.7h11.15a23,23,0,0,0,25.38-20.3,23.43,23.43,0,0,0,0-4.81V179.21Z"/><path class="cls-1" d="M54.11,243.9v53.43A26.85,26.85,0,0,1,24,325,27.44,27.44,0,0,1,0,295.88V192.5a38.7,38.7,0,0,1,1.55-11,26.76,26.76,0,0,1,29.58-18.33,26.47,26.47,0,0,1,22.79,24.92v56Zm-15.51,0V190.07a11.34,11.34,0,0,0-10.44-12.18,11.93,11.93,0,0,0-12.76,13c0,.05,0,.1,0,.15V296.17a12.83,12.83,0,0,0,0,3.39,11.47,11.47,0,1,0,22.79-2.62c.1-17.26,0-35.1,0-52.66Z"/><path class="cls-1" d="M356,244v51.69a27.33,27.33,0,0,1-20.95,29.09,27,27,0,0,1-32.42-20.31,29.23,29.23,0,0,1-.55-3.35v-109a27.15,27.15,0,1,1,54.21-3.24,25,25,0,0,1,0,3.24C355.9,209.28,356,226.63,356,244Zm-38.79,0v53.92a11.21,11.21,0,0,0,11.93,11.83c7,0,11.25-5.43,11.25-14V192.3a26.91,26.91,0,0,0,0-4.75,11.54,11.54,0,0,0-22.79,3c-.39,17.75-.29,35.59-.29,53.34Z"/><path class="cls-1" d="M139.16,98.72a33.23,33.23,0,0,1-.58,6.21c-1.07,3.39-4.07,3.88-7.08,3.49s-9.7,2.33-12.12-3.39a22.78,22.78,0,0,1,0-13.48c2.13-6.21,8.44-2.91,12.9-3.5a5.24,5.24,0,0,1,6.47,3.6.29.29,0,0,1,0,.09A38.82,38.82,0,0,1,139.16,98.72Z"/><path class="cls-1" d="M216.55,98V94.07a5.37,5.37,0,0,1,0-2.52c3.78-6.4,9.7-2.91,14.93-3.4,3.3,0,5,2.33,5.14,5.63v1.74c0,12.71,0,13.09-12.8,13-6.11,0-7.66-1.65-7.66-7.57Z"/></g></svg>