<svg xmlns="http://www.w3.org/2000/svg" viewBox="0 0 588.1 440.86"><defs><style>.cls-1{fill:#aaa;}</style></defs><title>logos</title><g id="gameboy"><path class="cls-1" d="M489.07,440.47c54.84,0,99-45,99-99.81V37.25A37,37,0,0,0,551,0H37.59A37.44,37.44,0,0,0,0,37.25V402.56c0,20.66,16.94,37.91,37.59,37.91Zm-379.26-382a14.55,14.55,0,0,1,14.54-14.55h339.4a14.54,14.54,0,0,1,14.54,14.55v326A14.54,14.54,0,0,1,463.75,399H124.35a14.54,14.54,0,0,1-14.54-14.54Zm-76,95.27a12.52,12.52,0,1,1,12.52,12.52A12.51,12.51,0,0,1,33.85,153.74Z"/><g id="Capa_47" data-name="Capa 47"><path class="cls-1" d="M235.19,159.91l9.11-20.33,4,20.33H235.19m128.88-53.14-24.71,57.47-10.94-57.47H307.16l-30.27,84.67-14.16-84.67H236.19L196,198.05l6-38.14H162.07l-3.17,19.65h16.77l-1.94,10.5c-9.55,3.94-25.77,2.44-32.71-10-4.38-7.88-8.49-25.43,10-41.59,15.1-13.16,41.2-15.55,56.24-8.66,0,0,1.89-11,3.34-21.27-28.93-10-51.42-1.66-66.47,7.67-20.6,12.6-30.48,32-27.76,58.3,3,30.48,42.53,49.75,76,30.32a3.66,3.66,0,0,1,.89-.39l-3.22,7.1h22.49l14.16-31.37h24.87L257,211.54h36.64L312.32,153l15.32,58.58H342l24.6-64.85,9.72,65.24h21.48l-7.83-105.16Z"/><polyline class="cls-1" points="397.77 211.99 457.8 211.99 461.41 189.56 423.87 189.56 426.81 170.84 459.52 170.84 463.07 148.36 430.09 148.36 432.92 129.75 470.51 129.75 474.07 107.27 414.49 107.27 397.77 211.99"/><polyline class="cls-1" points="360.46 265.53 347.02 231.38 322.37 231.38 347.8 286.63 339.91 336.1 361.51 336.1 368.06 292.35 406.88 231.38 381.67 231.38 360.46 265.53"/><path class="cls-1" d="M309.71,294.63c-5.78,17.32-19.77,27.43-31.15,22.26s-15.94-23.32-10.11-40.75,19.77-27.38,31.09-22.33,16,23.38,10.17,40.82m-8.39-61.58c-23.87-5.5-48.69,13.49-55.41,42.42s7.27,56.91,31.09,62.47,48.64-13.55,55.42-42.48C339,266.47,325.09,238.54,301.32,233.05Z"/><path class="cls-1" d="M203.6,274.91H188.71L192,255.48h14c15.22,0,12.11,19.43-2.38,19.43M201,317.22H182l3.33-20.87h18C220.48,296.35,220,317.22,201,317.22Zm12.6-83.9c-11.6-.16-40.31,0-40.31,0h.22l-16.66,104h48.48c20,0,49.14-29.37,22.54-53.36C255.07,255.7,228.08,233.66,213.59,233.32Z"/></g></g></svg>