<svg xmlns="http://www.w3.org/2000/svg" viewBox="0 0 588.1 440.86"><defs><style>.cls-1,.cls-2{fill:#aaa;}.cls-2,.cls-3{stroke:#fff;stroke-miterlimit:10;}.cls-3{fill:#fff;}</style></defs><title>logos</title><g id="gameboyadv"><path class="cls-1" d="M489.07,440.47c54.84,0,99-45,99-99.81V37.25A37,37,0,0,0,551,0H37.59A37.44,37.44,0,0,0,0,37.25V402.56c0,20.66,16.94,37.91,37.59,37.91Zm-379.26-382a14.55,14.55,0,0,1,14.54-14.55h339.4a14.54,14.54,0,0,1,14.54,14.55v326A14.54,14.54,0,0,1,463.75,399H124.35a14.54,14.54,0,0,1-14.54-14.54Zm-76,95.27a12.52,12.52,0,1,1,12.52,12.52A12.51,12.51,0,0,1,33.85,153.74Z"/><g id="Capa_49" data-name="Capa 49"><path class="cls-2" d="M114.34,285.3,145,237.06c-3.61-1.74-7.14-3.07-10.28-5-9.21-5.72-14.3-14.14-14.86-25-1-18.87,8.4-32.9,25.51-40.58,6.72-3,13.79-4.94,21.15-4.27,5.21.47,10.33,2,15.48,3.07,1.3.27,2.57,1.13,3.29-.86.13-.36.91-.67,1.39-.67,8.8,0,17.59,0,26.39,0a1.84,1.84,0,0,1,.51.19c.67,3.83,1.35,7.73,2,11.63l.63,0c.3-.81.62-1.6.9-2.42.87-2.61,1.83-5.2,2.54-7.85a1.9,1.9,0,0,1,2.26-1.65c1.49.07,3,0,4.47,0,40.72,0,81.43.09,122.15-.08,7.5,0,13.5,2.41,18.3,8,.94,1.1,1.61,1.12,2.6.27a33.72,33.72,0,0,1,16.34-8,7.52,7.52,0,0,1,1.25-.17h79.21c-1,1.54-1.75,2.88-2.58,4.2-8.55,13.58-17.13,27.15-25.61,40.77a10.29,10.29,0,0,0-1,4c-.74,5.68-1.4,11.37-2.12,17.37,1,.06,1.84.15,2.65.15,7.87,0,15.75.06,23.62,0,2,0,2.51.55,2.5,2.54q-.11,25.11,0,50.24c0,1.93-.54,2.38-2.37,2.38q-33.53-.07-67,0c-13.05,0-26.1,0-39.15-.07a7.36,7.36,0,0,1-4-1.38c-4.44-3.26-8.74-6.72-13.1-10.1-.36-.27-.8-.46-1.69-1,0,3.2,0,6,0,8.79,0,4.21.57,3.72-3.74,3.72-27,0-54.05-.08-81.08.1-3.59,0-5.83-.93-7.36-4.11-.93-2-2.23-3.75-3.53-5.89-.69.64-1.25,1.19-1.85,1.72A30.84,30.84,0,0,1,218.15,285c-33.83.25-67.65.31-101.48.44C116.05,285.42,115.43,285.36,114.34,285.3Zm45.73-74.62a20.5,20.5,0,0,0-.63,3.28c0,1.8-1,2.28-2.55,2.31s-3.12.07-4.67.22c-3.68.36-6.49-1.24-8.67-4-4.91-6.15-4-15.76,2.25-21.62,8.4-7.93,18.36-9.39,29.19-6.54,1.41.37,1.94.15,2.11-1.3a57.41,57.41,0,0,1,1.08-6.93c.47-1.95-.29-2.63-2-3.15a36.82,36.82,0,0,0-26,1.32c-10.84,4.7-18.9,11.84-20.74,24.27-.77,5.19-.87,10.39,1.32,15.26C135,223.15,145.73,229,156,227.92a31.12,31.12,0,0,0,12.81-4l-1.23,3.37c3.84,0,7.3.06,10.76-.07.56,0,1.32-.77,1.6-1.37,2.09-4.41,4-8.89,6.17-13.28a3.05,3.05,0,0,1,2.18-1.42c3.11-.17,6.24,0,9.36-.09,1.34,0,1.83.43,2,1.76.63,4.13,1.48,8.23,2.09,12.36.24,1.6.88,2.15,2.48,2.12,5-.08,10.07-.1,15.11,0a2.43,2.43,0,0,0,2.72-2q2.63-8.52,5.32-17c1.06-3.32,2.17-6.63,3.4-10.39a10.54,10.54,0,0,1,.63,1.53q2.63,12.92,5.21,25.83c.2,1,.23,2.23,1.64,2,2.31-.41,4.92,1.23,7-1,0-.05,0-.13.08-.2q4.64-10.71,9.28-21.43c1.39-3.22,2.8-6.43,4.2-9.64a1.45,1.45,0,0,1,.42,1.06c.43,9.78.83,19.56,1.32,29.33,0,.65.69,1.78,1.1,1.8,3.3.15,6.61.08,10.13.08,0-1,0-1.79,0-2.55q-.24-5.85-.49-11.7c-.5-12.61-1-25.23-1.45-37.85-.07-1.91-.67-2.6-2.63-2.5-3.11.16-6.24.14-9.36,0a2.35,2.35,0,0,0-2.56,1.66q-2.7,6.47-5.44,12.92c-2,4.75-4.08,9.5-6.38,14.86-1.49-8.17-3-15.67-4.19-23.21-1-6.19-.82-6.21-7-6.21-5.32,0-5.32,0-7.07,5-.05.13-.11.26-.15.4q-4.24,13-8.47,26c-1.21,3.72-2.44,7.43-3.66,11.15a73.37,73.37,0,0,1-2.15-9.74c-1.74-10.42-3.44-20.84-5.26-31.24a2.39,2.39,0,0,0-1.72-1.51c-3.61-.14-7.23-.16-10.84,0a3,3,0,0,0-2.14,1.53c-5.28,11.82-10.46,23.68-15.68,35.53-1.18,2.68-2.41,5.34-3.62,8l-.38-.12,2.56-17c-.39-.23-.5-.37-.62-.37-6.38,0-12.77-.08-19.15-.06-.38,0-1,.4-1.09.7-.57,3.11-1,6.24-1.59,9.62ZM255.8,262.1c-.43-.62-.72-1-1-1.43-3.52-6.05-7.47-11.9-10.42-18.22-2.1-4.5-5-5.75-9.45-5.19a53.82,53.82,0,0,1-6.39,0c1,1.75,1.67,3,2.67,4.78-4.13-2.69-8-4.36-12.35-4.44-9.21-.16-18.43-.2-27.64-.35-1.66,0-2,.73-2,2.2.06,6.39,0,12.78,0,19.16v9.73c-.53-.66-.8-.94-1-1.26-4.78-7.93-9.62-15.82-14.31-23.8-3.51-6-3.43-5.87-10.21-6.09-2.57-.09-3.78,1-5,3-5.28,9-10.68,18-16,27-1.6,2.7-3.14,5.44-4.69,8.14.29.19.34.26.4.26,8.43.06,16.87.12,25.3.08.43,0,1.18-.91,1.24-1.45.17-1.61,0-3.26.1-4.88.16-1.9-.57-2.5-2.43-2.41-2.71.14-5.43,0-8.48,0l10.69-19.22c.47.72.8,1.17,1.08,1.65,4.64,8.18,9.33,16.33,13.86,24.56a3.05,3.05,0,0,0,3.16,1.81c10.5-.08,21-.06,31.49-.16a36,36,0,0,0,6.54-.7c11.71-2.38,17.16-9.16,16.4-20.26-.05-.78-.14-1.55-.26-3,4.42,7.26,8.69,13.84,12.47,20.68,1.53,2.79,3.31,3.44,6.2,3.37,2.37,0,3.74-.62,5-2.83,5.7-10.18,11.66-20.21,17.51-30.31.93-1.6,1.78-3.24,2.9-5.29-4,0-7.49-.07-10.94.06-.58,0-1.32.8-1.66,1.4C264.39,246.46,260.18,254.14,255.8,262.1Zm9.46,13.31c.38.16.56.31.74.31,8.37,0,16.73,0,25.1-.09.44,0,1.18-.9,1.23-1.43.16-1.68,0-3.4.1-5.1s-.63-2.31-2.34-2.24c-2.72.12-5.45,0-8.57,0l10.54-19.1c.42.66.65,1,.85,1.35,4.55,8.06,9.13,16.11,13.62,24.2.94,1.7,2,2.59,4.1,2.49,4.67-.2,9.36-.21,14-.1,2,.05,2.38-.69,2.36-2.46-.09-6.17,0-12.34,0-18.52,0-.51.08-1,.14-1.75.51.37.81.55,1.07.76,7.68,6.14,15.46,12.17,23,18.48,3,2.5,6,4.11,9.91,3.45h.21c1.36.17,1.91-.39,1.91-1.79q0-17.34,0-34.7c0-1.37-.53-1.93-1.88-1.91-2.13,0-4.26,0-6.38,0-1.46,0-2,.54-2,2,.05,3.91,0,7.81,0,11.71v8.69a10.33,10.33,0,0,1-1.37-.75c-7.91-6.18-15.94-12.21-23.65-18.63a12.23,12.23,0,0,0-9.27-3.07c-1.67.11-2.15.62-2.14,2.26.07,9,0,18,0,27,0,.52-.05,1-.08,1.55l-.45.24c-.13-.26-.24-.52-.38-.77-4.76-7.95-9.54-15.88-14.26-23.85-3.79-6.41-3.76-6.36-11.05-6.45a4,4,0,0,0-4,2.33c-4.82,8.31-9.78,16.55-14.68,24.83C269.5,268,267.41,271.7,265.26,275.41Zm92.73-76c1.31-1.8,2.61-3.39,3.68-5.12,2.71-4.36,3.27-8.95.49-13.44s-6.7-7.57-12.19-7.74c-6.23-.18-12.47,0-18.71-.07-1.47,0-2.08.39-2.3,2-1,6.66-2.08,13.3-3.15,19.94q-2.16,13.32-4.31,26.64c-.28,1.79-.42,3.6-.65,5.59,1,0,1.73.11,2.49.11,6.81,0,13.62-.18,20.41.06,6.07.21,10.83-2.19,14.91-6.36,5.06-5.17,5.93-12.09,2.22-17.87C360.05,201.84,359,200.7,358,199.43Zm6.62,2.57c.11,6.33,1.34,11.36,4.05,16,6.25,10.74,19,13.72,29.29,6.81,13.29-9,17.62-27.35,9.77-41.47a19.86,19.86,0,0,0-27.4-8C369.57,181.43,365.23,191.15,364.61,202Zm-91.85,24.74c.37.33.42.42.47.42,9.86,0,19.71.1,29.56.07a1.93,1.93,0,0,0,1.4-1.2c.65-3.32,1.15-6.67,1.77-10.43H286.4c.49-2.87,1-5.29,1.28-7.74.15-1.42.75-1.73,2-1.72,4.25.05,8.51-.11,12.76.06,1.95.07,2.61-.71,2.84-2.44.32-2.53.67-5.06,1.16-7.56.32-1.66-.26-2.16-1.86-2.13-4.46.06-8.93,0-13.4,0a14.2,14.2,0,0,1-1.57-.17c.39-2.51.88-4.8,1.08-7.12.14-1.59.6-2.18,2.31-2.14,5.25.13,10.5.08,15.75,0,.65,0,1.81-.41,1.88-.79.69-3.59,1.19-7.21,1.76-10.86a6.33,6.33,0,0,0-1.08-.28c-9.51,0-19,0-28.51,0a2.47,2.47,0,0,0-1.69,1.6c-.69,3.32-1.17,6.69-1.71,10.05q-2.35,14.59-4.68,29.18C274.05,218,273.41,222.44,272.76,226.74Zm151.87,24.67c-.57-5.19-.57-5.19,4.13-5.19,7.72,0,15.45,0,23.18,0,1.66,0,2.3-.53,2.18-2.2a36.54,36.54,0,0,1,0-4.68c.09-1.58-.56-2.09-2.11-2.08q-18.4.06-36.8,0c-1.54,0-2.09.51-2.08,2.11q.08,17.13,0,34.26c0,1.58.42,2.12,2,2.08,4.11-.1,8.22,0,12.33,0,8.37,0,16.73-.05,25.1,0,1.71,0,2.28-.54,2.16-2.19a28.13,28.13,0,0,1,0-4.68c.17-1.85-.62-2.23-2.32-2.22-8.51.07-17,0-25.52,0-.75,0-1.51-.07-2.33-.1v-6.38h11.32c6,0,5.88,0,6-6,0-2.11-.48-2.87-2.71-2.79C434.36,251.53,429.55,251.41,424.63,251.41Zm-15.18,9.06c-2.35,0-4.62.06-6.88,0-4.58-.12-4-.38-3.94,3.9,0,1.58-.56,1.9-2,1.89-5.74-.06-11.49,0-17.24,0a15.34,15.34,0,0,1-1.69-.19v-19.3h20.89a24.86,24.86,0,0,0,.05,3.48c.08.53.68,1.39,1.06,1.41,3.24.11,6.49.06,9.9.06,0-2.5.11-4.76,0-7-.25-4.24-2.57-6.83-6.79-7-7.57-.29-15.16-.31-22.75-.35a59.43,59.43,0,0,0-7.42.42c-3.2.38-5.6,2.19-5.72,5.34-.34,8.76-.48,17.56-.15,26.32.14,3.89,2.83,6,7,6.09q14.25.31,28.51,0c4-.08,6.73-2.37,7.15-5.75A79.4,79.4,0,0,0,409.45,260.47Zm39.72-87.76c-4.28,0-7.89-.09-11.48.07a3.59,3.59,0,0,0-2.51,1.36c-3.13,4.8-6.1,9.7-9.15,14.55a12.21,12.21,0,0,1-1.24,1.41c-1.81-4.7-3.45-9-5.13-13.29-1.6-4.1-1.62-4.1-6-4.1-2.2,0-4.4,0-6.59,0a16.72,16.72,0,0,0-1.75.2,2.76,2.76,0,0,0,0,.68q6.18,13.39,12.34,26.79a4.5,4.5,0,0,1,.38,2.39c-1.21,7.56-2.5,15.11-3.75,22.66a13.88,13.88,0,0,0,0,1.85c3.23,0,6.27-.1,9.29,0,1.71.08,2.22-.65,2.41-2.16.61-4.71,1.23-9.42,2-14.11.39-2.5.47-5.31,1.69-7.39,4.41-7.5,9.24-14.74,13.91-22.09C445.36,178.81,447.1,176,449.17,172.71Z"/><path class="cls-3" d="M160.07,210.68h-8.75c.55-3.38,1-6.51,1.59-9.62.05-.3.71-.7,1.09-.7,6.38,0,12.77,0,19.15.06.12,0,.23.14.62.37l-2.56,17,.38.12c1.21-2.67,2.44-5.33,3.62-8,5.22-11.85,10.4-23.71,15.68-35.53a3,3,0,0,1,2.14-1.53c3.61-.16,7.23-.14,10.84,0a2.39,2.39,0,0,1,1.72,1.51c1.82,10.4,3.52,20.82,5.26,31.24a73.37,73.37,0,0,0,2.15,9.74c1.22-3.72,2.45-7.43,3.66-11.15q4.25-13,8.47-26c0-.14.1-.27.15-.4,1.75-5,1.75-5,7.07-5,6.13,0,6,0,7,6.21,1.2,7.54,2.7,15,4.19,23.21,2.3-5.36,4.35-10.11,6.38-14.86q2.74-6.45,5.44-12.92a2.35,2.35,0,0,1,2.56-1.66c3.12.13,6.25.15,9.36,0,2-.1,2.56.59,2.63,2.5.43,12.62.95,25.24,1.45,37.85q.24,5.85.49,11.7c0,.76,0,1.52,0,2.55-3.52,0-6.83.07-10.13-.08-.41,0-1.06-1.15-1.1-1.8-.49-9.77-.89-19.55-1.32-29.33a1.45,1.45,0,0,0-.42-1.06c-1.4,3.21-2.81,6.42-4.2,9.64q-4.65,10.71-9.28,21.43c0,.07,0,.15-.08.2-2,2.22-4.65.58-7,1-1.41.25-1.44-1-1.64-2q-2.59-12.92-5.21-25.83a10.54,10.54,0,0,0-.63-1.53c-1.23,3.76-2.34,7.07-3.4,10.39q-2.69,8.5-5.32,17a2.43,2.43,0,0,1-2.72,2c-5-.11-10.08-.09-15.11,0-1.6,0-2.24-.52-2.48-2.12-.61-4.13-1.46-8.23-2.09-12.36-.2-1.33-.69-1.8-2-1.76-3.12.07-6.25-.08-9.36.09a3.05,3.05,0,0,0-2.18,1.42c-2.14,4.39-4.08,8.87-6.17,13.28-.28.6-1,1.35-1.6,1.37-3.46.13-6.92.07-10.76.07l1.23-3.37a31.12,31.12,0,0,1-12.81,4c-10.3,1.09-21-4.77-25.24-14.09-2.19-4.87-2.09-10.07-1.32-15.26,1.84-12.43,9.9-19.57,20.74-24.27a36.82,36.82,0,0,1,26-1.32c1.72.52,2.48,1.2,2,3.15a57.41,57.41,0,0,0-1.08,6.93c-.17,1.45-.7,1.67-2.11,1.3-10.83-2.85-20.79-1.39-29.19,6.54-6.2,5.86-7.16,15.47-2.25,21.62,2.18,2.73,5,4.33,8.67,4,1.55-.15,3.12-.2,4.67-.22s2.55-.51,2.55-2.31A20.5,20.5,0,0,1,160.07,210.68Zm35.66-20.32-4.38,9.76h6.23Z"/><path class="cls-3" d="M255.8,262.1c4.38-8,8.59-15.64,12.86-23.29.34-.6,1.08-1.38,1.66-1.4,3.45-.13,6.91-.06,10.94-.06-1.12,2.05-2,3.69-2.9,5.29-5.85,10.1-11.81,20.13-17.51,30.31-1.24,2.21-2.61,2.78-5,2.83-2.89.07-4.67-.58-6.2-3.37-3.78-6.84-8-13.42-12.47-20.68.12,1.41.21,2.18.26,3,.76,11.1-4.69,17.88-16.4,20.26a36,36,0,0,1-6.54.7c-10.5.1-21,.08-31.49.16a3.05,3.05,0,0,1-3.16-1.81c-4.53-8.23-9.22-16.38-13.86-24.56-.28-.48-.61-.93-1.08-1.65L154.24,267c3,0,5.77.1,8.48,0,1.86-.09,2.59.51,2.43,2.41-.14,1.62.07,3.27-.1,4.88-.06.54-.81,1.45-1.24,1.45-8.43,0-16.87,0-25.3-.08-.06,0-.11-.07-.4-.26,1.55-2.7,3.09-5.44,4.69-8.14,5.34-9,10.74-18,16-27,1.17-2,2.38-3.09,5-3,6.78.22,6.7.12,10.21,6.09,4.69,8,9.53,15.87,14.31,23.8.2.32.47.6,1,1.26v-9.73c0-6.38,0-12.77,0-19.16,0-1.47.33-2.23,2-2.2,9.21.15,18.43.19,27.64.35,4.35.08,8.22,1.75,12.35,4.44-1-1.78-1.69-3-2.67-4.78a53.82,53.82,0,0,0,6.39,0c4.47-.56,7.35.69,9.45,5.19,3,6.32,6.9,12.17,10.42,18.22C255.08,261.09,255.37,261.48,255.8,262.1Zm-55.41-5.49c0,2.77,0,5.54,0,8.3,0,1.18.25,1.83,1.66,1.79,3.89-.1,7.81.13,11.69-.17a23.55,23.55,0,0,0,7.81-1.75c4.22-1.92,4.58-6,4.29-10-.35-4.83-2.61-7.59-7.42-8.05-5.49-.52-11-.36-16.56-.49-1.3,0-1.46.84-1.45,1.86Z"/><path class="cls-3" d="M265.26,275.41c2.15-3.71,4.24-7.37,6.38-11,4.9-8.28,9.86-16.52,14.68-24.83a4,4,0,0,1,4-2.33c7.29.09,7.26,0,11.05,6.45,4.72,8,9.5,15.9,14.26,23.85.14.25.25.51.38.77l.45-.24c0-.52.08-1,.08-1.55,0-9,0-18,0-27,0-1.64.47-2.15,2.14-2.26a12.23,12.23,0,0,1,9.27,3.07c7.71,6.42,15.74,12.45,23.65,18.63a10.33,10.33,0,0,0,1.37.75V251c0-3.9,0-7.8,0-11.71,0-1.46.55-2,2-2,2.12.06,4.25.05,6.38,0,1.35,0,1.89.54,1.88,1.91q0,17.35,0,34.7c0,1.4-.55,2-1.91,1.79h-.21c-3.94.66-6.93-.95-9.91-3.45-7.53-6.31-15.31-12.34-23-18.48-.26-.21-.56-.39-1.07-.76-.06.73-.14,1.24-.14,1.75,0,6.18-.05,12.35,0,18.52,0,1.77-.4,2.51-2.36,2.46-4.68-.11-9.37-.1-14,.1-2.12.1-3.16-.79-4.1-2.49-4.49-8.09-9.07-16.14-13.62-24.2-.2-.36-.43-.69-.85-1.35l-10.54,19.1c3.12,0,5.85.08,8.57,0,1.71-.07,2.48.41,2.34,2.24s.06,3.42-.1,5.1c-.05.53-.79,1.42-1.23,1.43-8.37.1-16.73.09-25.1.09C265.82,275.72,265.64,275.57,265.26,275.41Z"/><path class="cls-3" d="M358,199.43c1,1.27,2.06,2.41,2.89,3.7,3.71,5.78,2.84,12.7-2.22,17.87-4.08,4.17-8.84,6.57-14.91,6.36-6.79-.24-13.6-.06-20.41-.06-.76,0-1.52-.07-2.49-.11.23-2,.37-3.8.65-5.59q2.13-13.33,4.31-26.64c1.07-6.64,2.19-13.28,3.15-19.94.22-1.57.83-2,2.3-2,6.24.06,12.48-.11,18.71.07,5.49.17,9.41,3.27,12.19,7.74s2.22,9.08-.49,13.44C360.6,196,359.3,197.63,358,199.43Zm-23.91,16.91c4.22,0,8.3.14,12.37-.08a6,6,0,0,0,3.24-1.84,4.43,4.43,0,0,0,1.16-4.89,5,5,0,0,0-4.66-3.44c-2.81-.19-5.66,0-8.47-.18A2,2,0,0,0,335.2,208C334.85,210.7,334.48,213.43,334.08,216.34Zm3.36-21.52c3.69-.28,7-.31,10.26-.85,2.22-.38,3.84-3.3,3.54-5.41-.31-2.26-1.95-3.58-4.7-3.68-1.91-.07-3.83,0-5.74-.06a1.67,1.67,0,0,0-2,1.63C338.4,189,338,191.6,337.44,194.82Z"/><path class="cls-3" d="M364.61,202c.62-10.85,5-20.57,15.71-26.61a19.86,19.86,0,0,1,27.4,8c7.85,14.12,3.52,32.5-9.77,41.47-10.24,6.91-23,3.93-29.29-6.81C366,213.36,364.72,208.33,364.61,202Zm35.65-5.21a54,54,0,0,0-1.65-6.88c-2.33-6.36-8.9-8.13-14.32-4-7.08,5.35-10.18,17.71-6.5,25.87,2.55,5.66,8.5,7.36,13.58,3.86C397.69,211.26,399.48,204.71,400.26,196.79Z"/><path class="cls-3" d="M272.76,226.74c.65-4.3,1.29-8.72,2-13.12q2.31-14.6,4.68-29.18c.54-3.36,1-6.73,1.71-10.05a2.47,2.47,0,0,1,1.69-1.6c9.5-.09,19-.06,28.51,0a6.33,6.33,0,0,1,1.08.28c-.57,3.65-1.07,7.27-1.76,10.86-.07.38-1.23.78-1.88.79-5.25.07-10.5.12-15.75,0-1.71,0-2.17.55-2.31,2.14-.2,2.32-.69,4.61-1.08,7.12a14.2,14.2,0,0,0,1.57.17c4.47,0,8.94,0,13.4,0,1.6,0,2.18.47,1.86,2.13-.49,2.5-.84,5-1.16,7.56-.23,1.73-.89,2.51-2.84,2.44-4.25-.17-8.51,0-12.76-.06-1.28,0-1.88.3-2,1.72-.26,2.45-.79,4.87-1.28,7.74H306c-.62,3.76-1.12,7.11-1.77,10.43a1.93,1.93,0,0,1-1.4,1.2c-9.85,0-19.7,0-29.56-.07C273.18,227.16,273.13,227.07,272.76,226.74Z"/><path class="cls-3" d="M424.63,251.41c4.92,0,9.73.12,14.53,0,2.23-.08,2.75.68,2.71,2.79-.11,6,0,6-6,6H424.56v6.38c.82,0,1.58.1,2.33.1,8.51,0,17,0,25.52,0,1.7,0,2.49.37,2.32,2.22a28.13,28.13,0,0,0,0,4.68c.12,1.65-.45,2.21-2.16,2.19-8.37-.08-16.73,0-25.1,0-4.11,0-8.22-.07-12.33,0-1.61,0-2-.5-2-2.08q.11-17.13,0-34.26c0-1.6.54-2.11,2.08-2.11q18.41.06,36.8,0c1.55,0,2.2.5,2.11,2.08a36.54,36.54,0,0,0,0,4.68c.12,1.67-.52,2.22-2.18,2.2-7.73-.06-15.46,0-23.18,0C424.06,246.22,424.06,246.22,424.63,251.41Z"/><path class="cls-3" d="M409.45,260.47a79.4,79.4,0,0,1-.07,9.31c-.42,3.38-3.15,5.67-7.15,5.75q-14.25.27-28.51,0c-4.12-.09-6.81-2.2-7-6.09-.33-8.76-.19-17.56.15-26.32.12-3.15,2.52-5,5.72-5.34a59.43,59.43,0,0,1,7.42-.42c7.59,0,15.18.06,22.75.35,4.22.17,6.54,2.76,6.79,7,.13,2.24,0,4.5,0,7-3.41,0-6.66,0-9.9-.06-.38,0-1-.88-1.06-1.41a24.86,24.86,0,0,1-.05-3.48H377.72V266a15.34,15.34,0,0,0,1.69.19c5.75,0,11.5,0,17.24,0,1.42,0,2-.31,2-1.89-.06-4.28-.64-4,3.94-3.9C404.83,260.53,407.1,260.47,409.45,260.47Z"/><path class="cls-3" d="M449.17,172.71c-2.07,3.3-3.81,6.1-5.57,8.88-4.67,7.35-9.5,14.59-13.91,22.09-1.22,2.08-1.3,4.89-1.69,7.39-.74,4.69-1.36,9.4-2,14.11-.19,1.51-.7,2.24-2.41,2.16-3-.14-6.06,0-9.29,0a13.88,13.88,0,0,1,0-1.85c1.25-7.55,2.54-15.1,3.75-22.66a4.5,4.5,0,0,0-.38-2.39q-6.13-13.41-12.34-26.79a2.76,2.76,0,0,1,0-.68,16.72,16.72,0,0,1,1.75-.2c2.19,0,4.39,0,6.59,0,4.33,0,4.35,0,6,4.1,1.68,4.29,3.32,8.59,5.13,13.29a12.21,12.21,0,0,0,1.24-1.41c3.05-4.85,6-9.75,9.15-14.55a3.59,3.59,0,0,1,2.51-1.36C441.28,172.62,444.89,172.71,449.17,172.71Z"/><path class="cls-2" d="M195.73,190.36l1.85,9.76h-6.23Z"/><path class="cls-2" d="M200.39,256.61V248.1c0-1,.15-1.89,1.45-1.86,5.52.13,11.07,0,16.56.49,4.81.46,7.07,3.22,7.42,8.05.29,4-.07,8.08-4.29,10a23.55,23.55,0,0,1-7.81,1.75c-3.88.3-7.8.07-11.69.17-1.41,0-1.67-.61-1.66-1.79C200.41,262.15,200.39,259.38,200.39,256.61Z"/><path class="cls-2" d="M334.08,216.34c.4-2.91.77-5.64,1.12-8.36a2,2,0,0,1,2.52-2.07c2.81.18,5.66,0,8.47.18a5,5,0,0,1,4.66,3.44,4.43,4.43,0,0,1-1.16,4.89,6,6,0,0,1-3.24,1.84C342.38,216.48,338.3,216.34,334.08,216.34Z"/><path class="cls-2" d="M337.44,194.82c.52-3.22,1-5.79,1.36-8.37a1.67,1.67,0,0,1,2-1.63c1.91.09,3.83,0,5.74.06,2.75.1,4.39,1.42,4.7,3.68.3,2.11-1.32,5-3.54,5.41C344.46,194.51,341.13,194.54,337.44,194.82Z"/><path class="cls-2" d="M400.26,196.79c-.78,7.92-2.57,14.47-8.89,18.82-5.08,3.5-11,1.8-13.58-3.86-3.68-8.16-.58-20.52,6.5-25.87,5.42-4.1,12-2.33,14.32,4A54,54,0,0,1,400.26,196.79Z"/></g></g></svg>