<svg xmlns="http://www.w3.org/2000/svg" viewBox="0 0 375.26 440.86"><path d="M266.74 440.86c-10-2.32-16.88-8.49-21.74-17.33a6.12 6.12 0 0 0-3.8-2.26 211 211 0 0 0-75.69-2.37c-6.38.92-12.77 1.85-19.08 3.18a8.63 8.63 0 0 0-4.85 3.34c-6.13 9-14.68 13.67-25.31 12.18-9.15-1.29-18.11-4.12-27-6.67-15.53-4.46-30.88-9.55-46.47-13.75-9.37-2.52-19.08-3.8-28.59-5.78a20.9 20.9 0 0 1-5.13-2.18c-9-4.7-10.7-8.82-7.64-18.47 1.33-4.23 2.55-8.5 3.9-12.74a30.65 30.65 0 0 0 0-18.57 47.33 47.33 0 0 1-2.12-9.63c-.79-8.95 2.81-14 11.48-16.58 4.26-1.25 8.58-2.28 12.88-3.39 10.17-2.63 18.32-7.71 23.09-17.61a24.84 24.84 0 0 1 6.89-8.63c2.59-2 2.72-3.68 2.06-6.47-2-8.08-.56-15.76 2.61-23.45 6.39-15.47 12.74-31 18.32-46.76a156.48 156.48 0 0 1 24.37-44.19c5-6.46 9.47-13.38 14.83-19.52 7.55-8.67 10.37-18.72 10-29.79-.69-19.76-2.18-39.51-2.44-59.29A165.48 165.48 0 0 1 130 41.71c2.86-15.29 12-26.35 26.22-33 21.12-9.83 42.61-12.26 64.39-2.48 14.89 6.7 24.33 18.57 30.67 33.36 7.16 16.63 9.27 34.19 10.15 52 .47 9.59.87 19.2 1.67 28.77 1.09 12.72 6 23.9 13.18 34.48 16.16 23.84 32.18 47.79 47.5 72.18a120.62 120.62 0 0 1 12.32 27.77c5.15 16.38 3.55 33.19-.34 49.71-.72 3.07-.48 5.24 1.72 7.64a29 29 0 0 1 7.65 20.92c-.3 10.59 4.84 18 13.68 23.13 1.85 1.09 3.83 2 5.76 2.88 13.11 6.22 14.36 19.12 2.62 27.86a100.45 100.45 0 0 1-9.09 5.71q-25.67 15.3-51.35 30.48a16.91 16.91 0 0 0-3.38 2.64c-7.17 7.24-15.11 13.13-25.37 15.1zm5.16-134.39c5-22.13 6.31-44.19-1.39-65.55-9.36-26-19.92-51.54-30.41-77.09-4-9.65-9.24-18.75-13.8-28.15-1.61-3.27-3.92-3.84-7-2.37-4.52 2.19-9.09 4.22-13.51 6.56-9.9 5.19-19.67 10.61-29.59 15.74-5.11 2.66-10.33 1.9-15.29-.67a47 47 0 0 1-8-5c-4.86-4-9.47-8.22-14.2-12.33.77 15.8-4.63 29.57-13.58 42.4a94.12 94.12 0 0 0-8.93 17c-6.3 14.88-11.6 30.21-18.45 44.8s-10.67 29.62-10 45.67c.41 9.83 3.19 19 11.09 25.69 8.3 7.05 16.79 13.88 25 21a161.53 161.53 0 0 1 15 14.11c6.56 7.35 4 17.73-5 21.75l-3.58 1.57c5.6 6.4 10.74 12.55 16.22 18.4a8.52 8.52 0 0 0 5.36 2.73c11.17.18 22.35.29 33.51-.18 26.56-1.1 47.68-13.11 64.46-33.27a11.08 11.08 0 0 0 2.18-6.14c.76-13 1.22-26.06 1.85-39.09.21-4.32 2.68-7.05 6.86-7.55 3.45-.43 7.06-.09 11.23-.09zM113.14 425.83c2.9-.76 5.36-.75 6.94-1.93 12-8.94 17.78-18.86 8.58-33.4-5.19-8.2-11.73-15.55-17.06-23.69-7.44-11.38-14-23.38-21.59-34.64a92.19 92.19 0 0 0-14.91-17c-6.09-5.46-10.52-4.07-14.48 3-1.86 3.37-3.71 6.77-5.46 10.21a16.93 16.93 0 0 1-11.32 9.16c-6.11 1.55-12.29 2.85-18.32 4.64-7.53 2.24-8.74 4.49-7.65 12.32.14 1 .35 2 .58 2.95 1.53 6.84 1.69 13.62-.55 20.36-1.09 3.12-1.91 6.3-2.75 9.48-2.39 9.07-.88 11.57 8.18 13.72.56.14 1.1.18 1.71.29 10 1.8 20.23 2.83 30 5.6 12.34 3.53 24.23 8.65 36.43 12.73 7.28 2.48 14.8 4.27 21.67 6.2zm161.12-105.42c-5.46-1.36-7.89.06-7.81 5.17.12 8 1.65 16.12.9 24-1.45 15.06-4 30-6.27 45-1.22 8.12-1.43 16 3 23.33 4.59 7.64 11.31 10.41 19.34 6.75a63.42 63.42 0 0 0 16.15-10.32c8.74-7.94 18-15 28.59-20.36 6.9-3.47 13.72-7.15 20.5-10.84a86.46 86.46 0 0 0 9.54-5.78c3.33-2.42 3.56-5.17.44-7.86a44.1 44.1 0 0 0-9.56-6.45c-7.7-3.68-12.47-9.53-14.21-17.74a102.67 102.67 0 0 1-1.27-11.05c-.37-3.62-1.27-6.93-4.37-9.1-.4.2-.57.23-.65.34a13.18 13.18 0 0 0-1.18 1.76c-5.46 11.21-14.71 17.06-26.71 19.39-15.78 3.05-25.13-4-26.1-20-.17-2.06-.23-4.18-.33-6.24zM171.83 146.78l.2.53a68.09 68.09 0 0 0 8.25-3.28c9.53-5.22 19-10.62 28.41-16 2.75-1.58 7.36-2.7 6.39-6.41-.75-2.85-4.09-5.89-7-7.16-9.4-4.12-19.17-7.43-28.77-11.1-3.62-1.37-7.16-1.25-10.23 1q-12 8.94-23.77 18.29c-.85.68-1 3-.64 4.26 1.85 6.25 20.18 19.67 26.77 19.89zM195 98.16c0-4.37-.67-8.83.16-13 1.09-5.6 5.72-9.06 10.14-9s8.74 3.69 10.19 9.14c2 7.32.48 13.82-5.46 18.93 3.35 3.17 6 2.41 8.82-.58 9.45-10 10.25-27.66 1.59-38.36-8.51-10.49-22.94-10.08-30.78.92a27.51 27.51 0 0 0-5.2 20.79c1.38 9.09.53 8.29 10.53 11.15zm-36.93.27c2.91-1.76 5.16-3 7.24-4.44a4.55 4.55 0 0 0 1.69-2.62 29.42 29.42 0 0 0-4.2-22.2c-6.34-9.83-17.31-9.83-23.85-.15s-6.41 25.39.28 35c4.53 6.49 6.25 6.67 11.71 1.28.16-.16.13-.49.19-.75-8-2.54-12.28-10.92-10-20 .87-3.48 2.44-6.7 6.35-7.32 3.69-.59 6.08 1.88 8 4.69 3.36 4.84 3.5 10.31 2.59 16.53z" style="fill:#fff"/></svg>