<svg xmlns="http://www.w3.org/2000/svg" viewBox="0 0 579.26 440.86"><defs><style>.cls-1{fill:#aaa;}</style></defs><title>logos</title><g id="Nintendo3DS"><g id="nintendo-3" data-name="nintendo"><path class="cls-1" d="M542.16,126.84c-7.84,0-15.67.08-23.5,0-7.59-.09-12.92-5.11-13-12.67q-.3-17.22,0-34.45a12.58,12.58,0,0,1,12.82-12.5q24-.24,48,0c7.49.07,12.36,5.07,12.43,12.51q.18,17.49,0,35c-.09,7.31-4.86,12-12.2,12.11C558.52,126.93,550.34,126.83,542.16,126.84Zm.07-10.46c7.13,0,14.27-.17,21.4.07,3.74.12,4.81-1.28,4.74-4.86q-.29-14.61,0-29.23c.07-3.7-1.38-4.85-4.92-4.82q-21.15.19-42.3,0c-3.69,0-5,1.52-5,4.95.05,9.57.07,19.14,0,28.71,0,3.64,1.19,5.39,5.19,5.25C528.29,116.2,535.26,116.38,542.23,116.38Z"/><path class="cls-1" d="M542.34.3c7.66,0,15.33,0,23,0,8.63.07,13.73,5,13.84,13.53q.2,16.45,0,32.92c-.09,8.19-4.67,13.17-12.88,13.31q-23.77.41-47.55,0c-8.33-.12-13.08-5.32-13.15-13.68q-.15-16.2,0-32.39c.08-8.47,5.27-13.6,13.75-13.7C527,.22,534.67.3,542.34.3Zm-.25,10.48c-7,0-13.93.15-20.89-.06-3.66-.12-5,1.28-4.91,4.84q.19,14.62,0,29.24c0,3.51,1.07,5,4.78,5q21.4-.21,42.82,0c3.37,0,4.57-1.16,4.51-4.58-.17-9.91-.2-19.84,0-29.75.08-3.78-1.38-4.8-4.91-4.7C556.37,10.92,549.23,10.78,542.09,10.78Z"/><path class="cls-1" d="M425.18,30.56c0-8.36.28-16.72-.12-25.06C424.85,1,426.43.1,430.61.2c12.18.28,24.38.09,36.56.1,14.86,0,23.6,6.85,26.37,21.35,1.61,8.47,1.32,17-2.52,25-3.93,8.22-10.32,13.11-19.59,13.27-14.26.26-28.54.14-42.81.32-2.77,0-3.55-.89-3.5-3.59C425.27,48,425.18,39.26,425.18,30.56Zm11-.53c0,5.22.19,10.45-.07,15.66-.16,3.2.78,4.17,4,4.09,9.4-.22,18.8,0,28.2-.1,8.17-.08,12.59-3.46,14.8-11.24a28.12,28.12,0,0,0-.94-18.91c-2.17-5.21-6-8.64-11.86-8.71-10.27-.13-20.54.06-30.81-.11-2.92-.05-3.47,1.1-3.4,3.66C436.31,19.58,436.2,24.81,436.2,30Z"/><path class="cls-1" d="M397.56,43.46c0-13.72.29-26.21-.14-38.67-.18-5.11,2.48-4.5,5.71-4.55,3.39-.06,5.74-.25,5.62,4.66-.36,16-.07,32.05-.2,48.08,0,2.37,1.57,6.08-1.34,6.91-3.21.93-6.86,1-10-2.2C386.67,47,375.74,36.76,365.05,26.27c-3.1-3-6-6.3-8.93-9.46l-1.34.44v10c0,9.58-.1,19.16.07,28.74,0,3-.45,4.31-3.9,4.29-7.57-.06-7.57.15-7.57-7.28,0-15.33-.07-30.66.08-46,0-2.2-1.59-5.85,1.16-6.42C348-.09,352-.87,355.33,2.5c9.56,9.64,19.42,19,29.17,28.45C388.56,34.88,392.65,38.76,397.56,43.46Z"/><path class="cls-1" d="M268.91,29.84c0-8.71.09-17.42-.06-26.12,0-2.73.78-3.51,3.54-3.49,17.06.13,34.13.22,51.2,0,4.87-.07,3.56,3,3.69,5.47.15,2.78.65,5.33-3.94,5.22-12.88-.32-25.77,0-38.66-.2-3.68-.06-5.18.55-5,4.73.31,8.67,0,8.68,8.87,8.68,8.19,0,16.38.21,24.56-.09,4.19-.15,3.49,2.49,3.21,4.7s2,6-3.18,5.87c-9.75-.17-19.5.06-29.25-.12-3.06-.05-4.18.59-4.19,4,0,11.27-.18,11.27,10.94,11.27,10.63,0,21.26.29,31.87-.13,4.73-.18,4.89,2,4.91,5.54,0,3.42-.2,5.3-4.62,5.22-16.54-.3-33.09-.22-49.63,0-3.47,0-4.41-.94-4.31-4.35C269.07,47.25,268.91,38.54,268.91,29.84Z"/><path class="cls-1" d="M224.25.3c9.41,0,18.82.28,28.21-.11,5.14-.21,3.78,3,4,5.72.27,3.15,0,5.23-4.21,5-6.25-.39-12.54.05-18.81-.16-3-.1-3.84.88-3.81,3.83.14,13.58-.31,27.18.24,40.74.24,5.9-3,4.67-6.37,5-4.13.38-5.72-.6-5.6-5.23.35-13.4,0-26.81.19-40.22,0-3.08-.57-4.3-4-4.13-6.26.29-12.56-.21-18.81.17-4.91.31-3.58-2.91-3.63-5.39s-1-5.49,3.8-5.29C205.08.59,214.67.3,224.25.3Z"/><path class="cls-1" d="M125.06,17.5c0,12.82-.27,25.65.13,38.46.17,5.39-3,4.12-5.94,4.27-3.15.16-5.46.29-5.36-4.37.32-16.35,0-32.71.21-49.06,0-2.12-1.69-5.7,1.43-6.25,3.28-.59,7-1.35,10.22,1.84C136.7,13.34,147.92,24,159,34.84c2.69,2.64,5.16,5.51,7.74,8.27l1.32-.6V16.25A105.18,105.18,0,0,0,168,5.3c-.45-4.26,1.25-5,5.19-5.18,5.15-.29,6.29,1.31,6.18,6.3-.35,15.82-.07,31.66-.2,47.49,0,2,1.5,5.34-1.16,6-3.11.72-6.7,1.39-9.73-1.65C159,49,149.48,40.07,140.3,30.8c-4.64-4.69-8.77-9.88-13.14-14.84Z"/><path class="cls-1" d="M96.78,30.33c0,8.7-.27,17.41.1,26.1.22,5.34-3.32,3.65-5.85,3.72s-5.85,1.32-5.76-3.88c.3-17.23.2-34.46,0-51.69,0-3.39.85-4.46,4.33-4.37,7.13.18,7.14,0,7.14,7.14Z"/><path class="cls-1" d="M57.23,43.41V7.85c0-8.17,0-8.07,8.31-7.62,2.26.12,3,.74,3,3-.07,17.93,0,35.85-.06,53.77,0,1.1.58,3-1.1,3-3,.09-6.29,1.38-9-1.14-3.54-3.34-7-6.73-10.53-10.13Q32.91,34.17,18,19.58c-.93-.9-1.66-2.24-3.72-2.16,0,12.68-.29,25.32.14,37.94.18,5.14-2.27,4.9-5.88,4.94S3,60,3.08,55.41c.34-16.17.06-32.36.22-48.54,0-2.14-1.68-5.74,1.36-6.3,3.25-.61,7-1.44,10.22,1.76C25,12.42,35.3,22.25,45.54,32.17,49.09,35.61,52.67,39,57.23,43.41Z"/></g><g id="_3ds" data-name="3ds"><path class="cls-1" d="M121.26,263.14c10.76,3.64,19.88,10.56,28,23.16,20.64,32.13,20.47,81.49-.48,112.37-13.69,20.17-29.28,29.09-45.32,33.33-33.36,8.83-66.57,3.79-99.67-7.4-3.23-1.1-4.27-4-4.14-11,.22-11.62.2-23.28,0-34.9-.11-7.16.67-8.6,4-6.56,19.14,11.72,38.61,19.66,58.53,20.43,13,.51,25.93-1.86,38.06-13.31,7.78-7.34,15.36-16.94,15.19-38.4-.17-21.79-8.05-30.08-16.08-36.14-15.45-11.64-31.58-12.38-47.68-13.15a157.63,157.63,0,0,0-19.44.09c-3.41.25-4.24-2.55-4.33-9.71-.45-34.93-.54-34.93,15.18-34.92,15.51,0,31-.16,46.2-8.62a36,36,0,0,0,13-11.81c9.08-13.5,9.09-34.18-.21-46.84C91.12,165,78.75,162.26,66.34,161.46c-19.94-1.29-39.53,5.23-58.81,15.91-4.28,2.37-5.11,0-4.8-8.57.45-12.38-2.18-27.68,1-36.44,3-8.32,10.24-5.59,15.62-6.7,34.85-7.17,69.71-11.81,104.23,6.51A61,61,0,0,1,149.2,157c12.13,21,12.53,54.24.93,76.79C142.15,249.28,132.34,256.61,121.26,263.14Z"/><path class="cls-1" d="M429,434.58c-16.9,1.18-33.71-1.47-50.44-7-3-1-3.95-3.32-3.86-9.7.18-11.63.24-23.3,0-34.91-.19-8.78,1.37-8.54,4.51-6.55a105,105,0,0,0,60.49,16.94c6.51-.17,12.9-2.5,18.91-8.29,5.76-5.54,9.89-14.65,10.39-28.91.48-13.81-3.68-22.11-8.56-28.64-8.93-11.93-18.82-19.08-28.53-27.13-12.09-10-24.27-19.62-35.61-33.5a88,88,0,0,1-14.07-23.14c-11.14-27.2-9.93-63.49,3-86.66,11.21-20.13,24.74-27.94,38.61-31.83,24.26-6.8,48.53-6,72.69,3.83,3.54,1.45,4.56,4.2,4.36,11.59-.33,12.42,1.86,29.77-1,36.06-3.32,7.19-10.48-2.65-16-5.22-16.41-7.71-32.86-12.63-49.61-5.73a24.26,24.26,0,0,0-10.9,9.23c-7.17,10.52-7.7,26.18-1.3,38.84a51.4,51.4,0,0,0,13.2,16.64c14.43,12.2,28.95,24,43.38,36.2A114,114,0,0,1,501,292.23c21.23,32.94,20,88.54-2.64,116.56-14.37,17.77-30.3,23-46.4,25.58C444.33,435.6,436.64,434.58,429,434.58Z"/><path class="cls-1" d="M178.33,277.54c0-48.24.12-96.48-.11-144.71,0-9.31,1.22-11.19,5.23-11.13,28.65.39,57.31-.69,85.95.5,22,.92,43.9,5.83,63.77,29.69,31.32,37.62,44.49,108.64,32.26,176.77-9.14,51-28,78.33-51,93C299.34,431.31,283.69,434.88,268,435c-28.06.21-56.13-.14-84.18.28-4.22.06-5.63-1.62-5.57-11.72C178.48,374.89,178.33,326.21,178.33,277.54Zm46.58.27c0,34,.13,68.07-.09,102.1-.06,8.69.76,12.14,5.06,11.62,6.85-.82,13.74-.45,20.6-.17,13.26.53,26.24-2.57,38.68-13.27,24.69-21.26,36.57-71.83,29.95-128.27-5.31-45.33-20.4-67.31-39.75-78.56-16-9.29-32.36-5.87-48.6-6.89-4.5-.28-6.07,2.1-6,12.63C225.11,210.59,224.91,244.21,224.91,277.81Z"/></g></g></svg>