<svg id="Nintendo3DS" xmlns="http://www.w3.org/2000/svg" viewBox="0 0 943.25 440.86"><defs><style>.cls-1{fill:#fff;}</style></defs><title>wii u copia</title><path class="cls-1" d="M234.83,322.12c15.59,2.4,28.81,7,40.52,15.27,29.9,21.2,29.66,53.77-.69,74.15-19.83,13.31-42.41,19.19-65.65,22-48.33,5.83-96.44,2.51-144.39-4.88-4.68-.72-6.18-2.65-6-7.22.31-7.67.28-15.37,0-23-.17-4.73,1-5.68,5.78-4.33,27.73,7.73,55.93,13,84.79,13.48,18.83.33,37.56-1.23,55.14-8.78,11.26-4.85,22.24-11.18,22-25.34-.25-14.38-11.67-19.85-23.3-23.84-22.38-7.69-45.75-8.18-69.06-8.68-9.39-.21-18.79-.27-28.16,0-5,.17-6.15-1.68-6.28-6.4-.65-23.05-.79-23.05,22-23,22.47,0,44.93-.11,66.93-5.69,6.64-1.68,13.07-3.93,18.78-7.8,13.16-8.9,13.17-22.55-.3-30.9-15.78-9.78-33.7-11.58-51.67-12.11-28.89-.85-57.27,3.46-85.19,10.5-6.2,1.57-7.42,0-7-5.65.65-8.17-3.15-18.26,1.43-24.05,4.36-5.49,14.83-3.69,22.63-4.42,50.49-4.73,101-7.79,151,4.3,13.33,3.22,26.19,7.73,37.13,16.36,17.57,13.89,18.15,35.8,1.35,50.68C265.1,313,250.88,317.8,234.83,322.12Z"/><path class="cls-1" d="M680.63,435.23a401.7,401.7,0,0,1-73.07-4.62c-4.4-.67-5.73-2.2-5.59-6.41.25-7.67.35-15.37,0-23-.28-5.79,2-5.64,6.53-4.32,28.61,8.28,57.91,11.52,87.62,11.17a69.75,69.75,0,0,0,27.41-5.46c8.35-3.66,14.32-9.67,15-19.08.7-9.11-5.32-14.59-12.39-18.9-12.94-7.87-27.27-12.59-41.33-17.9-17.52-6.62-35.16-12.94-51.59-22.1-7.48-4.18-14.61-8.86-20.38-15.27-16.14-17.95-14.39-41.9,4.29-57.19,16.23-13.28,35.84-18.43,55.93-21a338.56,338.56,0,0,1,105.3,2.52c5.13,1,6.61,2.77,6.32,7.65-.49,8.2,2.7,19.64-1.51,23.79-4.81,4.74-15.19-1.75-23.11-3.44-23.77-5.09-47.6-8.34-71.86-3.78A42,42,0,0,0,672.43,264c-10.39,6.94-11.16,17.27-1.89,25.63,5.56,5,12.23,8.31,19.13,11,20.91,8.06,41.93,15.81,62.83,23.89a148.45,148.45,0,0,1,32.42,16.86c30.74,21.73,29,58.42-3.83,76.91-20.82,11.72-43.9,15.15-67.22,16.87C702.85,435.91,691.71,435.23,680.63,435.23Z"/><path class="cls-1" d="M317.51,331.62c0-31.83.18-63.66-.16-95.49-.06-6.14,1.76-7.38,7.58-7.34,41.5.26,83-.46,124.5.33,31.89.6,63.6,3.84,92.39,19.59,45.37,24.82,64.44,71.68,46.74,116.64C575.31,399,548.05,417,514.72,426.71c-21.91,6.37-44.57,8.72-67.39,8.8-40.65.13-81.3-.1-121.95.18-6.1,0-8.14-1.07-8.06-7.73C317.73,395.85,317.51,363.73,317.51,331.62Zm67.48.17c0,22.46.19,44.92-.13,67.37-.09,5.74,1.09,8,7.33,7.67,9.92-.54,19.9-.29,29.84-.11,19.2.35,38-1.7,56-8.76,35.77-14,53-47.39,43.4-84.63-7.7-29.92-29.57-44.42-57.6-51.84-23.15-6.13-46.87-3.88-70.4-4.55-6.51-.18-8.79,1.39-8.64,8.34C385.28,287.44,385,309.62,385,331.79Z"/><path class="cls-1" d="M882.66,210.39c-12.79,0-25.58.12-38.36,0-12.39-.15-21.09-8.34-21.31-20.69q-.48-28.11,0-56.25c.22-11.61,9.15-20.3,20.93-20.41q39.21-.39,78.43,0c12.24.12,20.19,8.28,20.31,20.43.18,19,.21,38.08,0,57.11-.15,11.94-7.94,19.59-19.93,19.78C909.38,210.54,896,210.38,882.66,210.39Zm.12-17.08c11.65,0,23.31-.27,35,.11,6.1.21,7.84-2.09,7.73-7.93q-.47-23.85,0-47.73c.11-6-2.25-7.91-8-7.86q-34.53.3-69.06,0c-6-.06-8.16,2.49-8.13,8.09.08,15.63.11,31.25,0,46.88-.05,5.94,1.95,8.8,8.47,8.56C860,193,871.41,193.31,882.78,193.31Z"/><path class="cls-1" d="M883,3.78c12.52,0,25-.08,37.55,0,14.08.11,22.41,8.12,22.58,22.09q.33,26.86,0,53.74c-.15,13.38-7.61,21.51-21,21.74q-38.82.64-77.64,0c-13.61-.21-21.36-8.7-21.48-22.34q-.24-26.44,0-52.9c.14-13.82,8.6-22.2,22.46-22.36C857.93,3.66,870.44,3.77,883,3.78Zm-.41,17.11c-11.37,0-22.74.25-34.1-.11-6-.18-8.09,2.1-8,7.92q.32,23.87,0,47.73c-.08,5.73,1.76,8.17,7.82,8.11,23.3-.24,46.61-.2,69.91,0,5.51,0,7.47-1.89,7.37-7.47-.29-16.19-.33-32.4,0-48.59.13-6.17-2.26-7.83-8-7.67C905.86,21.12,894.2,20.89,882.55,20.89Z"/><path class="cls-1" d="M691.66,53.18c0-13.64.46-27.3-.18-40.91-.35-7.4,2.22-8.82,9.06-8.66,19.89.47,39.79.16,59.69.17,24.26,0,38.53,11.18,43,34.85,2.64,13.84,2.15,27.76-4.11,40.86-6.42,13.42-16.85,21.4-32,21.67-23.3.42-46.61.22-69.91.52-4.51.06-5.79-1.45-5.71-5.87C691.82,81.61,691.66,67.39,691.66,53.18Zm18-.86c0,8.52.32,17.06-.11,25.56-.26,5.23,1.26,6.82,6.6,6.69,15.34-.37,30.69,0,46-.17,13.35-.12,20.56-5.65,24.17-18.35a45.9,45.9,0,0,0-1.54-30.88c-3.53-8.49-9.73-14.09-19.37-14.21-16.76-.22-33.53.1-50.3-.18-4.76-.08-5.67,1.79-5.55,6C709.84,35.27,709.67,43.79,709.66,52.32Z"/><path class="cls-1" d="M646.57,74.25c0-22.41.48-42.79-.23-63.13-.29-8.35,4-7.35,9.33-7.44,5.53-.09,9.36-.41,9.18,7.62-.6,26.15-.12,52.32-.34,78.49,0,3.87,2.57,9.92-2.18,11.29-5.24,1.51-11.2,1.68-16.4-3.6-17.14-17.43-35-34.17-52.44-51.29-5.06-5-9.73-10.29-14.58-15.46l-2.18.73V47.83c0,15.64-.18,31.29.1,46.93.09,4.9-.72,7-6.37,7-12.35-.1-12.35.25-12.35-11.89,0-25-.12-50.06.13-75.09,0-3.58-2.6-9.55,1.89-10.48,5.57-1.16,12-2.43,17.48,3.07,15.62,15.74,31.71,31,47.64,46.46C631.87,60.24,638.56,66.58,646.57,74.25Z"/><path class="cls-1" d="M436.51,52c0-14.22.15-28.43-.09-42.64-.08-4.46,1.28-5.73,5.77-5.7,27.87.21,55.74.36,83.6,0,8-.12,5.82,4.83,6,8.93.24,4.54,1.06,8.71-6.43,8.52-21-.52-42.09,0-63.12-.32-6-.1-8.47.89-8.22,7.72.51,14.15.07,14.16,14.49,14.16,13.36,0,26.74.35,40.09-.14,6.85-.25,5.7,4.06,5.25,7.68s3.29,9.72-5.19,9.58c-15.92-.28-31.85.09-47.77-.19-5-.09-6.82,1-6.84,6.47,0,18.41-.3,18.41,17.87,18.41,17.35,0,34.71.46,52-.21,7.72-.3,8,3.2,8,9,0,5.58-.32,8.65-7.53,8.52-27-.48-54-.36-81-.05-5.67.06-7.19-1.53-7-7.09C436.77,80.44,436.51,66.22,436.51,52Z"/><path class="cls-1" d="M363.59,3.78c15.36,0,30.74.45,46.07-.17,8.39-.35,6.17,4.89,6.56,9.33.45,5.14,0,8.53-6.88,8.1-10.2-.64-20.48.08-30.7-.27-4.91-.16-6.27,1.44-6.22,6.26.23,22.17-.51,44.38.38,66.52.39,9.64-4.9,7.62-10.4,8.14-6.74.63-9.34-1-9.14-8.53.57-21.88.06-43.78.31-65.67.06-5-.93-7-6.47-6.75-10.22.49-20.5-.34-30.7.29-8,.49-5.86-4.76-5.93-8.8-.08-4.25-1.68-9,6.2-8.64C332.29,4.25,348,3.78,363.59,3.78Z"/><path class="cls-1" d="M201.65,31.87c0,20.93-.45,41.88.21,62.8.27,8.79-5,6.71-9.71,7-5.14.26-8.9.48-8.75-7.13.53-26.7.08-53.41.35-80.11,0-3.46-2.76-9.3,2.34-10.21,5.36-.95,11.47-2.19,16.68,3,17.87,17.87,36.2,35.29,54.25,53,4.4,4.31,8.44,9,12.64,13.51l2.15-1V29.83c0-6,.5-12-.13-17.89-.73-6.95,2.05-8.1,8.48-8.46,8.4-.46,10.28,2.15,10.09,10.29-.57,25.84-.12,51.7-.33,77.55,0,3.32,2.45,8.71-1.89,9.72-5.08,1.18-10.94,2.27-15.89-2.7-15-15.09-30.62-29.63-45.61-44.76C219,45.93,212.2,37.45,205.07,29.35Z"/><path class="cls-1" d="M155.47,52.8c0,14.21-.44,28.44.16,42.62.36,8.72-5.42,6-9.54,6.08-4.35.12-9.56,2.16-9.42-6.34.49-28.12.33-56.26.06-84.39,0-5.54,1.4-7.28,7.08-7.14,11.65.29,11.66,0,11.66,11.66Z"/><path class="cls-1" d="M90.89,74.17V16.1c0-13.33,0-13.17,13.58-12.43,3.68.19,4.86,1.2,4.85,4.9-.12,29.26,0,58.52-.11,87.78,0,1.8.94,4.84-1.79,4.91-4.91.14-10.28,2.25-14.64-1.86-5.78-5.46-11.49-11-17.19-16.54q-24.4-23.79-48.8-47.6c-1.52-1.46-2.71-3.66-6.07-3.52,0,20.7-.48,41.34.23,61.94.29,8.39-3.71,8-9.6,8.07s-9-.45-8.87-8c.55-26.41.09-52.84.37-79.26C2.88,11,.1,5.14,5.06,4.21c5.31-1,11.46-2.33,16.68,2.88C38.2,23.57,55.08,39.62,71.81,55.82,77.61,61.44,83.44,67,90.89,74.17Z"/></svg>