<svg xmlns="http://www.w3.org/2000/svg" viewBox="0 0 585.63 440.86"><defs><style>.cls-1{fill:#aaa;}</style></defs><title>logos</title><g id="n64"><g id="text"><path class="cls-1" d="M567.2,356.72c8.85,0,8.85,0,8.85,8,0,4.41-.3,8.84.1,13.22.28,3.06-2.63,7.95,4.09,8.31,1.5.08,1,9.52-.66,9.6-5.26.27-3.7,4.11-3.4,6.53.67,5.29-2.25,5.3-6,5.16-3.6-.13-7.68.83-6.53-5.16,1.09-5.63-1.45-7.51-6.87-6.78a60,60,0,0,1-7.82.06c-6.83,0-9.22-3.2-6.1-9.46,4.63-9.3,10-18.23,15-27.3C560.29,354.63,564.47,357.72,567.2,356.72Zm-3.57,10c-2.81,5.8-4.75,10.13-7,14.3-2,3.7-1,4.7,3.05,4.61,3.26-.08,4.09-1.32,4-4.28C563.5,377.05,563.63,372.72,563.63,366.74Z"/><path class="cls-1" d="M311.45,404.25c0,9.8-.22,19.6.11,29.39.13,4.13-1.29,5-5.11,5-14.37,0-14.37.16-14.37-14.3,0-14.85.1-29.71-.08-44.57,0-3.52.64-5,4.58-4.8a173.83,173.83,0,0,0,19.9,0c3.71-.23,4.82,1.56,5.8,4.43,3.26,9.61,6.65,19.17,11.39,28.68V384.12c0-9.08,0-9.08,9.26-9.08,9.62,0,9.62,0,9.62,9.81,0,16.27-.14,32.53.11,48.79.06,4.11-1.26,5.13-5.12,5-6.22-.28-12.47-.27-18.7,0-3.45.15-4.91-1.13-6-4.36-3.3-10.14-7-20.17-10.49-30.24Z"/><path class="cls-1" d="M42,408.13c0-9.44.13-18.88-.07-28.31-.08-3.48.59-4.86,4.55-4.89,14.82-.14,14.81-.31,14.81,14.41s-.16,29.35.11,44c.08,4.34-1.31,5.5-5.44,5.26a126.32,126.32,0,0,0-17.51,0c-4.64.39-6.25-1.71-7.52-5.65a230.52,230.52,0,0,0-10.92-28.35c0,9.75-.16,19.5.09,29.24.09,3.76-1.15,4.69-4.8,4.74C.82,438.8.83,438.92.83,424.46c0-14.67.12-29.35-.09-44-.05-3.9.48-5.89,5.08-5.5,7.78.67,17.48-3,22.89,1.36,5.07,4,5.68,13.64,8.24,20.79q2,5.56,4,11.12Z"/><path class="cls-1" d="M149.43,409.14c0-10,.12-20.08-.06-30.11-.06-3.19.95-4,4.09-4.08,15-.43,15-.53,15,14.25s-.1,29.72.08,44.57c0,3.65-1,5-4.74,4.83-6.43-.27-12.88-.27-19.31,0-3.43.14-4.94-1.1-6-4.29a200.12,200.12,0,0,0-11.47-28.84c0,9.33-.15,18.67.08,28,.1,3.84-.92,5.15-5,5.16-14.14,0-14.14.19-14.14-14.06,0-14.86.13-29.72-.09-44.57-.05-3.9.95-5.54,5-5a56.51,56.51,0,0,0,6.64.05c5.42.06,12-1.74,16,.72C140,378.58,140,386,142.1,391.4c2.32,5.88,4.19,11.94,6.26,17.92Z"/><path class="cls-1" d="M363.22,406.24c0-8.82.15-17.65-.07-26.47-.08-3.47.56-5,4.53-4.83,8.83.33,17.68,0,26.52.17,15.75.3,24.67,7.59,27.76,22.9,1.74,8.61,1.31,17.19-2.64,25.22a25.43,25.43,0,0,1-19.53,14.44c-11.15,1.84-22.46.52-33.69.87-3.16.09-2.88-2-2.88-4Q363.24,420.38,363.22,406.24Zm23.19.16c0,4-.19,8,.07,12,.13,1.91-1.53,4.93,1.64,5.55a7.87,7.87,0,0,0,7.21-2.25c4-4.15,4.06-25.85,0-30.07a7.84,7.84,0,0,0-1.89-1.46c-4.5-2.35-7-.87-7,4.15C386.38,398.38,386.41,402.39,386.41,406.4Z"/><path class="cls-1" d="M490.68,406.54c0,27.08-23.15,42.22-46.31,30.08-13.28-7-15.92-19.43-15.49-32.81.47-14.57,7.48-25.25,19-28.59,12.76-3.7,25.19-3.29,35,7.34C489.11,389.27,490.74,397.69,490.68,406.54Zm-24.58-.05c.1-4.62.06-9.24-1.35-13.67a4.86,4.86,0,0,0-4.85-3.76c-2.54,0-4.36,1.22-4.86,3.63A67,67,0,0,0,455,420c.49,2.38,2.13,3.61,4.79,3.6,2.9,0,4.44-1.41,5.15-4A46.94,46.94,0,0,0,466.1,406.49Z"/><path class="cls-1" d="M236.49,406.34c0-8.83.13-17.67-.07-26.51-.07-3.39.41-5,4.47-4.9,12.68.29,25.36.2,38,0,3.29,0,4.48.77,4.54,4.31.25,12.63.4,12.63-12.44,12.63-2.62,0-5.24,0-7.85,0-2.18-.06-3.81,0-3.86,3s1.15,3.74,3.91,3.65c4.82-.17,9.66,0,14.49-.07,2.55-.06,3.34.86,3.52,3.46.9,12.81,1,12.81-11.56,12.81h-6c-2.15,0-4.39-.58-4.33,3.08.05,3.14.93,4.21,4.12,4.07,5.63-.23,11.27,0,16.9-.1,2.55-.07,3.37.7,3.55,3.36.91,13.34,1,13.34-12.37,13.34-9.86,0-19.73-.28-29.58.12-4.73.19-5.71-1.41-5.55-5.78C236.73,424,236.49,415.18,236.49,406.34Z"/><path class="cls-1" d="M203,375c7.24,0,14.49.24,21.71-.1,3.87-.18,4.62,1.17,4.62,4.75,0,11.61.15,11.77-11.38,12.24-3.46.14-3.9,1.59-3.88,4.42q.14,17.14,0,34.3c-.05,9,1.07,7.75-8.15,7.85-3.62,0-7.26-.23-10.85.07s-4.82-1-4.75-4.7c.23-12.23-.11-24.47.19-36.7.11-4.38-1.36-5.32-5.45-5.24-9.94.19-9.61,0-10.06-10.12-.24-5.49,1.29-7.3,6.89-6.89C188.93,375.43,196,375,203,375Z"/><path class="cls-1" d="M96.55,406.36c0,9.23-.12,18.47.06,27.7.07,3.32-.81,4.7-4.37,4.52-5.21-.27-10.46-.16-15.68,0-2.57.06-3.56-.85-3.55-3.47q.1-28.31,0-56.61c0-2.57.8-3.54,3.45-3.47,5.42.16,10.87.25,16.29,0,3.47-.18,3.89,1.43,3.85,4.29C96.47,388.29,96.55,397.32,96.55,406.36Z"/><path class="cls-1" d="M514.15,374.78c12.54-3.72,20.24-.79,23.42,8.41,3.36,9.7-1.51,20.36-10.84,23.73-10.23,3.7-21-.92-25-10.68-8-19.74,6.09-40.74,27.07-40.6,3.09,0,4.74.81,4,4-.58,2.55,2.37,6.81-3.59,7S517.67,368.06,514.15,374.78Zm11.28,15.62c-.52-3.51-1.39-7.18-6-7.42-3.79-.2-6.23,2.26-6,5.94.21,4,1.08,8.49,6.3,8.76C524.19,397.91,524.88,394.17,525.43,390.4Z"/></g><g id="logo"><path class="cls-1" d="M349.94,87.5c2.19-2.2,4.42-4.37,6.57-6.6,3.33-3.46,6.36-7.25,10-10.35a30,30,0,0,1,9.32-5.46c15.36-5.39,30.83-10.48,46.31-15.53a9.74,9.74,0,0,1,5.86-.25c16.87,5.95,33.63,12.17,50.48,18.15,3.12,1.11,4,2.79,4,6.06q-.19,99.51-.09,199c0,3-1.08,4.36-3.73,5.4-16.94,6.59-33.8,13.37-50.75,19.92a9.46,9.46,0,0,1-5.83.22c-13.28-4.28-26.48-8.81-39.73-13.21-4.27-1.42-8.78-2.29-12.83-4.17-5.54-2.56-10.74-5.83-16.22-8.88v3.06c0,15.86-.08,31.72.06,47.57,0,3.27-1.18,5.13-4.14,6.29-18.4,7.26-36.75,14.62-55.17,21.8a7,7,0,0,1-4.53-.32c-17.79-6.83-35.55-13.69-53.23-20.77a11.56,11.56,0,0,1-5.28-4.67q-11.62-20-22.76-40.25c-1.61-2.94-3-3.52-6.12-2.24-12.89,5.37-25.82,10.62-38.87,15.58a12,12,0,0,1-7.88.08c-15.91-6-31.66-12.41-47.55-18.5-3.26-1.24-4.71-2.71-4.7-6.52q.26-99.28.22-198.58c0-8.65-.53-6.58,6.78-9.15,15.09-5.31,30.15-10.71,45.33-15.74a14.69,14.69,0,0,1,8.78-.05c14,4.76,28,9.86,41.85,15.09,2.79,1,4.05.54,5.48-1.94q11.16-19.25,22.65-38.29a9.49,9.49,0,0,1,4.35-3.86C255.91,14,273.3,7.84,290.71,1.69a6,6,0,0,1,3.67.12c16.73,5.89,33.4,12,50.17,17.73,3.5,1.21,4.51,3,4.48,6.6-.18,20.21-.08,40.43-.08,60.64Zm-110.8,34c1.11-2.3,1.53-3.38,2.12-4.35q23-37.87,46-75.69a6.25,6.25,0,0,1,3-2.25c11.55-4.38,23.14-8.66,34.71-13,1.15-.43,2.23-1,4.19-2-12.24-4.35-23.54-8.46-34.93-12.3-1.61-.54-3.8,0-5.51.55-13.32,4.65-26.67,9.24-39.82,14.33a17.09,17.09,0,0,0-7.75,6.41c-8.43,13.42-16.46,27.1-24.47,40.78a5.73,5.73,0,0,0-.29,4.68c6,11.77,12.4,23.38,18.42,35.17a19.11,19.11,0,0,1,2.13,8.21c.19,31.58.19,63.15.23,94.72,0,1.36-.16,2.71-.26,4.29-3.61-2-73.89-122.58-76.75-131.3l43.32-15.1a11.55,11.55,0,0,0-2.15-1.4c-13.38-4.88-26.74-9.79-40.2-14.46-1.57-.55-3.73,0-5.43.56-12.52,4.29-24.92,8.92-37.52,13-3.9,1.25-5.1,2.88-5.08,6.94.18,30.7.09,61.4.09,92.11q0,48,0,96c0,2.42.37,4,3,4.94,8.59,3.18,17,6.72,25.59,10,4.17,1.61,8.42,3,13.29,4.7v-116a8.54,8.54,0,0,1,3.3,3.62c6.67,12.09,13.24,24.25,20,36.29q30.06,53.41,60.35,106.71a10.89,10.89,0,0,0,5,4.38c12.39,5.05,24.89,9.83,37.36,14.65,3.32,1.28,6.69,2.42,10.74,3.87v-5.11q0-50.19-.09-100.4-.06-46.49-.14-93c0-2.33-.2-4.46,2.86-5.5q25-8.49,49.86-17.36c2.72-1,4.2-.29,5.83,1.9,7.06,9.44,14.23,18.78,21.42,28.12q24.76,32.13,49.61,64.21a55.11,55.11,0,0,0,4.37,4.39v-5.13q-.11-59.37-.27-118.73c0-3.09.83-4.58,3.94-5.57,7.89-2.5,15.63-5.5,23.43-8.28,5.12-1.83,10.24-3.63,16-5.67a23.39,23.39,0,0,0-3.18-1.81C453.68,68.48,442,64,430.08,60.26a20.3,20.3,0,0,0-11.48.18C406.27,64.34,394,68.63,382,73.35a36.81,36.81,0,0,0-12.26,7.85c-10.81,10.77-21.19,22-31.56,33.18-2.21,2.38-4.2,3-7.23,1.92-11.79-4.16-23.6-8.26-35.5-12.11a12.16,12.16,0,0,0-7.07,0c-10.36,3.42-20.59,7.19-30.87,10.83C251.79,117.07,246.07,119.06,239.14,121.49ZM348.2,204.14l-1,.83c0,12.63,0,25.25.06,37.88a6.36,6.36,0,0,0,1.22,3.56c4.28,5.69,8.47,11.47,13.15,16.81,2.61,3,5.75,6.14,9.3,7.5,12.74,4.86,25.77,9,38.69,13.39,2.08.7,4.18,1.33,6.27,2l.57-1Z"/></g></g></svg>