<svg xmlns="http://www.w3.org/2000/svg" viewBox="0 0 860.66 440.86"><defs><style>.cls-1{fill:#aaa;}</style></defs><title>nds</title><g id="nds"><path class="cls-1" d="M805.26,193.21c-11.7,0-23.39.11-35.09,0-11.33-.14-19.28-7.63-19.48-18.92q-.45-25.71,0-51.44c.21-10.62,8.37-18.56,19.15-18.67q35.85-.34,71.72,0c11.2.11,18.46,7.58,18.57,18.69q.25,26.11,0,52.23C860,186,852.86,193,841.9,193.16,829.69,193.35,817.47,193.2,805.26,193.21Zm.1-15.62c10.66,0,21.32-.25,32,.1,5.58.19,7.18-1.91,7.07-7.25q-.42-21.83,0-43.65c.1-5.52-2.06-7.24-7.36-7.19q-31.57.29-63.15,0c-5.51,0-7.46,2.28-7.43,7.4.07,14.29.1,28.58,0,42.87,0,5.43,1.78,8,7.75,7.84C784.56,177.32,795,177.59,805.36,177.59Z"/><path class="cls-1" d="M805.53,4.26c11.44,0,22.89-.07,34.33,0,12.88.11,20.5,7.43,20.66,20.21q.3,24.57,0,49.15c-.14,12.23-7,19.66-19.23,19.87q-35.49.6-71,0c-12.44-.19-19.53-8-19.64-20.43q-.21-24.18,0-48.37c.12-12.64,7.86-20.31,20.53-20.46C782.64,4.16,794.08,4.26,805.53,4.26Zm-.37,15.65c-10.4,0-20.8.24-31.19-.09-5.47-.17-7.4,1.91-7.33,7.24q.29,21.83,0,43.65c-.08,5.24,1.61,7.46,7.15,7.41,21.31-.21,42.62-.18,63.93,0,5,0,6.83-1.73,6.74-6.83-.27-14.81-.3-29.62,0-44.43.12-5.64-2.07-7.16-7.34-7C826.47,20.12,815.81,19.91,805.16,19.91Z"/><path class="cls-1" d="M630.59,49.45c0-12.48.42-25-.17-37.42-.32-6.77,2-8.06,8.29-7.92,18.19.43,36.39.15,54.59.16,22.18,0,35.23,10.22,39.36,31.87,2.42,12.65,2,25.38-3.76,37.36C723,85.78,713.5,93.08,699.66,93.32c-21.31.38-42.62.21-63.93.48-4.13,0-5.3-1.33-5.22-5.37C630.74,75.44,630.59,62.44,630.59,49.45Zm16.46-.79c0,7.79.29,15.6-.1,23.38-.24,4.78,1.15,6.23,6,6.11,14-.33,28.07,0,42.1-.15,12.21-.12,18.8-5.17,22.11-16.78A42,42,0,0,0,715.77,33c-3.23-7.76-8.89-12.88-17.71-13-15.33-.2-30.66.09-46-.16-4.36-.08-5.19,1.63-5.08,5.45C647.21,33.06,647.06,40.86,647.05,48.66Z"/><path class="cls-1" d="M589.36,68.71c0-20.49.43-39.13-.21-57.73-.27-7.63,3.7-6.72,8.53-6.8,5.05-.09,8.56-.38,8.39,7-.55,23.92-.1,47.86-.31,71.78,0,3.54,2.35,9.08-2,10.33-4.8,1.38-10.24,1.54-15-3.29-15.67-15.94-32-31.25-48-46.91-4.62-4.53-8.89-9.41-13.33-14.13l-2,.66v15c0,14.31-.17,28.62.09,42.92.08,4.48-.66,6.44-5.83,6.4-11.29-.09-11.29.23-11.29-10.88,0-22.88-.11-45.77.12-68.66,0-3.28-2.38-8.73,1.73-9.59,5.1-1.05,11-2.22,16,2.81,14.28,14.4,29,28.37,43.56,42.48C575.91,55.9,582,61.7,589.36,68.71Z"/><path class="cls-1" d="M397.26,48.37c0-13,.14-26-.08-39-.07-4.08,1.16-5.24,5.28-5.21,25.48.19,51,.32,76.45,0,7.27-.11,5.32,4.42,5.51,8.17.22,4.15,1,8-5.88,7.79-19.23-.48-38.49,0-57.73-.29-5.49-.09-7.73.81-7.51,7.05.47,12.94.06,13,13.25,13,12.22,0,24.46.31,36.66-.13,6.27-.23,5.22,3.71,4.8,7s3,8.88-4.74,8.75c-14.56-.26-29.13.09-43.69-.17-4.56-.08-6.24.87-6.25,5.92C413.29,78,413.06,78,429.67,78c15.86,0,31.74.43,47.58-.19,7.06-.27,7.31,2.92,7.33,8.27,0,5.1-.3,7.91-6.89,7.79-24.7-.44-49.41-.33-74.11-.05-5.19.06-6.58-1.39-6.44-6.48C397.5,74.38,397.26,61.37,397.26,48.37Z"/><path class="cls-1" d="M330.58,4.27c14.05,0,28.11.41,42.13-.16,7.67-.31,5.64,4.47,6,8.53.41,4.71,0,7.81-6.29,7.41-9.32-.58-18.72.08-28.07-.24-4.49-.15-5.74,1.31-5.69,5.72.21,20.28-.47,40.58.35,60.83.36,8.81-4.48,7-9.51,7.45-6.16.57-8.54-.9-8.36-7.8.52-20,.05-40,.28-60.06.06-4.6-.85-6.41-5.91-6.17-9.35.44-18.75-.31-28.08.26-7.33.45-5.35-4.34-5.42-8-.07-3.88-1.54-8.2,5.67-7.89C302,4.7,316.28,4.27,330.58,4.27Z"/><path class="cls-1" d="M182.48,30c0,19.15-.4,38.31.2,57.43.25,8.05-4.52,6.15-8.88,6.37-4.71.24-8.14.44-8-6.52.49-24.41.08-48.84.33-73.26,0-3.17-2.53-8.5,2.14-9.33,4.89-.87,10.49-2,15.25,2.75,16.35,16.34,33.1,32.27,49.61,48.45,4,3.94,7.72,8.23,11.56,12.36l2-.9V28.09c0-5.46.45-11-.12-16.36-.67-6.36,1.87-7.4,7.75-7.73,7.69-.43,9.4,2,9.23,9.4-.53,23.63-.11,47.28-.3,70.92,0,3,2.24,8-1.73,8.89-4.65,1.08-10,2.08-14.53-2.46-13.74-13.81-28-27.1-41.71-40.94-6.94-7-13.11-14.75-19.62-22.16Z"/><path class="cls-1" d="M140.25,49.1c0,13-.39,26,.15,39,.33,8-5,5.46-8.73,5.56-4,.11-8.74,2-8.61-5.79.45-25.72.3-51.45.06-77.18-.05-5.06,1.28-6.66,6.47-6.53,10.65.27,10.66,0,10.66,10.67Z"/><path class="cls-1" d="M81.2,68.64V15.54c0-12.2,0-12,12.41-11.38,3.37.19,4.45,1.11,4.44,4.49-.11,26.76,0,53.52-.1,80.28,0,1.64.86,4.42-1.64,4.48-4.48.13-9.4,2.06-13.38-1.7-5.29-5-10.52-10-15.72-15.12Q44.89,54.83,22.58,33.06c-1.39-1.34-2.47-3.35-5.55-3.22,0,18.93-.44,37.8.21,56.64.26,7.67-3.4,7.32-8.78,7.38S.21,93.45.35,86.56C.86,62.41.43,38.24.68,14.08c0-3.19-2.51-8.57,2-9.41C7.56,3.76,13.19,2.53,18,7.3,33,22.36,48.45,37,63.75,51.86,69.05,57,74.39,62.09,81.2,68.64Z"/><g id="DS"><path class="cls-1" d="M560.37,435.52a616,616,0,0,1-111.85-7.08c-6.74-1-8.77-3.36-8.56-9.81.38-11.74.54-23.53,0-35.26-.43-8.86,3-8.62,10-6.61,43.79,12.68,88.64,17.64,134.13,17.11,14.45-.17,28.62-2.53,42-8.37,12.78-5.6,21.93-14.8,23-29.21,1.07-13.94-8.14-22.33-19-28.92-19.81-12.05-41.74-19.28-63.26-27.41-26.82-10.13-53.83-19.81-79-33.83-11.45-6.39-22.37-13.56-31.19-23.38-24.71-27.47-22-64.13,6.56-87.53,24.85-20.33,54.86-28.22,85.61-32.15,53.8-6.87,107.62-6.09,161.2,3.87,7.85,1.46,10.12,4.24,9.68,11.71-.75,12.55,4.12,30.07-2.32,36.42-7.37,7.26-23.24-2.68-35.37-5.27C645.61,162,609.14,157,572,164c-8.63,1.62-16.86,4.44-24.16,9.32-15.91,10.63-17.09,26.44-2.89,39.24,8.5,7.67,18.7,12.73,29.27,16.8,32,12.33,64.19,24.2,96.18,36.57,17.47,6.75,34.26,14.94,49.63,25.8,47.07,33.27,44.39,89.44-5.87,117.74-31.86,17.94-67.19,23.19-102.89,25.83C594.38,436.56,577.34,435.52,560.37,435.52Z"/><path class="cls-1" d="M4.51,276.91c0-48.73.27-97.46-.24-146.18-.1-9.4,2.69-11.29,11.6-11.24,63.53.4,127.08-.69,190.59.51,48.81.93,97.35,5.89,141.42,30,69.46,38,98.65,109.73,71.55,178.55-20.29,51.5-62,79.11-113,93.94-33.54,9.74-68.23,13.35-103.16,13.46-62.22.21-124.45-.14-186.68.28-9.35.07-12.46-1.64-12.33-11.84C4.85,375.23,4.51,326.07,4.51,276.91Zm103.3.27c0,34.37.29,68.75-.21,103.12-.12,8.78,1.69,12.26,11.23,11.74,15.19-.83,30.46-.45,45.69-.17,29.39.53,58.18-2.59,85.75-13.41C305,357,331.37,305.92,316.71,248.91c-11.78-45.79-45.26-68-88.16-79.36-35.45-9.38-71.75-5.93-107.77-7-10-.28-13.46,2.12-13.23,12.77C108.25,209.28,107.81,243.23,107.81,277.18Z"/></g></g></svg>