<svg xmlns="http://www.w3.org/2000/svg" viewBox="0 0 588.84 440.86"><defs><style>.cls-1{fill:#aaa;}</style></defs><title>logos</title><g id="nds"><path class="cls-1" d="M541,131.05c-7.86,0-15.71.08-23.57,0-7.61-.09-13-5.12-13.09-12.7q-.3-17.28,0-34.56a12.61,12.61,0,0,1,12.86-12.54q24.09-.24,48.18,0c7.53.07,12.41,5.09,12.48,12.55.11,11.7.13,23.39,0,35.08-.09,7.34-4.88,12-12.24,12.16C557.39,131.15,549.18,131.05,541,131.05Zm.07-10.49c7.16,0,14.32-.17,21.47.07,3.75.12,4.82-1.29,4.75-4.87q-.28-14.66,0-29.33c.06-3.7-1.39-4.86-4.94-4.83q-21.23.2-42.43,0c-3.7,0-5,1.53-5,5,0,9.6.06,19.2,0,28.8,0,3.65,1.2,5.41,5.21,5.26C527.07,120.38,534.07,120.56,541.05,120.56Z"/><path class="cls-1" d="M541.16,4.12c7.69,0,15.38,0,23.07,0,8.65.07,13.77,5,13.87,13.57q.21,16.52,0,33c-.1,8.22-4.68,13.22-12.92,13.35q-23.85.41-47.7,0c-8.36-.13-13.12-5.34-13.19-13.73q-.15-16.24,0-32.49c.08-8.49,5.28-13.64,13.8-13.74C525.78,4.05,533.47,4.12,541.16,4.12Zm-.25,10.51c-7,0-14,.16-20.95-.06-3.68-.12-5,1.29-4.92,4.86q.18,14.67,0,29.33c0,3.52,1.08,5,4.8,5q21.48-.21,42.95,0c3.38,0,4.59-1.16,4.53-4.59-.18-9.94-.2-19.9,0-29.84.08-3.8-1.39-4.82-4.93-4.72C555.23,14.77,548.07,14.63,540.91,14.63Z"/><path class="cls-1" d="M423.64,34.47c0-8.38.28-16.77-.12-25.13-.21-4.55,1.37-5.42,5.57-5.32,12.22.28,24.45.09,36.67.1,14.91,0,23.67,6.87,26.45,21.41,1.62,8.5,1.32,17.06-2.52,25.1C485.74,58.88,479.34,63.78,470,64c-14.31.25-28.64.13-43,.32-2.77,0-3.56-.9-3.51-3.61C423.73,51.93,423.64,43.2,423.64,34.47Zm11.06-.53c0,5.24.19,10.48-.07,15.71-.17,3.21.77,4.18,4.05,4.11,9.42-.23,18.86,0,28.28-.11,8.2-.08,12.63-3.47,14.85-11.27a28.17,28.17,0,0,0-.95-19c-2.17-5.22-6-8.66-11.89-8.74-10.3-.13-20.61.07-30.91-.1-2.92-.05-3.48,1.1-3.41,3.66C434.8,23.47,434.7,28.71,434.7,33.94Z"/><path class="cls-1" d="M395.94,47.41c0-13.76.29-26.28-.15-38.78-.17-5.13,2.49-4.52,5.74-4.57s5.75-.25,5.63,4.68c-.36,16.07-.07,32.15-.21,48.22,0,2.38,1.59,6.1-1.33,6.94-3.22.93-6.88,1-10.08-2.21C385,51,374.05,40.69,363.32,30.18c-3.1-3.05-6-6.33-8.95-9.5l-1.34.45V31.18c0,9.62-.11,19.23.06,28.84.05,3-.44,4.32-3.91,4.29-7.59-.06-7.59.16-7.59-7.3,0-15.38-.08-30.75.08-46.13,0-2.2-1.6-5.87,1.16-6.44,3.42-.71,7.39-1.49,10.74,1.89,9.6,9.67,19.48,19.06,29.27,28.54C386.9,38.81,391,42.7,395.94,47.41Z"/><path class="cls-1" d="M266.88,33.75c0-8.73.1-17.47-.05-26.2-.05-2.73.78-3.52,3.54-3.5,17.12.13,34.25.22,51.36,0,4.89-.07,3.58,3,3.71,5.49.14,2.79.65,5.35-3.95,5.23-12.92-.32-25.86,0-38.78-.19-3.69-.06-5.2.54-5,4.74.31,8.69,0,8.7,8.9,8.7,8.21,0,16.43.21,24.63-.09,4.21-.15,3.5,2.5,3.22,4.72s2,6-3.18,5.88c-9.78-.17-19.57.07-29.35-.11-3.07,0-4.19.59-4.2,4,0,11.31-.19,11.31,11,11.31,10.65,0,21.32.28,32-.13,4.74-.19,4.91,2,4.92,5.55,0,3.43-.2,5.32-4.63,5.24-16.59-.3-33.19-.23-49.78,0-3.48,0-4.42-.93-4.33-4.35C267,51.22,266.88,42.48,266.88,33.75Z"/><path class="cls-1" d="M222.09,4.12c9.43,0,18.88.28,28.3-.1,5.15-.21,3.79,3,4,5.73.27,3.16,0,5.24-4.23,5-6.26-.39-12.58,0-18.86-.17-3-.1-3.85.88-3.82,3.84.14,13.63-.31,27.27.23,40.87.24,5.92-3,4.69-6.39,5-4.14.39-5.73-.6-5.61-5.23.35-13.45,0-26.9.19-40.35,0-3.09-.58-4.31-4-4.15-6.27.3-12.59-.21-18.86.18-4.93.3-3.59-2.92-3.64-5.41s-1-5.51,3.81-5.3C202.85,4.41,212.48,4.12,222.09,4.12Z"/><path class="cls-1" d="M122.59,21.38c0,12.86-.27,25.73.13,38.58.17,5.4-3,4.13-6,4.27-3.16.17-5.47.3-5.38-4.37.33-16.4.05-32.82.22-49.22,0-2.13-1.7-5.71,1.44-6.27s7-1.35,10.24,1.85c11,11,22.24,21.68,33.33,32.55,2.71,2.65,5.19,5.52,7.77,8.3l1.32-.61V20.12a103,103,0,0,0-.08-11c-.45-4.28,1.26-5,5.21-5.2,5.16-.29,6.31,1.32,6.2,6.32-.35,15.87-.07,31.76-.2,47.64,0,2,1.5,5.35-1.17,6-3.12.72-6.72,1.39-9.76-1.66-9.23-9.28-18.81-18.2-28-27.5-4.66-4.7-8.8-9.91-13.18-14.89Z"/><path class="cls-1" d="M94.22,34.24c0,8.73-.26,17.47.1,26.18.23,5.36-3.33,3.67-5.86,3.74s-5.87,1.32-5.78-3.9c.29-17.27.2-34.56,0-51.84,0-3.41.86-4.48,4.35-4.39,7.16.18,7.16,0,7.16,7.16Z"/><path class="cls-1" d="M54.55,47.37V11.69c0-8.19,0-8.09,8.34-7.64,2.26.12,3,.74,3,3-.07,18,0,36-.06,53.92,0,1.11.57,3-1.11,3-3,.08-6.31,1.38-9-1.15-3.55-3.35-7.06-6.75-10.56-10.15q-15-14.62-30-29.25c-.93-.9-1.66-2.25-3.73-2.16,0,12.72-.3,25.4.14,38.05.18,5.16-2.28,4.92-5.9,5S.14,64,.24,59.41c.33-16.23,0-32.47.22-48.69C.48,8.57-1.23,5,1.82,4.39c3.26-.61,7-1.44,10.25,1.77,10.11,10.12,20.48,20,30.76,29.93C46.39,39.54,50,43,54.55,47.37Z"/><g id="DS"><path class="cls-1" d="M389.36,435.48c-26,1.27-51.77-1.56-77.46-7.47-4.67-1.08-6.07-3.55-5.93-10.35.27-12.39.37-24.82,0-37.19-.29-9.36,2.11-9.1,6.92-7,30.33,13.38,61.39,18.6,92.9,18.05a52.79,52.79,0,0,0,29.05-8.83c8.84-5.91,15.18-15.62,15.94-30.82.74-14.71-5.64-23.56-13.14-30.51-13.71-12.71-28.9-20.34-43.81-28.92-18.57-10.69-37.27-20.9-54.69-35.69-7.93-6.74-15.49-14.31-21.6-24.66-17.11-29-15.26-67.66,4.55-92.36,17.2-21.44,38-29.77,59.28-33.91,37.26-7.25,74.53-6.42,111.63,4.08,5.44,1.54,7,4.47,6.71,12.35-.52,13.24,2.85,31.73-1.61,38.43-5.1,7.66-16.1-2.83-24.49-5.56-25.2-8.22-50.46-13.46-76.18-6.11a37.2,37.2,0,0,0-16.74,9.83c-11,11.21-11.83,27.9-2,41.4,5.89,8.09,12.95,13.43,20.27,17.72,22.17,13,44.45,25.54,66.61,38.59a149.58,149.58,0,0,1,34.36,27.22c32.6,35.1,30.74,94.36-4.06,124.21-22.06,18.94-46.53,24.47-71.25,27.26C412.91,436.57,401.11,435.48,389.36,435.48Z"/><path class="cls-1" d="M4.42,268.14c0-51.41.19-102.82-.17-154.22-.06-9.92,1.87-11.91,8-11.85,44,.41,88-.74,132,.53,33.81,1,67.42,6.21,97.94,31.64C290.3,174.33,310.52,250,291.75,322.62c-14,54.33-42.94,83.46-78.27,99.1-23.22,10.28-47.25,14.09-71.43,14.21-43.1.21-86.19-.16-129.28.29-6.48.07-8.63-1.73-8.54-12.49C4.66,371.87,4.42,320,4.42,268.14Zm71.54.28c0,36.27.2,72.55-.14,108.81-.09,9.26,1.16,12.93,7.77,12.38,10.52-.88,21.09-.48,31.64-.18,20.35.56,40.29-2.74,59.38-14.15,37.93-22.65,56.17-76.53,46-136.68-8.15-48.31-31.34-71.74-61.05-83.72-24.55-9.9-49.69-6.26-74.63-7.34-6.91-.3-9.32,2.23-9.17,13.46C76.26,196.8,76,232.62,76,268.42Z"/></g></g></svg>