<svg xmlns="http://www.w3.org/2000/svg" viewBox="0 0 1040.27 440.86"><defs><style>.cls-1{fill:#aaa;}.cls-2{fill:#fff;}</style></defs><title>nes</title><g id="nes"><g id="Text-2" data-name="Text"><path id="path867" class="cls-1" d="M154.76,301.64H96.66v56.88h18v-38a4.44,4.44,0,0,1,4.41-4.41h31.23a4.46,4.46,0,0,1,4.42,4.41v38h18v-38s2.41-18.83-18-18.83"/><path id="path869" class="cls-1" d="M656.64,301.64h-58.1v56.88H617v-38a4.4,4.4,0,0,1,4-4.41h31.25a4.46,4.46,0,0,1,4.41,4.41v38h18v-38s2.4-18.83-18-18.83"/><path id="path871" class="cls-1" d="M930.2,301.64H872.12v56.88h18v-38a4.43,4.43,0,0,1,4.4-4.41H925.8a4.45,4.45,0,0,1,4.4,4.41v38h18v-38s2.39-18.83-18-18.83"/><path id="path873" class="cls-1" d="M180.79,316.06h20a4.74,4.74,0,0,1,4.42,4.41v38h19.21v-38a4.45,4.45,0,0,1,4.41-4.41h20V301.64H180.79v14.42"/><path id="path875" class="cls-1" d="M955.83,301.64v14.42h20a4.45,4.45,0,0,1,4.4,4.41v38h20v-38c0-2.41,1.58-4.41,4-4.41h20V301.64h-68.5"/><path id="path877" class="cls-1" d="M409.5,316.06h20a4.46,4.46,0,0,1,4.41,4.41v38h20v-38a4.45,4.45,0,0,1,4.42-4.41h20V301.64H409.5v14.42"/><path id="path879" class="cls-1" d="M567.31,301.64h19.22v56.88H567.31Z"/><path id="path881" class="cls-1" d="M536.46,329.69H504v-10c0-1.61,2.39-3.61,3.59-3.61h24.43c2.79,0,4.4,2,4.4,3.61v10m-.4-28.05H504.42c-20.43,0-18.82,18.83-18.82,18.83v38H504V344.11h32.42v14.41h18.42v-38s2.4-18.83-18.82-18.83"/><path id="path883" class="cls-1" d="M383.86,325.29c0,2.79-1.19,4.4-3.6,4.4H353.82c-1.19,0-2.79-1.61-2.79-4.4v-5.62a4.11,4.11,0,0,1,4-4.41h25.24c2.41,0,3.6,1.19,3.6,4.41v5.62m-.39-23.65H332.2v56.88H351V347.7c0-2.4,1.6-3.59,4-3.59h25.24c1.19,0,3.6,2,3.6,3.59v10.82h18v-8.79s1.61-8-6.8-13.65a19.85,19.85,0,0,0,8-13.61,13.1,13.1,0,0,0,.39-2.8s0-18-20-18"/><path id="path885" class="cls-1" d="M21,339.7s-2,18.82,18.84,18.82H84.66V344.11H43a5.26,5.26,0,0,1-5.21-4.8c0-2.81,2-4.42,5.21-4.42H82.26v-10H42.19a4.41,4.41,0,0,1,0-8.82H84.66V301.64H21V339.7"/><path id="path887" class="cls-1" d="M257.29,339.7s-2.81,18.82,18,18.82h44.87V344.11H278.52a5.25,5.25,0,0,1-5.21-4.8c0-2.81,2.4-4.42,5.21-4.42h39.26v-10H278.52c-2.81,0-5.21-2-5.21-4.41s2.4-4.41,5.21-4.41h41.67V301.64h-62.9V339.7"/><path id="path889" class="cls-1" d="M797.22,339.7s-2,18.82,18.43,18.82h45.26V344.11H818.84a5.18,5.18,0,0,1-4.8-4.8c0-2.81,1.61-4.42,4.41-4.42H857.7v-10H818.45a4.41,4.41,0,0,1,0-8.82h42.46V301.64H797.22V339.7"/><path id="path891" class="cls-1" d="M767.32,301.72H686.79v56.87h16.83v-38a4.45,4.45,0,0,1,4.4-4.41h13.61a4.47,4.47,0,0,1,4.43,4.41v38h18.82v-38a4.21,4.21,0,0,1,4.4-4.41h14.43c1.59,0,3.61,2,3.61,4.41l.78,38h18v-38s2.4-18.83-18.8-18.83"/><path id="path893" class="cls-1" d="M511.24,395.36h20.42c1.58,0,3.6,2,3.6,4.41v38.05h20l.8-38.05c0-2.39,1.19-4.41,3.61-4.41h20V381H511.24v14.41"/><path id="path895" class="cls-1" d="M742.75,381h-80.5v56.87h16.81V399.77a4.46,4.46,0,0,1,4.41-4.41h13.62a4.45,4.45,0,0,1,4.39,4.41v38.05h18.83V399.77a4.21,4.21,0,0,1,4.41-4.41h14.42c1.61,0,3.61,2,3.61,4.41l.8,38.05h18V399.77S764,381,742.75,381"/><path id="path897" class="cls-1" d="M428.73,381H411.5v21.23a4.74,4.74,0,0,1-4.4,4.4H381.45a4.46,4.46,0,0,1-4.4-4.4V381H359v20.83S357,421,377.86,421h6v16.83h20V421h6.8c20.83,0,18-18.81,18-18.81V381"/><path id="path899" class="cls-1" d="M587.33,419s-2.8,18.82,18,18.82h44.86V423.39H608.57a5,5,0,0,1-5.22-4.81c0-2.79,2.41-4,5.22-4h39.24v-10H608.57a5.23,5.23,0,0,1-5.22-4.79c0-2.39,2.41-4.41,5.22-4.41h41.65V381H587.33V419"/><path id="path901" class="cls-1" d="M486.4,404.16H459.56c-3.2,0-5.19-1.18-5.19-4,0-2.42,2-4.82,4.39-4.82h45.66V381H454.37c-9.22,0-17.22,7.61-17.22,16.43,0,12.41,8,17.22,18.81,17.22H482.8c2.8,0,5.61,1.19,5.61,4,0,2.41-2,4.81-4.42,4.81H437.15v14.43h51.26c8.41,0,17.22-6.81,17.22-16.43,0-11.6-9.22-17.23-19.23-17.23"/><path id="path903" class="cls-1" d="M333.8,404.16h-26c-3.21,0-5.6-1.18-5.6-4a5.16,5.16,0,0,1,4.8-4.82h45.67V381H302.55c-10,0-18,7.61-18,16.43,0,12.41,8.82,17.22,19.63,17.22h26c3.22,0,5.61,1.19,5.61,4a5.16,5.16,0,0,1-4.8,4.81H284.52v14.43h51.27c9.22,0,17.64-6.81,17.64-16.43,0-11.6-8.82-17.23-19.63-17.23"/></g><g id="contorno"><rect id="background" class="cls-1" x="63.29" y="51.25" width="912.04" height="158" rx="73"/><path id="path1065" class="cls-1" d="M142,249.38C61.83,249.35,8.28,195,8.28,129.15h0C8.28,63.27,62,8.32,141.84,8.49H896.78c79.88-.17,133.55,54.78,133.55,120.66h0c0,65.87-53.54,120.2-133.68,120.23Zm.24-211.26C78.76,38.24,39.82,78.8,39.82,129h0c0,50.18,38.7,91.08,102.38,90.86H896.41c63.68.21,102.39-40.68,102.39-90.86h0c0-50.17-38.94-90.74-102.38-90.86Z"/></g><g id="Nintendo"><polygon id="polygon1045" class="cls-2" points="132.37 190.39 95.09 190.39 95.1 69.99 132.62 69.99 184.51 153.95 184.48 69.99 221.71 69.99 221.71 190.39 184.54 190.39 132.37 106.43 132.37 190.39"/><polygon id="polygon1047" class="cls-2" points="460.34 190.39 424.08 190.39 424.1 110.48 404.41 110.48 404.41 98.6 424.11 98.58 424.08 82.37 460.32 82.37 460.32 98.57 479.92 98.57 479.92 110.48 460.32 110.48 460.34 190.39"/><polygon id="polygon1049" class="cls-2" points="278.64 190.39 242.43 190.39 242.43 110.32 278.64 110.33 278.64 190.39"/><polygon id="polygon1051" class="cls-2" points="278.64 94.57 242.35 94.57 242.35 69.96 278.64 69.96 278.64 94.57"/><path id="path1053" class="cls-2" d="M891.49,149.72s0,12.11,0,17c0,12.77-7.55,18-14.8,18s-14.83-5.26-14.83-18c0-4.85,0-17.26,0-17.26s0-11.85,0-16.7c0-12.71,7.58-17.94,14.79-17.94s14.8,5.23,14.8,17.94c0,4.85,0,13.83,0,17ZM877,104.86c-29.23,0-52.92,20.13-52.92,45s23.7,45,52.92,45,52.91-20.13,52.91-45S906.17,104.86,877,104.86Z"/><path id="path1055" class="cls-2" d="M776.5,70h35.74v120.4H776.45s0-3.88,0-4.63a43.47,43.47,0,0,1-41.66,3c-3.27-1.52-24.77-11.83-24.77-39.7,0-21.13,19.94-44.21,46-41.93,8.59.76,14.7,3.89,20.49,7.15,0-18.53,0-44.3,0-44.3Zm.27,80V135.64c0-12.38-8.55-15.53-14.18-15.53s-14.2,3.15-14.2,15.53c0,4.11,0,14.27,0,14.27s0,10,0,14.25c0,12.36,8.44,15.6,14.19,15.6s14.2-3.24,14.2-15.6c0-5.15,0-14.21,0-14.21Z"/><path id="path1057" class="cls-2" d="M363.4,106.62c13.54-.39,41,8.48,40.81,40.18,0,5.62,0,43.57,0,43.57h-36V137.78c0-7-6.67-14.74-16.55-14.74s-17.19,7.76-17.19,14.74c0,3.42,0,52.59,0,52.59H298.59V110.3l36,0s0,6.44,0,8.43a43.57,43.57,0,0,1,28.85-12.08Z"/><path id="path1059" class="cls-2" d="M657.66,106.62c13.54-.39,41,8.48,40.81,40.18,0,5.62,0,43.57,0,43.57h-36V137.78c0-7-6.67-14.74-16.55-14.74s-17.19,7.76-17.19,14.74c0,3.42,0,52.59,0,52.59H592.84l0-80.07,35.93,0s0,6.44,0,8.43a43.59,43.59,0,0,1,28.85-12.08Z"/><path id="path1061" class="cls-2" d="M513.65,138.24c-.06-7,.09-11.71,2.39-15.71a14.82,14.82,0,0,1,12.74-7.31h0a14.82,14.82,0,0,1,12.74,7.31c2.3,4,2.4,8.7,2.34,15.72Zm30.08,24.14s0,.36,0,4.85c0,14.64-9.64,17.9-15,17.9s-15.15-3.26-15.15-17.9c0-4.38,0-16.53,0-16.53s68.21,0,68.21,0c0-24.84-24-45.41-53.43-45.41s-53.31,20.13-53.31,45,23.86,44.95,53.31,44.95c24.43,0,45.07-13.94,51.38-32.84Z"/><path id="path1063" class="cls-2" d="M935.5,79c5.86,0,8.77,2,8.77,5.91a5.47,5.47,0,0,1-4.48,5.45l4.59,9.17h-5.56l-3.93-8.41h-2.44v8.41h-5V79Zm-.45-8a18.53,18.53,0,1,0,18.53,18.53A18.53,18.53,0,0,0,935.05,70.93Zm15,18.54a15,15,0,1,1-15-15A15,15,0,0,1,950,89.47Zm-17.58-1.41h2.44c2.86,0,4.24-.87,4.24-2.91s-1.48-3.06-4.48-3.06h-2.2Z"/></g></g></svg>