<svg xmlns="http://www.w3.org/2000/svg" viewBox="0 0 510.42 440.86"><defs><style>.cls-1{fill:#aaa;}</style></defs><title>logos</title><g id="play"><g id="playstation"><g id="g3"><path id="path7" class="cls-1" d="M257.85,58.57l-.25,223.07L197.83,262.2V0l76.3,20.17C323,33.3,352.84,58.81,352.36,103.52c-.49,52-24.54,72.9-71.43,59.29V60.26c0-12.39-23.08-13.12-23.08-1.69Z"/><path id="path9" class="cls-1" d="M170.38,218.94l-28.18,9.48c-18.23,6.32-33.77-8.5-17-14.58l13.6-4.86L87.53,192.7c-15.8,5.35-30.62,16.77-29.64,32.81,1,16.27,38.14,20.16,66.81,24.78,26.73,4.38,51,1.94,73.13-5.83V227.69l-27.45-8.75Zm87.71,62.7,52.24-18.23L257.6,246.65v33.77l.49,1.22Z"/><path id="path11" class="cls-1" d="M397.06,232.8l1-.25c22.84-8,32.56-19.19,30.13-29.64-3.88-17.49-31.82-27-74.83-30.13-30.86-2.19-61.23,4.61-90.86,14.82l-4.87,1.7,53.22,16.53,31.09-10.46c32.56-6.07,45.68,4.62,14.34,14.58L340.7,215.3l56.36,17.5ZM197.83,155.52l-23.56,8,23.56,7.29V155.52Z"/><path id="path13" class="cls-1" d="M310.33,263.42l86.73-30.62L340.7,215.3l-83.1,28.43v2.92l52.73,16.77Zm-112.5-53.71-27.45,9.23,27.45,8.75v-18Zm59.77,14.34V189.3l53.21,16.53L257.6,224.05ZM138.79,209l59-21.14v-17l-23.56-7.29L88.74,192.46a10.65,10.65,0,0,1-1.21.24L138.79,209Z"/></g><path class="cls-1" d="M217.1,371c-.55,0-8.23-.71-9.29-.82-5.1-.52-7.24-5.85-7.24-9.23v-2.58c0-3.33,1.09-10.18,9.43-10.18h17.39v-7.94H207.5c-14.49,0-19.29,11.92-19.29,18.23v4.37c0,5.18,3.58,16.43,15.82,17.83,1.37.16,4.54.38,6.12.52,5.89.47,8.44,4.91,8.44,9.64,0,1.34,0,3.14,0,3.88,0,8.87-5.74,10.8-9,10.8H191v7.83h23.48c10.64,0,17-8.8,17-19.35v-4.56C231.51,380.73,225.94,371.75,217.1,371Z"/><path class="cls-1" d="M253.88,348.37h-13V398c0,6.09,4.45,15.4,14.83,15.4h8.63v-7.82h-5.79c-2.46,0-4.68-1.71-4.68-5.84V365.63h13.91v-7.94H253.88Z"/><path class="cls-1" d="M78.83,384.21c0,5.45,0,2.81,0,12.24,0,11.91,8,16.91,13.77,16.91h13v-7.84H97.27c-2.38,0-5.47-.3-5.47-7.3V382.76c0-16.19,5.45-17.14,9.17-17.14h10.39V413.4l12.87,0V357.69H102.17C93.81,357.69,78.83,359.25,78.83,384.21Z"/><rect class="cls-1" x="56.52" y="340.25" width="12.84" height="73.1"/><path class="cls-1" d="M273,384.21c0,5.45,0,2.81,0,12.24,0,11.91,8,16.91,13.77,16.91h13v-7.84h-8.31c-2.38,0-5.46-.3-5.46-7.3V382.76c0-16.19,5.44-17.14,9.16-17.14h10.39V413.4l12.87,0V357.69H296.33C288,357.69,273,359.25,273,384.21Z"/><polygon class="cls-1" points="157.22 394.28 144.79 357.69 131.22 357.69 150.03 412.92 139.45 440.5 150.65 440.5 183.65 357.7 171.4 357.7 157.22 394.28"/><path class="cls-1" d="M31.68,340.25H0v73.09H12.88V348.21H28.06c4.44,0,7.58,5.38,7.58,14.81,0,9.13-2.8,15.12-7.71,15.12H18.55V386H31.88c5.51,0,16.63-5.06,16.63-22.65C48.51,344.81,37.92,340.25,31.68,340.25Z"/><path class="cls-1" d="M463.93,357.69H441v55.67h13.06V365.61h10.57c8.05,0,8.82,9.16,8.82,17.52v30.23h12.92V383C486.37,367.76,480,357.69,463.93,357.69Z"/><path class="cls-1" d="M408.94,357.7c-22.53,0-23.67,18.05-23.67,24.5v7.18c0,9.42,3.36,24,24,24,18.76,0,23.37-13.21,23.37-24.42v-6.7C432.62,379,432.61,357.7,408.94,357.7ZM419.59,388c0,10.92-1.92,17.55-10.56,17.55-7.32,0-10.82-3.95-10.82-17.67v-4.74c0-9.32,1.2-17.55,10.74-17.55s10.64,7.86,10.64,17.58Z"/><path class="cls-1" d="M342,348.37H329V398c0,6.09,4.44,15.4,14.83,15.4h8.63v-7.82h-5.79c-2.46,0-4.68-1.71-4.68-5.84V365.63h13.91v-7.94H342v-9.32Z"/><rect class="cls-1" x="363.78" y="357.69" width="12.88" height="55.67"/><rect class="cls-1" x="363.78" y="340.25" width="12.88" height="10.93"/><path class="cls-1" d="M501.26,398.77a7.28,7.28,0,1,0,7.28,7.28A7.27,7.27,0,0,0,501.26,398.77Zm0,13.55a6.28,6.28,0,1,1,6.28-6.27A6.27,6.27,0,0,1,501.26,412.32Z"/><path class="cls-1" d="M504.55,409.29a3,3,0,0,1-.08-.67l0-1.06a1.8,1.8,0,0,0-.27-1,1.58,1.58,0,0,0-.7-.5,2.09,2.09,0,0,0,.83-.72,2.2,2.2,0,0,0,.29-1.17,1.89,1.89,0,0,0-1.09-1.87,3.69,3.69,0,0,0-1.47-.26h-3.59V410h1.07v-3.39h2.37a2.15,2.15,0,0,1,.93.14,1.11,1.11,0,0,1,.56,1l.07,1.32a4.51,4.51,0,0,0,.05.62,1,1,0,0,0,.09.26h1.31v-.17A.65.65,0,0,1,504.55,409.29Zm-1.47-3.92a2,2,0,0,1-1.16.31h-2.41V403h2.55a2,2,0,0,1,.85.16,1.18,1.18,0,0,1,.6,1.16A1.27,1.27,0,0,1,503.08,405.37Z"/></g></g></svg>