<svg xmlns="http://www.w3.org/2000/svg" viewBox="0 0 557.28 440.86"><defs><style>.cls-1{fill:#fff}</style></defs><g id="play"><path id="_4" data-name="4" class="cls-1" d="M526.36 411.59H544c5 0 6.36 2.67 6.41 7.17s-.74 7.41-6 7.25c-5.8-.16-11.63 0-17.28 0-1.9 12.57-1.9 12.57-17.66 12.41-9.08 0-9.08 0-10.81-12.21h-8q-56.34 0-112.7-.13c-5.42 0-12.49 1.61-14.7-5.17-2.38-7.34 4.64-10 9.46-12.94 44-27 88.25-53.64 132-80.87 13.77-8.56 22-1.77 21.78 13.06-.39 20.9-.11 41.8-.11 62.69zm-27.21-63.86L396.54 411h102.61z"/><path class="cls-1" d="M209.25 437.66c-12 0-24-.11-36 0-5.2.09-7.59-2-7.63-7.34s2.31-7.51 7.51-7.47q29.06.11 58.12 0c14 0 18.49-4.48 18.62-18.72.13-15.7 0-31.38 0-47.06.15-20.81 11.15-32.33 31.88-32.71 22.54-.43 45.21-.1 67.83-.19 4.88 0 7.06 1.87 7.15 6.94s-1.74 7.79-7.08 7.77q-27.75-.13-55.36 0c-13.31 0-17.89 4.49-18 17.85-.15 15.92 0 31.84 0 47.75-.13 21-11.27 32.49-32.41 32.95-11.54.3-23.07 0-34.61 0zM79.53 324.34c21 0 42-.45 63 .13 23.26.64 36 18.55 29.88 40.86-3.67 13.32-14.64 21-31.22 21.09-28.62.21-57.24 0-85.86 0h-5.55c-8.81.37-13.87 4.74-14.37 13.55-.56 9.9-.44 19.84-.37 29.76 0 5.47-2 8-7.77 7.91C6 437.31 8.68 440 8.49 419.45c0-6-.2-12 .17-18 1.21-19.22 12-29.49 31.1-29.49 27.92-.14 55.85 0 83.77 0h6.25c14.38-.26 21.89-11.15 15.84-24.28-1.74-3.62-6.65-6.82-10.74-8-4.93-1.44-10.53-.57-15.82-.57Q68.16 339 17.24 339c-3.92 0-8.08.42-8.79-5.29-.88-6.94 1-9.38 8.07-9.4h63z"/><path id="logo" d="M455.21 211.55c-7 8.82-24.14 15.12-24.14 15.12l-127.49 45.79v-33.77l93.83-33.43c10.64-3.82 12.28-9.21 3.62-12s-24.28-2-34.93 1.8l-62.52 22V182l3.6-1.22a214.55 214.55 0 0 1 43.47-9.2c25.4-2.8 56.51.38 80.93 9.63 27.52 8.69 30.61 21.51 23.63 30.34zM315.71 154V67.67c0-10.15-1.87-19.48-11.38-22.13-7.33-2.33-11.81 4.46-11.81 14.57V276.4l-58.33-18.51V0c24.8 4.6 60.93 15.49 80.35 22 49.4 17 66.15 38.06 66.15 85.62 0 46.38-28.62 63.97-64.98 46.38zm-188.55 81.16c-28.25-8-32.95-24.53-20.08-34.08 11.9-8.82 32.14-15.46 32.14-15.46l83.64-29.74v33.91l-60.19 21.54c-10.63 3.81-12.27 9.21-3.63 12s24.3 2 35-1.8l28.87-10.47v30.33c-1.83.33-3.88.65-5.76 1a189.18 189.18 0 0 1-89.94-7.24z" style="fill-rule:evenodd;fill:#fff"/></g></svg>