<svg xmlns="http://www.w3.org/2000/svg" viewBox="0 0 672.01 440.86"><defs><style>.cls-2{fill:#fff}</style></defs><g id="play"><path id="logo" d="M511.88 211.55c-7 8.82-24.13 15.12-24.13 15.12l-127.5 45.79v-33.77l93.83-33.43c10.65-3.82 12.28-9.21 3.63-12s-24.28-2-34.94 1.8l-62.52 22V182l3.6-1.22a214.55 214.55 0 0 1 43.47-9.2c25.41-2.8 56.51.38 80.93 9.63 27.52 8.69 30.62 21.51 23.63 30.34zM372.39 154V67.67c0-10.15-1.87-19.48-11.39-22.13-7.29-2.33-11.81 4.44-11.81 14.57V276.4l-58.33-18.51V0c24.8 4.6 60.93 15.49 80.36 22 49.39 17 66.14 38.06 66.14 85.62 0 46.38-28.61 63.97-64.97 46.38zm-188.56 81.16c-28.25-8-33-24.53-20.08-34.08 11.9-8.82 32.14-15.46 32.14-15.46l83.64-29.74v33.91l-60.19 21.54c-10.63 3.81-12.26 9.21-3.62 12s24.29 2 34.94-1.8l28.87-10.47v30.33c-1.83.33-3.87.65-5.76 1a189.19 189.19 0 0 1-89.94-7.24z" style="fill-rule:evenodd;fill:#fff"/><g id="vita"><path class="cls-2" d="M672.4 435.28c-14.5 5.8-24 3.21-29.85-9.52-4.2-9.07-9.57-12.55-19.76-12-16.7.89-33.52.38-50.27-.16-6.3-.22-9.92 1.81-12.06 7.54a76.54 76.54 0 0 1-4.54 8.94c-4.37 8.31-8.34 9.47-18.13 4.76 1.11-2.42 2.1-4.92 3.35-7.26q23-43.26 45.92-86.52a65.34 65.34 0 0 1 3.41-5.75c9.34-13.69 22.49-13.53 30.34.91 16.79 30.83 33.13 62 49.58 93.08a38.09 38.09 0 0 1 2.01 5.98zm-44.17-35.83c-8-14.77-15.47-28.71-23.21-42.48-2.42-4.28-6.73-5.27-9.33-.72-8 13.93-15.3 28.22-23.3 43.2zM51 325.84c14 0 28-.42 41.91.11 18.35.7 28.56 11.73 28.83 30.12.27 18.13-9.07 29.36-27.2 30.54-17.81 1.14-35.73.63-53.61.81-13.92.13-17.73 3.92-17.88 18 0 8.11-.22 16.22 0 24.3.18 5.44-2.1 7.26-7.43 7.37-15.93.43-16 .61-15.87-15.55.09-8.63-.25-17.42 1.21-25.86 2.6-14.85 12.34-22.85 27.39-23.21 17-.4 34.07 0 51.12-.23 14.71-.29 20-5.57 19.1-18.14-.71-9.72-5.81-14.8-15.58-14.85-24.86-.11-49.73 0-74.59 0-4.33 0-8.6.38-8.76-6-.14-5.06 1.14-7.85 7-7.76 14.79.24 29.61 0 44.41 0zM390.75 327.12a75.22 75.22 0 0 1-3.21 8.22q-22.65 42.93-45.54 85.72a56.35 56.35 0 0 1-5.33 8.47c-8.59 10.88-20.51 10.88-27.2-1.3-17.57-31.7-34.31-63.86-51.38-95.85-2.43-4.57-.94-6.85 4.21-6.81h.84c12.07-2 19.64 1.9 25.24 13.92 10 21.46 22 41.95 33.46 62.71 1.5 2.74 4.35 4.72 6.58 7.06 2.45-2.38 5.68-4.32 7.25-7.26 12.3-22.52 24.29-45.21 36.37-67.84 5.17-9.86 6.33-10.34 18.71-7.04zM187.08 382c0 9.21.44 18.44 0 27.62-1 17.42-10.28 26.49-27.73 27-15.61.45-31.26.09-46.89.31-5 0-7.08-1.82-7-6.86s2-7 7-6.93c10.61.2 21.22 0 31.83 0 13.69 0 18.79-4.66 19.15-18.4.38-14.51 0-29 .13-43.53a95.37 95.37 0 0 1 .54-12.53c1.81-13.05 11.21-22.07 25-22.67 16.16-.68 32.37-.23 48.56-.43 4.64 0 6.53 1.81 6.55 6.47s-1.38 7.37-6.67 7.26c-10.89-.18-21.77 0-32.65 0-13.34 0-17.3 4-17.53 17.55-.17 8.36 0 16.74 0 25.12zM490.77 338.8H454.5c-4.9 0-7.93-1.08-8-6.92s3.1-6.82 7.94-6.82H550c4.48 0 8.19.11 8.25 6.45s-3.07 7.49-8.33 7.42c-11.68-.16-23.35 0-35.85 0-.14 3.63-.4 6.58-.4 9.54.09 26 0 52 .51 78 .18 8.2-2.61 11.41-10.63 10.21a16.17 16.17 0 0 0-4.17 0c-6.55.83-8.78-1.81-8.7-8.52.31-26.25.12-52.5.12-78.76zM407.64 381.26c0-15.33.29-30.65-.13-46-.18-7.11 1.81-10.61 9.45-9.54a17.45 17.45 0 0 0 5 0c7.38-1.11 9.63 2.06 9.56 9.34q-.48 46.38 0 92.77c0 6.68-1.81 10.1-8.91 9.07a23.86 23.86 0 0 0-5.85 0c-6.82.84-9.41-1.81-9.23-8.9.38-15.53.11-31.13.11-46.74z"/></g></g></svg>