<svg xmlns="http://www.w3.org/2000/svg" viewBox="0 0 585.63 440.86"><defs><style>.cls-1{fill:none;stroke:#aaa;stroke-miterlimit:10;stroke-width:20px;}.cls-2,.cls-3{fill:#aaa;}.cls-2{fill-rule:evenodd;}</style></defs><title>logos</title><g id="scd"><ellipse class="cls-1" cx="292.82" cy="222.65" rx="277.77" ry="208.2"/><path id="path33" class="cls-2" d="M200.2,105.08h-40a30.56,30.56,0,0,0-30.56,30.55,30.06,30.06,0,0,0,30.56,30.08h12.2v4.13H129.86v12H171a13.94,13.94,0,1,0,0-27.88l-10.65,0a18.16,18.16,0,1,1,0-36.31h39.91l0-12.49Z"/><path id="path35" class="cls-2" d="M200.2,133.58H158.57v4.1l12.49,0a30.24,30.24,0,1,1,0,60.48l-41.2-.08V186H171a18.1,18.1,0,1,0,0-36.19l-10.65,0a14,14,0,0,1,0-28h39.91l0,11.86Z"/><path id="path39" class="cls-2" d="M312.3,198.22a24.81,24.81,0,0,1-24.81-24.8V130a24.81,24.81,0,0,1,24.81-24.8h43.54v12.4H313.35c-7.2,0-13.58,6.65-13.58,13.84V172c0,7.19,6.37,14,13.58,14h30.1V149.54H320V137.36h35.85v58l25.53-79a20.1,20.1,0,0,1,38.11.52l26.52,81.36H395.8V186h32.64l-22.13-67.86C405,114.41,402.7,114,400.4,114s-4.64,1-5.89,4.4l-26,79.86Z"/><path id="path13" class="cls-2" d="M228.45,131.45a10,10,0,0,1,9.82-9.77h40.35v12.23h-37.9v3.44h29.87v12.4h-42.2l.06-18.3Z"/><path id="path29" class="cls-2" d="M236.83,105.2A24.8,24.8,0,0,0,212,130v43.41a24.81,24.81,0,0,0,24.81,24.8h41.8V186H237.87c-7.19,0-13.57-6.81-13.57-14V131.41c0-7.19,6.38-13.84,13.57-13.84h40.76V105.18h-41.8v0Z"/><path id="path31" class="cls-2" d="M316,169.84V133.91h39.86V121.68h-42.1a10,10,0,0,0-9.82,9.77L303.87,172a9.79,9.79,0,0,0,9.87,9.82h25.68l-.07-28.18H320v12.12h7.14v4.1H316Z"/><path id="path37" class="cls-2" d="M402.41,119.59c-.49-1.17-.67-1.45-2-1.45s-1.67.7-2.18,1.86l-25.39,78.21h13.36l14.36-43.35,4.73,14.64H395.8v12.34h27l-20.37-62.26Z"/><path id="path11" class="cls-2" d="M228.39,172a9.8,9.8,0,0,0,9.88,9.82h40.35V169.5h-37.9v-3.44h29.87V153.83H228.45L228.39,172Z"/><path class="cls-3" d="M295.73,267.42c3.25,12,6.49,24,9.93,36.68,4.51-.56,9.18-.83,13.71-1.76,14.09-2.91,28-6.51,41-12.95a56.19,56.19,0,0,0,17.86-13.28c5.23-6,4.33-13-1.83-17.36-8.11-5.79-17.69-7.51-27.24-9.11-18.28-3.07-36.73-2.15-55.13-2.28a33.5,33.5,0,0,1-3.44-.38c0-.34,0-.68,0-1,2.34-.43,4.66-1,7-1.26,8.38-.83,16.8-1.29,25.14-2.35,20.83-2.65,41.75-2.49,62.64-2.07,13.49.27,26.95,1.82,39.73,6.67a35,35,0,0,1,7.86,4.2c6.05,4.35,6.73,11,1.21,16.26A70.19,70.19,0,0,1,420.24,278c-13.6,7.57-28.2,12.85-43.06,17.47a486.49,486.49,0,0,1-57.29,13.7c-8,1.46-16,2.83-24.08,4-.69.1-2.32-1.44-2.32-2.22.07-8.71.42-17.41.6-26.12.1-4.63,0-9.25.05-13.87,0-1.17.19-2.34.28-3.51Z"/><path class="cls-3" d="M276.43,316.06c-3.79.85-7.55,1.89-11.38,2.51-9.87,1.6-19.75,3.21-29.68,4.45-6.88.85-13.84,1.11-20.76,1.6-4,.28-7.94.79-11.89.68-7.31-.22-14.65-.49-21.9-1.33a218.53,218.53,0,0,1-23.74-4,36.06,36.06,0,0,1-16.66-8.68c-6.4-5.91-5.46-13.37-.06-19.41,7.71-8.62,17.85-13.49,28.15-17.8,22-9.21,45.29-14.26,68.62-18.84,9.21-1.8,18.51-3.09,27.79-4.51a23,23,0,0,1,4.6.2l.12,1.08c-1.88.45-3.76.93-5.65,1.34-16.64,3.6-33.13,7.84-48.25,15.81a85.88,85.88,0,0,0-17.47,12.49c-8.62,7.83-6.81,18.41,3.25,24.37a63,63,0,0,0,27.1,8.3c9.9.87,19.84,1.31,29.77,1.48,4.79.09,9.59-.88,14.39-1.31a27.29,27.29,0,0,1,3.49.13C276.32,315.12,276.38,315.59,276.43,316.06Z"/></g></svg>