<svg xmlns="http://www.w3.org/2000/svg" viewBox="0 0 453.58 440.86"><defs><style>.cls-1{fill:#aaa;}</style></defs><title>logos</title><g id="sgamegear"><g id="g3"><path id="path5" class="cls-1" d="M82.11,293.89C73.34,305.79,65,308,60.52,310.52a28.53,28.53,0,0,1-14.23,3.74q-21.15,0-33-13.75c-7.91-9.2-11.87-22.1-11.87-38.82q0-29.67,15-50.39t39.85-20.68q18.82,0,30.87,10.62t12,33.23H74.88q0-10.83-4.77-15.22c-3.18-2.88-7.73-4.34-13.71-4.34-9.76,0-17.28,4.77-22.66,14.27s-8,20.38-8,32.55c0,8.29,1.77,15.09,5.2,20.33S39.59,290,46.51,290c7.22,0,12.81-2.06,16.85-6.15a36.54,36.54,0,0,0,8.86-15.69H49.61l3.65-22H97.37l-3.74,21.32S90.83,282,82.11,293.89Z"/><path id="path7" class="cls-1" d="M185.58,420.45c-8.72,11.91-17.11,14.15-21.53,16.64a28.82,28.82,0,0,1-14.28,3.74q-21.15,0-33-13.8t-11.83-38.78q0-29.67,15-50.38t39.81-20.73c12.59,0,22.87,3.53,30.91,10.62s12,18.14,12,33.24H178.36q0-10.85-4.77-15.18c-3.14-2.92-7.74-4.39-13.71-4.39q-14.58,0-22.62,14.32t-8,32.5c0,8.34,1.72,15.13,5.21,20.38s8.68,7.87,15.6,7.87c7.18,0,12.81-2,16.81-6.11a37.47,37.47,0,0,0,8.9-15.73H153.08l3.7-22h44.11L197.15,394s-2.8,14.53-11.57,26.48Z"/><polygon id="polygon9" class="cls-1" points="291.81 193.68 272.08 311.38 250.84 311.38 267.57 220.16 230.68 311.38 213.27 311.38 205.23 220.2 192.55 311.38 171.05 311.38 190.7 193.68 220.84 193.68 227.59 276.56 261.46 193.46 291.81 193.68"/><polygon id="polygon11" class="cls-1" points="314.3 239.24 348.99 239.24 345.38 262.07 310.69 262.07 306.22 287.14 345.38 287.14 341.51 311.38 279.78 311.38 299.3 193.54 360.3 193.54 356.56 217.96 318.17 217.96 314.3 239.24"/><path id="path13" class="cls-1" d="M129.4,193.46,81.93,311.38h23.13l8.47-23H143.8l2,23h22.4L154.76,193.46Zm-8.52,74.8,17.2-46.9,4,46.9Z"/><polygon id="polygon15" class="cls-1" points="230.94 365.81 265.59 365.81 262.02 388.59 227.33 388.59 222.81 413.66 262.02 413.66 258.15 437.95 196.42 437.95 215.94 320.07 276.94 320.07 273.2 344.48 234.81 344.48 230.94 365.81"/><path id="path17" class="cls-1" d="M307.64,320,260.17,438h23.18l8.42-23h30.31l2,23h22.35L333,320Zm-8.48,74.77,17.16-46.91,4,46.91Z"/><path id="path19" class="cls-1" d="M382.27,371.87l5.16-29h12.38c4.56,0,7.95.82,10.23,2.46s3.39,5,3.39,10c0,5.59-1.84,9.71-5.5,12.47s-8.38,4.12-14.06,4.12Zm-14-51.8L348.78,438h22.57L378.92,393h10.44L406.82,438H432.7l-19.35-49.74a46.1,46.1,0,0,0,16.59-15.14,37.07,37.07,0,0,0,6.32-21.53c0-11.14-2.49-19.13-7.52-24.08s-12.08-7.39-21.19-7.39Z"/></g><path id="path21" class="cls-1" d="M63.28,53.82c36.11-41.4,79.61-63.58,97.2-49.65S163,63,126.82,104.38,47.2,168,29.66,154,27.16,95.18,63.28,53.82Z"/><path id="path23" class="cls-1" d="M206.82,54c37.1-41.09,81.77-63.19,99.83-49.31s2.53,58.47-34.57,99.57-81.77,63.24-99.78,49.35S169.72,95.1,206.82,54Z"/><path id="path25" class="cls-1" d="M346.24,54c37.1-41.09,81.81-63.19,99.83-49.31s2.53,58.47-34.53,99.57-81.81,63.24-99.82,49.35S309.18,95.1,346.24,54Z"/></g></svg>