<svg xmlns="http://www.w3.org/2000/svg" viewBox="0 0 585.63 440.86"><defs><style>.cls-1{fill:#aaa;fill-rule:evenodd;}.cls-2{fill:none;stroke:#aaa;stroke-miterlimit:10;stroke-width:20px;}</style></defs><title>logos</title><g id="sgenesis"><g id="genesis"><polygon id="polygon15" class="cls-1" points="384.53 244.45 436.67 244.45 436.67 265.2 418.06 277.79 360.5 277.79 379.57 265.02 413.26 265.02 413.26 257.22 361.12 257.22 361.12 236.91 380.37 223.88 380.37 223.88 437.83 223.88 418.85 236.64 384.53 236.64 384.53 244.45"/><polygon id="polygon17" class="cls-1" points="443.83 223.88 443.83 223.88 467.24 223.88 467.24 277.79 443.83 277.79 443.83 223.88"/><polygon id="polygon19" class="cls-1" points="496.18 244.45 548.32 244.45 548.32 265.2 529.7 277.79 472.15 277.79 491.22 265.02 524.91 265.02 524.91 257.22 472.77 257.22 472.77 236.91 492.01 223.88 492.01 223.88 549.48 223.88 530.5 236.64 496.18 236.64 496.18 244.45"/><polygon id="polygon21" class="cls-1" points="305.19 265.02 305.19 257.22 327.62 257.22 346.69 244.45 305.19 244.45 305.19 236.64 338.97 236.64 357.95 223.88 302.18 223.88 281.78 236.38 281.78 236.38 281.78 277.79 338.54 277.79 357.69 265.02 305.19 265.02"/><polygon id="polygon23" class="cls-1" points="140.04 265.02 140.04 257.22 162.48 257.22 181.54 244.45 140.04 244.45 140.04 236.64 173.83 236.64 192.8 223.88 137.03 223.88 116.64 236.38 116.64 236.38 116.64 277.79 173.38 277.79 192.54 265.02 140.04 265.02"/><polygon id="polygon25" class="cls-1" points="249.65 259.88 220.57 241.79 220.57 277.79 197.16 277.79 197.16 223.88 220.92 223.88 249.65 239.66 249.65 223.88 249.65 223.88 273.06 223.88 273.06 277.79 249.65 277.79 249.65 259.88"/><polygon id="polygon27" class="cls-1" points="60.65 236.64 60.65 265.02 89.73 265.02 89.73 257.22 65.97 257.22 84.95 244.45 113.15 244.45 113.15 265.73 95.23 277.79 37.24 277.79 37.24 237 37.24 237 56.66 223.88 120.15 223.88 101.26 236.64 60.65 236.64"/></g><g id="sega-2" data-name="sega"><path id="path33" class="cls-1" d="M203.69,103H163.64a30.55,30.55,0,0,0-30.56,30.54,30.07,30.07,0,0,0,30.56,30.09h12.2v4.13H133.35v11.95h41.1a13.94,13.94,0,1,0,0-27.87l-10.65,0a18.16,18.16,0,0,1,0-36.31h39.91l0-12.49Z"/><path id="path35" class="cls-1" d="M203.69,131.48H162.06v4.1l12.49,0a30.25,30.25,0,1,1,0,60.49l-41.2-.09V183.84h41.1a18.1,18.1,0,1,0,0-36.19l-10.65,0a14,14,0,0,1,0-28h39.91l0,11.86Z"/><path id="path39" class="cls-1" d="M315.78,196.11a24.8,24.8,0,0,1-24.8-24.8V127.9a24.81,24.81,0,0,1,24.8-24.8h43.54v12.4H316.83c-7.2,0-13.58,6.64-13.58,13.83V169.9c0,7.19,6.37,14,13.58,14h30.1V147.44h-23.4V135.26h35.84v58l25.54-79a20.1,20.1,0,0,1,38.11.52l26.51,81.36H399.28V183.89h32.65L409.79,116c-1.29-3.73-3.6-4.17-5.91-4.17s-4.63,1-5.89,4.4l-26,79.86H315.78Z"/><path id="path13" class="cls-1" d="M231.93,129.35a10,10,0,0,1,9.82-9.77h40.36v12.23h-37.9v3.44h29.86v12.4h-42.2l.06-18.3Z"/><path id="path29" class="cls-1" d="M240.31,103.09a24.82,24.82,0,0,0-24.81,24.8v43.42a24.81,24.81,0,0,0,24.81,24.79h41.81V183.88H241.35c-7.19,0-13.57-6.82-13.57-14V129.31c0-7.19,6.38-13.84,13.57-13.84h40.77V103.08H240.31Z"/><path id="path31" class="cls-1" d="M319.46,167.74V131.81h39.86V119.58h-42.1a10,10,0,0,0-9.82,9.77l0,40.51a9.8,9.8,0,0,0,9.87,9.83H342.9l-.06-28.18H323.52v12.12h7.14v4.1h-11.2Z"/><path id="path37" class="cls-1" d="M405.89,117.48c-.49-1.16-.67-1.44-2-1.44s-1.66.7-2.18,1.86l-25.38,78.2,13.36,0L404,152.77l4.73,14.64h-9.48v12.34h27l-20.37-62.27Z"/><path id="path11" class="cls-1" d="M231.87,169.86a9.8,9.8,0,0,0,9.88,9.83h40.36V167.4h-37.9V164h29.86V151.73H231.93l-.06,18.13Z"/></g><ellipse class="cls-2" cx="291.31" cy="220.53" rx="277.77" ry="208.2"/></g></svg>