<svg id="sgenesis" xmlns="http://www.w3.org/2000/svg" viewBox="0 0 871.95 440.86"><defs><style>.cls-1{fill:#aaa;fill-rule:evenodd;}</style></defs><title>sgenesis</title><g id="genesis"><polygon id="polygon15" class="cls-1" points="582.54 383.31 670.93 383.31 670.93 418.49 639.37 439.83 541.8 439.83 574.12 418.18 631.24 418.18 631.24 404.96 542.85 404.96 542.85 370.52 575.48 348.43 575.48 348.43 672.89 348.43 640.72 370.07 582.54 370.07 582.54 383.31"/><polygon id="polygon17" class="cls-1" points="683.27 348.43 683.27 348.43 722.95 348.43 722.95 439.83 683.27 439.83 683.27 348.43"/><polygon id="polygon19" class="cls-1" points="777.97 383.31 866.37 383.31 866.37 418.49 834.79 439.83 737.23 439.83 769.55 418.18 826.68 418.18 826.68 404.96 738.29 404.96 738.29 370.52 770.9 348.43 770.9 348.43 868.32 348.43 836.15 370.07 777.97 370.07 777.97 383.31"/><polygon id="polygon21" class="cls-1" points="456.87 418.18 456.87 404.96 494.89 404.96 527.21 383.31 456.87 383.31 456.87 370.07 514.13 370.07 546.31 348.43 451.75 348.43 417.18 369.63 417.18 369.63 417.18 439.83 513.39 439.83 545.86 418.18 456.87 418.18"/><polygon id="polygon23" class="cls-1" points="179.05 418.18 179.05 404.96 217.09 404.96 249.41 383.31 179.05 383.31 179.05 370.07 236.33 370.07 268.5 348.43 173.94 348.43 139.37 369.63 139.37 369.63 139.37 439.83 235.58 439.83 268.05 418.18 179.05 418.18"/><polygon id="polygon25" class="cls-1" points="366.36 409.47 317.06 378.8 317.06 439.83 277.37 439.83 277.37 348.43 317.65 348.43 366.36 375.19 366.36 348.43 366.36 348.43 406.06 348.43 406.06 439.83 366.36 439.83 366.36 409.47"/><polygon id="polygon27" class="cls-1" points="40.15 370.07 40.15 418.18 89.45 418.18 89.45 404.96 49.17 404.96 81.34 383.31 129.15 383.31 129.15 419.39 98.77 439.83 0.46 439.83 0.46 370.69 0.46 370.69 33.38 348.43 141.02 348.43 109 370.07 40.15 370.07"/></g><g id="sega"><path id="path33" class="cls-1" d="M194.55,12H84.19A84.19,84.19,0,0,0,0,96.14c0,46.51,37.71,83.29,84.19,82.9h33.63V190.4H.74v32.95H114a38.4,38.4,0,1,0,0-76.8l-29.35-.12a50,50,0,1,1,0-100h110L194.55,12Z"/><path id="path35" class="cls-1" d="M194.55,90.5H79.85v11.3l34.41.06c46.51,0,84.2,36.79,84.2,83.28s-37.69,83.38-84.2,83.38L.74,268.29V234.78H114a49.86,49.86,0,1,0,0-99.71L84.66,135a38.57,38.57,0,1,1,0-77.13h110l-.07,32.67Z"/><path id="path39" class="cls-1" d="M503.41,268.59a68.36,68.36,0,0,1-68.35-68.33V80.64a68.36,68.36,0,0,1,68.35-68.33h120V46.46H506.3c-19.84,0-37.41,18.32-37.41,38.13V196.36c0,19.81,17.55,38.59,37.41,38.59h82.95V134.47h-64.5V100.92h98.77v159.8L693.88,43a55.39,55.39,0,0,1,105,1.43L872,268.61H733.49V234.92h89.94l-61-187c-3.55-10.28-9.93-11.5-16.28-11.5-6.62,0-12.77,2.73-16.23,12.12L658.34,268.61H503.41v0Z"/><path id="path13" class="cls-1" d="M272.37,84.64c0-14,12.06-27,27.07-26.93H410.63V91.4H306.21v9.5h82.27v34.15H272.21l.16-50.41Z"/><path id="path29" class="cls-1" d="M295.47,12.29a68.36,68.36,0,0,0-68.36,68.33V200.24a68.36,68.36,0,0,0,68.36,68.33H410.65V234.88H298.33c-19.81,0-37.39-18.78-37.39-38.59V84.52c0-19.81,17.58-38.12,37.39-38.12H410.65V12.24H295.47v0Z"/><path id="path31" class="cls-1" d="M513.55,190.4v-99H623.38V57.71h-116c-15-.07-27.07,12.93-27.07,26.93l-.14,111.63a27,27,0,0,0,27.21,27.06h70.75L578,145.69H524.73v33.4H544.4v11.29H513.55v0Z"/><path id="path37" class="cls-1" d="M751.7,51.94c-1.36-3.21-1.84-4-5.54-4s-4.59,1.91-6,5.12L670.21,268.57l36.81,0,39.56-119.45,13,40.34H733.48v34h74.34L751.7,51.94Z"/><path id="path11" class="cls-1" d="M272.21,196.27a27,27,0,0,0,27.23,27.06H410.63V189.48H306.2V180h82.28v-33.7H272.37l-.16,50Z"/></g></svg>