<svg xmlns="http://www.w3.org/2000/svg" viewBox="0 0 585.63 440.86"><defs><style>.cls-1,.cls-3{fill:#aaa;}.cls-1{fill-rule:evenodd;}.cls-2{fill:none;stroke:#aaa;stroke-miterlimit:10;stroke-width:20px;}</style></defs><title>logos</title><g id="smaster"><g id="sega"><path id="path33" class="cls-1" d="M203.69,103H163.64a30.55,30.55,0,0,0-30.56,30.54,30.07,30.07,0,0,0,30.56,30.09h12.2v4.13H133.35v11.95h41.1a13.94,13.94,0,1,0,0-27.87l-10.65,0a18.16,18.16,0,0,1,0-36.31h39.91l0-12.49Z"/><path id="path35" class="cls-1" d="M203.69,131.48H162.06v4.1l12.49,0a30.25,30.25,0,1,1,0,60.49l-41.2-.09V183.84h41.1a18.1,18.1,0,1,0,0-36.19l-10.65,0a14,14,0,0,1,0-28h39.91l0,11.86Z"/><path id="path39" class="cls-1" d="M315.78,196.11a24.8,24.8,0,0,1-24.8-24.8V127.9a24.81,24.81,0,0,1,24.8-24.8h43.54v12.4H316.83c-7.2,0-13.58,6.64-13.58,13.83V169.9c0,7.19,6.37,14,13.58,14h30.1V147.44h-23.4V135.26h35.84v58l25.54-79a20.1,20.1,0,0,1,38.11.52l26.51,81.36H399.28V183.89h32.65L409.79,116c-1.29-3.73-3.6-4.17-5.91-4.17s-4.63,1-5.89,4.4l-26,79.86H315.78Z"/><path id="path13" class="cls-1" d="M231.93,129.35a10,10,0,0,1,9.82-9.77h40.36v12.23h-37.9v3.44h29.86v12.4h-42.2l.06-18.3Z"/><path id="path29" class="cls-1" d="M240.31,103.09a24.82,24.82,0,0,0-24.81,24.8v43.42a24.81,24.81,0,0,0,24.81,24.79h41.81V183.88H241.35c-7.19,0-13.57-6.82-13.57-14V129.31c0-7.19,6.38-13.84,13.57-13.84h40.77V103.08H240.31Z"/><path id="path31" class="cls-1" d="M319.46,167.74V131.81h39.86V119.58h-42.1a10,10,0,0,0-9.82,9.77l0,40.51a9.8,9.8,0,0,0,9.87,9.83H342.9l-.06-28.18H323.52v12.12h7.14v4.1h-11.2Z"/><path id="path37" class="cls-1" d="M405.89,117.48c-.49-1.16-.67-1.44-2-1.44s-1.66.7-2.18,1.86l-25.38,78.2,13.36,0L404,152.77l4.73,14.64h-9.48v12.34h27l-20.37-62.27Z"/><path id="path11" class="cls-1" d="M231.87,169.86a9.8,9.8,0,0,0,9.88,9.83h40.36V167.4h-37.9V164h29.86V151.73H231.93l-.06,18.13Z"/></g><ellipse class="cls-2" cx="291.31" cy="220.53" rx="277.77" ry="208.2"/><g id="master"><g id="layer1"><g id="g6708"><g id="flowRoot6696"><path id="path6717" class="cls-3" d="M125,281.3H96.18V278c1,0,2.38-.14,4-.32a10.16,10.16,0,0,0,3.37-.79,5.91,5.91,0,0,0,2.09-2,5.51,5.51,0,0,0,.66-2.83V224.73h-.68L83.41,280.24H81.12L60,223.58h-.6v38.89a39.28,39.28,0,0,0,.71,8.59,8,8,0,0,0,2.19,4.22,10.52,10.52,0,0,0,4.17,1.84,25.47,25.47,0,0,0,4.14.92v3.26H44.25V278a37,37,0,0,0,4.34-.69,8.41,8.41,0,0,0,3.51-1.52,6.72,6.72,0,0,0,2.2-3.95,45.63,45.63,0,0,0,.6-8.9V229.64a13.67,13.67,0,0,0-.69-4.73,7.45,7.45,0,0,0-2-3,9.1,9.1,0,0,0-3.49-1.84,17.42,17.42,0,0,0-4.09-.69v-3.26H66.88L85.53,265l15.93-40.87a40.28,40.28,0,0,0,1.49-4.7,22.72,22.72,0,0,0,.67-3.29h21.25v3.26a22.91,22.91,0,0,0-3.28.42,21.44,21.44,0,0,0-2.91.68,3.39,3.39,0,0,0-2.12,1.84,7.17,7.17,0,0,0-.55,2.8v47a6.11,6.11,0,0,0,.55,2.71,4.7,4.7,0,0,0,2.12,1.93,10.53,10.53,0,0,0,2.93.85A24.64,24.64,0,0,0,125,278Z"/><path id="path6719" class="cls-3" d="M165.72,280.47c-1.44.52-2.7.94-3.79,1.26a13.12,13.12,0,0,1-3.7.48,9,9,0,0,1-5.71-1.67,7.68,7.68,0,0,1-2.73-4.89h-.28a22.43,22.43,0,0,1-6.41,5.05,18,18,0,0,1-8.24,1.74,11.67,11.67,0,0,1-8.38-3.12,10.74,10.74,0,0,1-3.28-8.17,13.85,13.85,0,0,1,.73-4.68,11.17,11.17,0,0,1,2.21-3.72,10.85,10.85,0,0,1,3-2.46,26.33,26.33,0,0,1,3.53-1.72c1.38-.52,4.18-1.49,8.38-2.89a62.42,62.42,0,0,0,8.52-3.31v-4.55a18.76,18.76,0,0,0-.25-2.29,9.72,9.72,0,0,0-1.08-3.22,9.19,9.19,0,0,0-2.59-3,7.81,7.81,0,0,0-4.76-1.26,10.75,10.75,0,0,0-3.92.71,7.22,7.22,0,0,0-2.55,1.49,12,12,0,0,0,.44,2.71,14.13,14.13,0,0,1,.43,3.31,4,4,0,0,1-1.44,2.94,5.72,5.72,0,0,1-4,1.33,3.76,3.76,0,0,1-3.38-1.63,6.42,6.42,0,0,1,.42-7.69,14.71,14.71,0,0,1,3.88-3.45,21.34,21.34,0,0,1,5-2.18,19.85,19.85,0,0,1,5.74-.89,37,37,0,0,1,6.73.53,12.37,12.37,0,0,1,5.21,2.27,10.59,10.59,0,0,1,3.56,4.61,19.76,19.76,0,0,1,1.21,7.51q0,6.57-.13,11.64c-.1,3.38-.14,7.08-.14,11.09a5.58,5.58,0,0,0,.62,2.85,5.07,5.07,0,0,0,1.9,1.79,4.75,4.75,0,0,0,2.18.46c1,0,2,0,3.06,0Zm-16-24.24q-3.9,1.14-6.84,2.25a27.38,27.38,0,0,0-5.46,2.75,12.4,12.4,0,0,0-3.63,3.7,9.35,9.35,0,0,0-1.33,5.07c0,2.54.66,4.41,2,5.6a7.27,7.27,0,0,0,5.07,1.79,10.4,10.4,0,0,0,5.74-1.58,16.76,16.76,0,0,0,4.18-3.74Z"/><path id="path6721" class="cls-3" d="M190.35,259.12a11.57,11.57,0,0,1,2.9,3.81,12.46,12.46,0,0,1,1,5.28,12.89,12.89,0,0,1-4.71,10.29q-4.71,4-12.19,4a18.32,18.32,0,0,1-7.28-1.42,19.9,19.9,0,0,1-4.75-2.62l-.92,3H161l-.46-15.74h3.17a17.11,17.11,0,0,0,1.56,4.17,19.88,19.88,0,0,0,2.89,4.32,15.84,15.84,0,0,0,4.29,3.4,11.47,11.47,0,0,0,5.63,1.37q4.41,0,6.79-2a7,7,0,0,0,2.39-5.72,6.88,6.88,0,0,0-.76-3.33,7.23,7.23,0,0,0-2.22-2.45,17.41,17.41,0,0,0-3.72-1.91c-1.47-.57-3.11-1.12-4.92-1.68a43.41,43.41,0,0,1-4.79-1.76,19.29,19.29,0,0,1-4.53-2.64,12.92,12.92,0,0,1-3.3-4A11.25,11.25,0,0,1,161.7,248a12.39,12.39,0,0,1,4.13-9.41q4.14-3.87,11.07-3.86a22.54,22.54,0,0,1,5.44.69,18.94,18.94,0,0,1,4.52,1.65l1.06-2.39h3.3l.69,14.56h-3.16a14.55,14.55,0,0,0-4.16-7.92,10.82,10.82,0,0,0-7.78-3.06,8.7,8.7,0,0,0-5.93,1.89,5.83,5.83,0,0,0-2.15,4.54,7.41,7.41,0,0,0,.71,3.45,6.39,6.39,0,0,0,2.13,2.34,18.37,18.37,0,0,0,3.47,1.72c1.39.53,3.11,1.14,5.17,1.81a46.47,46.47,0,0,1,5.71,2.25A18.81,18.81,0,0,1,190.35,259.12Z"/><path id="path6723" class="cls-3" d="M219.26,279.32q-3,1.24-5.65,2.09a21.58,21.58,0,0,1-6.52.85q-5.7,0-8-2.87t-2.32-8.1V240.62h-8.17v-4.41h8.35v-14.1h8.36v14.1h13v4.41h-12.9v25.29a44.74,44.74,0,0,0,.21,4.76,8.9,8.9,0,0,0,1,3.33,4.78,4.78,0,0,0,2.21,2,9.39,9.39,0,0,0,4,.69c.76,0,1.89-.07,3.37-.21a15.22,15.22,0,0,0,3.15-.53Z"/><path id="path6725" class="cls-3" d="M254.27,270.64a23.25,23.25,0,0,1-7.62,8.64,19.23,19.23,0,0,1-11,3.21,22.25,22.25,0,0,1-9.57-1.93,18.71,18.71,0,0,1-6.77-5.23,22.18,22.18,0,0,1-4-7.72,32.25,32.25,0,0,1-1.31-9.32,27.25,27.25,0,0,1,1.4-8.65,24.36,24.36,0,0,1,4.11-7.65,19.88,19.88,0,0,1,6.49-5.25,18.64,18.64,0,0,1,8.7-2,21,21,0,0,1,8.5,1.56,15.05,15.05,0,0,1,5.74,4.27,16.8,16.8,0,0,1,3.14,6.06,26.56,26.56,0,0,1,1,7.58v3h-30a35.85,35.85,0,0,0,.85,8.08,19.52,19.52,0,0,0,2.69,6.38,12.63,12.63,0,0,0,4.68,4.2,14.45,14.45,0,0,0,6.89,1.54,12.78,12.78,0,0,0,7.05-1.91q3-1.9,5.71-6.86Zm-10.15-17.26a37.76,37.76,0,0,0-.43-5.51,16.86,16.86,0,0,0-1.41-4.91,9.26,9.26,0,0,0-2.89-3.45,7.9,7.9,0,0,0-4.73-1.33,9.83,9.83,0,0,0-8,4q-3.19,4-3.47,11.18Z"/><path id="path6727" class="cls-3" d="M284.51,241.86a7.64,7.64,0,0,1-1.15,4.15,3.9,3.9,0,0,1-3.54,1.81,5.35,5.35,0,0,1-3.92-1.33,4,4,0,0,1-1.36-2.94,10.22,10.22,0,0,1,.16-1.83c.11-.55.21-1.1.3-1.66a10.21,10.21,0,0,0-5.05,1.75,14.84,14.84,0,0,0-4.91,5v26.35a4.86,4.86,0,0,0,.62,2.62,3.76,3.76,0,0,0,1.95,1.52,12.37,12.37,0,0,0,3,.68q1.81.24,3.15.33v3H249.84v-3l2.18-.19a8.49,8.49,0,0,0,1.95-.36,3.34,3.34,0,0,0,1.91-1.45,5.22,5.22,0,0,0,.62-2.69v-28a6.43,6.43,0,0,0-.67-2.8,5.48,5.48,0,0,0-1.86-2.2,6.25,6.25,0,0,0-2.06-.81,18.1,18.1,0,0,0-2.58-.34v-3l15.06-1,.65.65v6.38h.23a20.62,20.62,0,0,1,6.33-5.65,13.39,13.39,0,0,1,6.39-1.93,6.26,6.26,0,0,1,4.7,1.88,7,7,0,0,1,1.82,5.06Z"/><path id="path6729" class="cls-3" d="M333.41,251.41a15.32,15.32,0,0,1,3,5,18.63,18.63,0,0,1,1,6.36A18.13,18.13,0,0,1,331.07,277a23.2,23.2,0,0,1-15.85,5.6,29.09,29.09,0,0,1-8.72-1.36A33.25,33.25,0,0,1,299,278l-2,3.35h-3.68L292.68,259h3.72a48.34,48.34,0,0,0,2.69,7.46,26,26,0,0,0,4.06,6.22,18.3,18.3,0,0,0,5.58,4.32,16.3,16.3,0,0,0,7.41,1.6,16.83,16.83,0,0,0,5.54-.82,9.7,9.7,0,0,0,3.83-2.34,9.52,9.52,0,0,0,2.18-3.56,14.18,14.18,0,0,0,.71-4.71,13.06,13.06,0,0,0-2.2-7.28,13.62,13.62,0,0,0-6.57-5.12q-3-1.19-6.84-2.64t-6.66-2.73a21.61,21.61,0,0,1-8.56-6.5q-3.06-4-3.05-10.49a16,16,0,0,1,1.51-6.93,18,18,0,0,1,4.32-5.74,19.46,19.46,0,0,1,6.29-3.74,21.31,21.31,0,0,1,7.57-1.36,22.15,22.15,0,0,1,8.06,1.38,38.57,38.57,0,0,1,6.5,3.21l1.88-3.12h3.68l.36,21.63H331q-1-3.72-2.27-7.12a25.46,25.46,0,0,0-3.28-6.15,15.18,15.18,0,0,0-4.82-4.25,14.26,14.26,0,0,0-7-1.58,10.64,10.64,0,0,0-7.44,2.8,8.92,8.92,0,0,0-3.08,6.84,11.75,11.75,0,0,0,2,7,14.4,14.4,0,0,0,5.74,4.57,71.07,71.07,0,0,0,6.59,2.78q3.22,1.17,6.26,2.5a47.3,47.3,0,0,1,5.31,2.71,19.93,19.93,0,0,1,4.43,3.54Z"/><path id="path6731" class="cls-3" d="M331.18,296.08a5.48,5.48,0,0,1,1.26-3.74,4,4,0,0,1,3.15-1.45,5.45,5.45,0,0,1,2.52.55,7.14,7.14,0,0,1,1.89,1.43,11.63,11.63,0,0,1,1.47,1.88c.52.8.93,1.45,1.24,2q2.3-1.23,5.48-6.47a52.4,52.4,0,0,0,4.62-9.18q-4.37-10.89-7.9-19.47t-7.39-17.77a6.55,6.55,0,0,0-2.94-3.28,12.39,12.39,0,0,0-4.13-1.5v-3h20.66v3.22a14.81,14.81,0,0,0-3.31.57c-1.28.35-1.93.76-1.93,1.22a3.51,3.51,0,0,0,.21.92c.14.43.3.87.48,1.33q1.76,4.54,5.33,13.11t5.56,13.7q2.06-4.9,4.29-10.17t5-12.42c.21-.58.52-1.38.92-2.41a7.44,7.44,0,0,0,.6-2.64c0-.79-.7-1.54-2.09-2.22a12.63,12.63,0,0,0-4-1.27V236H379v2.85a11.26,11.26,0,0,0-3.63,1.58,8.31,8.31,0,0,0-3.35,3.84q-5.46,12.68-9.71,23.09t-6.45,15.34a83.42,83.42,0,0,1-5.17,10,29.37,29.37,0,0,1-4.43,5.67,13,13,0,0,1-3.83,2.6,9.89,9.89,0,0,1-3.56.66,8.52,8.52,0,0,1-5.63-1.7,5,5,0,0,1-2-3.9Z"/><path id="path6733" class="cls-3" d="M401,259.12a11.57,11.57,0,0,1,2.9,3.81,12.46,12.46,0,0,1,1,5.28,12.89,12.89,0,0,1-4.71,10.29q-4.71,4-12.19,4a18.32,18.32,0,0,1-7.28-1.42,19.9,19.9,0,0,1-4.75-2.62l-.92,3h-3.44l-.46-15.74h3.17a17.11,17.11,0,0,0,1.56,4.17,19.88,19.88,0,0,0,2.89,4.32,15.84,15.84,0,0,0,4.29,3.4,11.47,11.47,0,0,0,5.63,1.37q4.41,0,6.79-2a7,7,0,0,0,2.39-5.72,6.88,6.88,0,0,0-.76-3.33,7.23,7.23,0,0,0-2.22-2.45,17.41,17.41,0,0,0-3.72-1.91c-1.47-.57-3.11-1.12-4.92-1.68a44.17,44.17,0,0,1-4.79-1.76,19.29,19.29,0,0,1-4.53-2.64,12.92,12.92,0,0,1-3.3-4,11.25,11.25,0,0,1-1.29-5.51,12.39,12.39,0,0,1,4.13-9.41q4.14-3.87,11.07-3.86a22.47,22.47,0,0,1,5.44.69,18.94,18.94,0,0,1,4.52,1.65l1.06-2.39h3.31l.68,14.56h-3.16a14.55,14.55,0,0,0-4.16-7.92,10.82,10.82,0,0,0-7.78-3.06,8.7,8.7,0,0,0-5.93,1.89,5.83,5.83,0,0,0-2.15,4.54,7.41,7.41,0,0,0,.71,3.45,6.39,6.39,0,0,0,2.13,2.34,18.37,18.37,0,0,0,3.47,1.72c1.39.53,3.11,1.14,5.17,1.81a46.47,46.47,0,0,1,5.71,2.25,18.81,18.81,0,0,1,4.43,2.85Z"/><path id="path6735" class="cls-3" d="M430,279.32q-3,1.24-5.65,2.09a21.58,21.58,0,0,1-6.52.85q-5.7,0-8-2.87t-2.32-8.1V240.62h-8.17v-4.41h8.35v-14.1H416v14.1h13v4.41h-12.9v25.29a44.74,44.74,0,0,0,.21,4.76,8.72,8.72,0,0,0,1,3.33,4.71,4.71,0,0,0,2.2,2,9.39,9.39,0,0,0,3.95.69c.76,0,1.89-.07,3.37-.21A15.22,15.22,0,0,0,430,276Z"/><path id="path6737" class="cls-3" d="M465,270.64a23.25,23.25,0,0,1-7.62,8.64,19.23,19.23,0,0,1-11,3.21,22.25,22.25,0,0,1-9.57-1.93,18.71,18.71,0,0,1-6.77-5.23,22.18,22.18,0,0,1-4-7.72,32.25,32.25,0,0,1-1.31-9.32,27.25,27.25,0,0,1,1.4-8.65,24.36,24.36,0,0,1,4.11-7.65,19.88,19.88,0,0,1,6.49-5.25,18.66,18.66,0,0,1,8.71-2,21,21,0,0,1,8.49,1.56,15.05,15.05,0,0,1,5.74,4.27,16.8,16.8,0,0,1,3.14,6.06,26.56,26.56,0,0,1,1,7.58v3h-30a35.85,35.85,0,0,0,.85,8.08,19.52,19.52,0,0,0,2.69,6.38,12.63,12.63,0,0,0,4.68,4.2,14.45,14.45,0,0,0,6.89,1.54,12.75,12.75,0,0,0,7-1.91q3-1.9,5.72-6.86Zm-10.15-17.26a37.76,37.76,0,0,0-.43-5.51A16.87,16.87,0,0,0,453,243a9.38,9.38,0,0,0-2.9-3.45,7.9,7.9,0,0,0-4.73-1.33,9.83,9.83,0,0,0-8,4q-3.19,4-3.47,11.18Z"/><path id="path6739" class="cls-3" d="M538.08,281.3H516v-3l2.13-.19a8.43,8.43,0,0,0,1.91-.36,3.32,3.32,0,0,0,1.9-1.45,5.22,5.22,0,0,0,.62-2.69V250.21q0-4.77-2.18-7.37a6.82,6.82,0,0,0-5.44-2.59,12.66,12.66,0,0,0-4.22.69,13.18,13.18,0,0,0-3.63,1.93,11.56,11.56,0,0,0-2.23,2.18,18.74,18.74,0,0,0-1.35,1.95v26.12a5.5,5.5,0,0,0,.55,2.64,3.54,3.54,0,0,0,1.88,1.59,16.05,16.05,0,0,0,1.91.62,14.06,14.06,0,0,0,2.22.3v3H488.45v-3l2-.19a8.17,8.17,0,0,0,1.81-.36,3.31,3.31,0,0,0,1.91-1.45,5.22,5.22,0,0,0,.62-2.69V250.21q0-4.77-2.18-7.37a6.83,6.83,0,0,0-5.44-2.59A12.52,12.52,0,0,0,483,241a13.82,13.82,0,0,0-3.63,1.95,10.94,10.94,0,0,0-2.24,2.27c-.62.85-1.08,1.48-1.38,1.91V273a5,5,0,0,0,.64,2.62,4.08,4.08,0,0,0,1.93,1.61,9.58,9.58,0,0,0,2,.68,15.76,15.76,0,0,0,2.25.33v3h-22v-3l2.18-.19a8.49,8.49,0,0,0,2-.36,3.34,3.34,0,0,0,1.91-1.45,5.22,5.22,0,0,0,.62-2.69V245.44a5.18,5.18,0,0,0-.67-2.64,6,6,0,0,0-1.86-2,7.72,7.72,0,0,0-2.16-.9,13.55,13.55,0,0,0-2.66-.43v-3l15.15-1,.65.65v6.47H476c.76-.77,1.7-1.67,2.8-2.71a25.23,25.23,0,0,1,3.07-2.52,14.57,14.57,0,0,1,4-1.84,17.83,17.83,0,0,1,5.21-.74,12.29,12.29,0,0,1,7.58,2.37,13.51,13.51,0,0,1,4.55,5.72c1.1-1.08,2.07-2,2.91-2.83a24.1,24.1,0,0,1,3.33-2.59,15,15,0,0,1,4.11-1.93,17.69,17.69,0,0,1,5.26-.74,11.57,11.57,0,0,1,9.09,3.77q3.35,3.76,3.35,11.57v23a5.5,5.5,0,0,0,.55,2.64,3.62,3.62,0,0,0,1.88,1.59,13.34,13.34,0,0,0,2.09.62,20,20,0,0,0,2.32.3Z"/></g></g></g></g></g></svg>