<svg xmlns="http://www.w3.org/2000/svg" viewBox="0 0 950.35 440.86"><defs><style>.cls-1{fill:#aaa;}</style></defs><title>snes</title><g id="snes"><path class="cls-1" d="M113.22,0C89.55,0,66.54,19.46,62.32,43.57v1.3l-.44.43v1.29l-.43.86v.87l-.43.86v1.29l-.43.87v1.29l-.43,1.3-.43,1.29-.43,2.59-.87,3-.43,3-.86,3-.43,3.45-.87,3.45L55,77.65l-.86,3.45-1.3,7.34L52,92.32l-.86,3.45-.43,3.45-.87,3.46-.86,3.45-.43,3.45-.43,3-.86,2.59-.44,3v1.29l-.43.86v2.16l-.43,1.29v1.73l-.43.86v.87c-.44,10.54,1,24.94,4.31,27.61C54,178.1,131.41,285.61,129.18,302S118,366.7,118,366.7C115.16,383,104.05,396,87.77,396S60.38,383,63.18,366.7l14.67-80.24H20L.62,397.76c-4,22.6,11.35,40.55,34.09,40.55H117.1c22.83,0,44.57-17.95,48.75-40.55,0,0,21.23-104,21.14-111.3s-2.15-8.2-2.15-8.2c0-8.46-68.9-122.18-75.93-126.4-3-1.78-5.52-13-5.61-19.85s9.06-52.2,9.06-52.2c2.8-16.28,18.23-29.34,34.51-29.34S170,63.53,167.15,79.81l-12.51,72.05h58.24L233.15,43.57C237.74,19.46,222.31,0,198.64,0Z"/><polygon class="cls-1" points="319.42 0 236.16 438.31 299.57 438.31 350.91 184.21 371.19 438.31 426.41 438.31 509.67 0 446.25 0 403.11 229.08 374.64 0 319.42 0"/><polygon class="cls-1" points="598.15 0 511.86 438.31 636.11 438.31 644.74 383.95 583.48 383.95 608.93 235.98 670.19 235.98 678.82 190.25 617.56 190.25 644.31 54.36 705.57 54.36 714.2 0 598.15 0"/><path class="cls-1" d="M829.61,0c-23.67,0-46.68,19.46-50.9,43.57v1.3l-.43.43v1.29l-.44.86v.87l-.43.86v1.29l-.43.87v1.29l-.43,1.3-.43,1.29-.43,2.59-.87,3-.43,3-.86,3-.43,3.45-.86,3.45-.87,3.88-.86,3.45-1.29,7.34-.87,3.88-.86,3.45-.43,3.45-.86,3.46-.87,3.45-.43,3.45-.43,3-.86,2.59-.43,3v1.29l-.44.86v2.16l-.43,1.29v1.73l-.43.86v.87c-.44,10.54,1,24.94,4.32,27.61,4.18,23.22,81.6,130.73,79.38,147.11s-11.22,64.71-11.22,64.71C831.56,383,820.44,396,804.16,396s-27.39-13-24.59-29.33l14.67-80.24H736.43L717,397.76c-4,22.6,11.34,40.55,34.08,40.55h82.4c22.82,0,44.56-17.95,48.74-40.55,0,0,21.23-104,21.14-111.3s-2.15-8.2-2.15-8.2c0-8.46-68.9-122.18-75.93-126.4-3-1.78-5.52-13-5.61-19.85s9.06-52.2,9.06-52.2c2.8-16.28,18.23-29.34,34.51-29.34s23.08,13.06,20.28,29.34L871,151.86h58.24L949.54,43.57C954.13,19.46,938.7,0,915,0Z"/></g></svg>