<svg xmlns="http://www.w3.org/2000/svg" viewBox="0 0 585.63 440.86"><defs><style>.a,.b,.c{fill:#aaa;}.a{fill-rule:evenodd;}.c{stroke:#aaa;stroke-linecap:round;stroke-linejoin:round;stroke-width:4.32px;}</style></defs><title>segasaturn</title><path class="a" d="M205.93,60.81c-7.91,3.84-15.36,7.83-22.23,11.93-15.28,9.13-27.79,18.67-36.12,29.93s-12,26.87-5.08,39.92c5.89,11.1,18.49,14.86,29.79,15S196,155.06,210,151.12c27.92-7.9,61.6-21.67,94.78-34.94s65.92-26,89.8-31.77c11.93-2.86,21.72-3.74,26.8-3a9.45,9.45,0,0,1,4,1.22c.27.21.14-.17.37.8,1.18,4.9.62,8-2.44,12.77S414,106.8,404.46,112.85q-4.65,3-10.25,6c-1.62,15.55-8.3,29.54-10.54,34.05a261.87,261.87,0,0,0,34.73-18.1c11.39-7.24,20.56-15,26.71-24.53A42.75,42.75,0,0,0,451,77.34,27.91,27.91,0,0,0,441,61.93a33.86,33.86,0,0,0-16-6.24c-11.12-1.6-23.05.22-36.56,3.47-27,6.48-60.1,19.59-93.38,32.9s-66.69,26.85-92.19,34.06c-12.76,3.61-23.61,5.52-30.4,5.45s-7.06-1.14-7.07-1.14c-1.94-3.67-1.84-5.75,3-12.31,4.66-6.29,14.18-14.31,27-22.13,3.28-19.14,5.73-25.59,10.48-35.18Z"/><path class="b" d="M295,6.27c-1.13,0-2.25.1-3.38.17,6.65,6.08,12.76,11.61,15.24,14.19,4.75,4.93,23.41,22,29.36,28.18,4,4.08,16.09,15.85,21.7,21.13,4.89,4.59,3.21,1,9.59,7.28,10.42,10.33,18.19,19,27.59,28.11q0-4.31-.43-8.6c-3.94-7.38-12.23-12.09-18.11-17.08-3.67-3.11-6.91-4.56-9.56-7.33-1.7-1.79-7.78-7.76-8.82-9.15-.92-1.21-33.92-34.34-55.72-56.6q-3.72-.29-7.46-.3Zm-10.65.6q-5,.54-9.89,1.56c9.09,8.46,19.27,17.48,22.66,21,4.75,4.93,23.58,20.83,29.52,27,4,4.09,13.71,13.32,19.32,18.59,4.89,4.6,5.43,4.65,11.81,11,12.43,12.32,21.13,23.22,33.29,34.43.91.84,1.8,1.69,2.69,2.54a99.91,99.91,0,0,0,1.2-10.63C385.11,103.79,373.8,94,364,85.68c-3.66-3.11-6.9-4.56-9.55-7.33-1.71-1.79-7.78-7.76-8.83-9.15S305.45,28.57,284.34,6.87Zm29.58,1.29c7.86,7.77,30.9,29.66,36.29,35.28,4,4.08,18,17.05,23.58,22.32,4.9,4.6-.15-.89,6.23,5.43,4.56,4.52,8.56,8.67,12.46,12.72-.72-3.12-1.58-6.2-2.6-9.24-.52-.42-1-.83-1.52-1.25-3.67-3.11-6.91-4.56-9.56-7.34-1.7-1.79,0-.91-1.06-2.3-.8-1.06-29.42-29.44-52.68-52.77a102.18,102.18,0,0,0-11.14-2.85ZM268.31,10c-2.71.76-5.39,1.63-8,2.61,9.9,9.41,22.92,20.86,26.85,25,4.75,4.93,23.57,20.83,29.52,27,4,4.08,11.62,10.76,17.23,16,4.89,4.59,3.45,5.34,9.84,11.66,12.43,12.32,25.19,25.08,37.34,36.29,3.2,2.95,6.26,6,9,8.81a99.69,99.69,0,0,0,2.64-9.76c-11.26-10-26.25-23.15-38.88-33.87-3.66-3.11-5.43-6-8.08-8.82-1.7-1.79-9.09-6-10.14-7.34s-48-47.73-67.34-67.6ZM255,14.69A99.08,99.08,0,0,0,246,19.13C256,29,271.72,42,276.18,46.69c4.75,4.92,24,21.87,30,28.07,4,4.08,5.71,4.38,11.32,9.66,4.89,4.59,9.72,8.82,16.1,15.14,12.43,12.32,24.84,28,37,39.18a140,140,0,0,1,13.09,14.12,97,97,0,0,0,4.85-10.69c-11.73-10.67-30.77-27.84-45.44-40.3-3.66-3.11-4.61-6-7.26-8.81-1.7-1.79-12-6.58-13.08-8S271,31.83,255,14.69Zm88.06,4c8,7.74,16.11,15.52,19,18.54s10.92,9.86,17.4,15.56A100.1,100.1,0,0,0,343,18.66ZM242.25,21.44q-3.75,2.31-7.27,5l0,0c10,9.88,22.39,20.63,26.92,25.36,4.75,4.93,26,21.87,31.95,28.07,4,4.09,4.08,3.81,9.69,9.08,4.9,4.6,11.34,9.4,17.73,15.73,12.43,12.31,24.84,28,37,39.18,8.85,8.16,16.4,15.8,19.42,18.89q2.16-3.21,4.08-6.58c-13.92-13.34-46.85-45-61.79-60.7-1.71-1.79-10.06-4.73-11.1-6.12-1.21-1.59-53.91-54.21-66.64-67.9Zm-10.14,7.14q-3.53,2.87-6.78,6a5.9,5.9,0,0,0,2,4.93c9.75,9.07,23.77,20.63,28.31,25.36,4.74,4.93,26,21.87,31.95,28.07,4,4.09,4.08,3.81,9.69,9.08,14.42,13.55,37.37,37.21,54,54.67,7.36,7.72,14.11,13.85,17.67,17q3.32-3.65,6.27-7.61c-3.13-2.72-55.82-48.57-74.33-68-1.7-1.79-9.94-8.55-11-9.94S247.7,45.05,232.11,28.58Zm-9.91,9.15a96.48,96.48,0,0,0-6.39,7.47c9.63,9,25.84,23.5,30.69,28.56s16.15,13.88,22.1,20.08c4,4.08,11.48,11.64,17.09,16.91,14.42,13.55,37.69,38,54.35,55.5,9.19,9.63,15.62,16.21,17.59,18.21a99.1,99.1,0,0,0,8.52-7.61c-6-5.67-60.25-57.35-78.3-76.26-1.7-1.79-3.71-.68-4.75-2.07-1.23-1.64-50-48.92-60.9-60.79ZM214,47.7a100.77,100.77,0,0,0-5.79,9C217,64.2,236,82,241,87.31c4.23,4.41,6.76,6.47,10.09,9.94,1.32,1.38,4.81,4.71,8.06,8,4,4.08,1.4.62,7,5.89,22.28,20.95,75.49,73.55,82,80a100.33,100.33,0,0,0,8.36-5.86c-7-6.67-60-57.15-77.87-75.85-1.71-1.79-9.51-4.85-10.56-6.24-1.18-1.58-41.86-42.32-54.1-55.5ZM207.3,58.27a100.25,100.25,0,0,0-5.71,12c8,7.06,28.18,26.57,34.11,31.33a70.94,70.94,0,0,1,9.39,8.72c2.89,4.08,9,6.8,11.13,8.78,22.32,21,73.29,72.64,79.35,78.79a101.5,101.5,0,0,0,10.79-5.65C338,184.74,277.31,130,259.53,111.4c-1.71-1.79-13.46-13.33-14.5-14.72-1.23-1.63-28.15-27.85-37.73-38.41ZM201,71.94a101.77,101.77,0,0,0-3.37,11.34c7.05,6.24,28.66,28.88,35,33.63,6.08,4.59,1.64,2,5,5.5,1.32,1.37-4.2-8.45-1-5.11,4,4.08,9.6,10.68,15.21,16,21.82,20.51,64.58,62.37,71.51,69.16q4.56-1.36,9-3.15c-8-7.59-68.27-65.16-86.11-83.85-1.71-1.79-5.6-1.91-5.65-3.65C240.56,110.51,210,82,201,71.94Zm-3.72,12.89a99.48,99.48,0,0,0,83.44,120.63C262.21,188,231,158.33,218.49,144.53c-1.66-1.83-10.7,2.08-10.75.34-.34-11.64-2.27-17-1.51-16.91.59,0,2.8,3.3,8.66,9.36,9.9,10.22,49.35,48.94,69.39,68.57a101,101,0,0,0,10.71.69q3.6,0,7.2-.36c-14.94-14.48-52.83-51.32-68.12-67.35-1.71-1.79-18.82-11.21-18.87-12.94s-17.58-19.66-17.74-21c2.7,1.29,13.11,11.55,20.37,17,6.09,4.59,9.53,6.32,12.87,9.79,1.32,1.38,2.87,2.81,6.13,6.14,4,4.08,9.13,10,14.86,15.15,18.95,17,44.14,42.12,54.8,52.82a98.73,98.73,0,0,0,13.22-2.5c-10-9.34-68.78-64.18-86.27-82.51-1.71-1.79-5.83-.77-5.88-2.51,0-1.27-21-23-29.69-32.86-.21-.23-.37-.43-.55-.64Z"/><path class="a" d="M236.14,171.77c-34.43,5.62-55.61,4.64-55.61,4.64a13,13,0,1,0-1.15,26s29.6,1.27,75.14-7.59C250.73,188.49,242.94,181,236.14,171.77Z"/><path class="a" d="M381.23,15.51a339.32,339.32,0,0,0-38.48,2.93c12.55,7.19,16.72,13.68,26.75,23.42,25.61-1.52,41.43.81,41.43.81A13,13,0,1,0,414.69,17s-12.62-1.83-33.46-1.46Z"/><path class="c" d="M188.6,242.3a8.69,8.69,0,0,0-5.24-4c-39.09-11.29-64.33-9.46-75.62,4.86-4,4.59-6.33,9.08-7.16,14a21,21,0,0,0,1.84,13.49h-.18a34.35,34.35,0,0,0,7.15,9h.37a48.17,48.17,0,0,0,8.35,5.23c1.93,1.1,7.16,1.83,15.15,1.92,1.83.37,4.58.37,9.08.37,4,.37,7.16.37,9.45.37h0c7.16.37,14.32.82,16.62,1.47,2.29.82,6.33,4.86,6.69,6.88h0c.65,1.1.83,1.47.65,4.22-.37,2.94-1.47,2.3-2.57,3.76v-.36a23,23,0,0,1-6.33,2.93,78,78,0,0,1-15.51,1.84,108.24,108.24,0,0,1-18.08-.64,145.08,145.08,0,0,1-15.15-2.94,7.47,7.47,0,0,0-6.33.64,8,8,0,0,0-4.22,4.87c-.83,1.92-.64,4.22.64,6.7a8.67,8.67,0,0,0,5.23,4,85.78,85.78,0,0,0,18.45,3.77c6.88.64,13.86.82,20.74.82a116.34,116.34,0,0,0,19.27-2.29c7.53-1.84,12.76-4.59,15.15-8.35h.36a31,31,0,0,0,4.87-7.8v-.37a24.3,24.3,0,0,0,1.83-8.63v-.36c-.36-1.93,0-5.24-1.1-8.36-.37-1.46-.82-2.29-3.12-7.52-2.29-4.87-7.8-8-17-10.1h0a157.74,157.74,0,0,0-19.55-1.83,74.26,74.26,0,0,0-10.09-.37h-9a43.15,43.15,0,0,1-8.62-.64,12.28,12.28,0,0,1-4-2.57,19.8,19.8,0,0,1-2.94-3.4v-.36a3.67,3.67,0,0,1-.64-2.94,16.75,16.75,0,0,1,3.12-5.69c8.63-8.35,27.9-8.35,57.73.37a7.55,7.55,0,0,0,6.33-.83,6.71,6.71,0,0,0,4-5.23A6.43,6.43,0,0,0,188.6,242.3Z"/><path class="c" d="M273.21,235.14a9.41,9.41,0,0,0-6-2.29H209.61a9.41,9.41,0,0,0-6.05,2.29A8.07,8.07,0,0,0,201,241.2v71.22a8.41,8.41,0,0,0,2.57,6.06,8.07,8.07,0,0,0,6.05,2.57h57.55a8.41,8.41,0,0,0,6-2.57,8.72,8.72,0,0,0,2.3-6.06,7.89,7.89,0,0,0-8.35-8.35H218.24V285.53h35.88a8.42,8.42,0,0,0,6.06-2.57,8.7,8.7,0,0,0,2.3-6.06,7.9,7.9,0,0,0-8.36-8.35H218.24V249.83h48.92a8.41,8.41,0,0,0,6-2.57,8.1,8.1,0,0,0,2.3-6.06A7.6,7.6,0,0,0,273.21,235.14Z"/><path class="c" d="M372.24,245.24a8.54,8.54,0,0,0-3.4-5.69c-15.78-11.29-33-13.49-49.74-10.55-6.7,1.46-8.63,1.46-15.78,4.86s-12,10.1-12,10.1c-3.39,3.76-5.23,8.35-7.52,14.31s-2.3,9-2.57,16.43a54.92,54.92,0,0,0,2.93,20.74,41.71,41.71,0,0,0,9.82,17h0a38.63,38.63,0,0,0,15.79,11.29,51.25,51.25,0,0,0,20,4c17.25,0,29.64-4,37.35-11.57,9-8,12.76-19.91,11.29-35.88a11.36,11.36,0,0,0-2.57-6.06,8.47,8.47,0,0,0-5.69-2.29H332.78a8.38,8.38,0,0,0-6.06,2.57,8.75,8.75,0,0,0-2.57,6.7,9.26,9.26,0,0,0,2.57,6.7c1.83,1.83,3.76,2.93,6.06,2.93H361.5c-.64,4.59-2.29,8.63-5.23,11.57-5.51,4.86-14.32,7.15-26.06,7.15A35.89,35.89,0,0,1,316.35,307l-.37-.37a22.71,22.71,0,0,1-9.45-6.89,37.34,37.34,0,0,1-6.06-10.27,40,40,0,0,1-1.83-13.86,38.48,38.48,0,0,1,1.83-11.75,19.34,19.34,0,0,1,3.4-6.7,18.41,18.41,0,0,1,6.88-6.06c4.22-2.29,7.53-2.93,12.76-4.22h.36c12.76-3.12,24.78-.64,36.16,8a7.91,7.91,0,0,0,6.34,1.46,9.21,9.21,0,0,0,5.5-4C372.24,250.1,372.88,247.81,372.24,245.24Z"/><path class="c" d="M481,320.5a9.37,9.37,0,0,0,1.84-6.34c-9-59.47-25.24-88.84-48.92-87.37-23.58-1.47-39.92,26.71-48.55,84.44-.36,2.29.37,4.22,1.84,6.33a7.71,7.71,0,0,0,5.51,3.39,10.27,10.27,0,0,0,6.33-1.46,8.77,8.77,0,0,0,3.39-5.51c1.1-7.16,2.3-13.86,3.4-19.92h55.71c1.47,6.89,2.93,14.32,4,22.67a8.2,8.2,0,0,0,3.39,5.51,7.47,7.47,0,0,0,6.33,1.47A10.39,10.39,0,0,0,481,320.5Zm-71-43.69c6.33-21.2,14.32-32.3,23.77-32.76,9.08.82,17.25,11.74,23.31,32.76Z"/><path class="c" d="M92.6,349.86a8.67,8.67,0,0,0-5.23-4c-39.1-10.93-64.34-9.46-75.63,4.86-4,4.59-6.33,9.09-7.15,14a21,21,0,0,0,1.83,13.49H6.05a34.44,34.44,0,0,0,7.16,9h.37a48.17,48.17,0,0,0,8.35,5.23c1.93,1.1,7.16,1.83,15.14,1.93h9.09c4,.36,7.16.36,9.45.36H56c7.16,0,14.32.83,16.61,1.47,2.3.83,6.33,4.87,6.7,6.88h0a7.23,7.23,0,0,1,.64,4.23c-.36,2.93-1.46,2.29-2.57,3.76v-.18A22.74,22.74,0,0,1,71,413.83a77.77,77.77,0,0,1-15.51,1.84A109.35,109.35,0,0,1,37.44,415a144.85,144.85,0,0,1-15.14-2.94,7.47,7.47,0,0,0-6.33.64,7.08,7.08,0,0,0-4.23,4.86c-.82,1.93-.36,4.23.65,6.7a8.62,8.62,0,0,0,5.23,4,85.81,85.81,0,0,0,18.44,3.77c6.89.64,13.86.82,20.75.82a117.69,117.69,0,0,0,19.27-2.29c7.52-1.84,12.76-4.59,15.14-8.35h0a30.89,30.89,0,0,0,4.87-7.81v-.36a24.3,24.3,0,0,0,1.83-8.63v-.37c-.37-1.92,0-5.23-1.1-8.35-.37-1.47-.83-2.29-3.12-7.52-2.29-4.87-7.8-8-17-10.1h-.37a155.42,155.42,0,0,0-19.54-1.83c-2.3,0-5.69,0-10.1-.37a55.5,55.5,0,0,1-9-.37,43.19,43.19,0,0,1-8.63-.64,15.65,15.65,0,0,1-4.22-2.57,19.37,19.37,0,0,1-2.94-3.4h0a2.81,2.81,0,0,1-.37-2.93,13.07,13.07,0,0,1,3.12-5.69c8.63-8.36,27.9-8.36,57.73.36a7.69,7.69,0,0,0,6.33-.82A7.33,7.33,0,0,0,93,355.65C94.07,353.9,93.88,352,92.6,349.86Z"/><path class="c" d="M115.82,433.29a7.71,7.71,0,0,0,3.39-5.51c1.1-7.16,2.3-13.86,3.4-19.91h55.8c1.47,6.88,2.94,14.31,4,22.67a8.24,8.24,0,0,0,3.39,5.5,7.49,7.49,0,0,0,6.34,1.47,9.06,9.06,0,0,0,5.5-3.12,9.36,9.36,0,0,0,1.84-6.33c-9-59.47-25.24-88.84-48.92-87.37-23.59-1.47-39.55,26.7-48.55,84.43-.37,2.29.37,4.22,1.47,6.33a7.76,7.76,0,0,0,5.69,3.4A8.89,8.89,0,0,0,115.82,433.29Zm11.29-42.59c6.33-21.2,14.31-32.3,23.77-32.76,9.45.83,17.25,11.75,23.58,32.76Z"/><path class="c" d="M273.49,347.2a9.38,9.38,0,0,0-6.06-2.29H192.82a8.69,8.69,0,0,0-6.06,2.29,8.07,8.07,0,0,0-2.57,6.06,8.45,8.45,0,0,0,2.57,6.06,7.94,7.94,0,0,0,6.06,2.57h28.72v65.8a8.45,8.45,0,0,0,2.57,6.06,8.43,8.43,0,0,0,12.12,0,7.58,7.58,0,0,0,2.57-6.06v-65.8h28.63a8.43,8.43,0,0,0,6.06-2.57c1.83-1.47,2.29-3.77,2.29-6.06C276.06,351,275.05,349,273.49,347.2Z"/><path class="c" d="M374,345.55a8.07,8.07,0,0,0-6.05-2.57,8.42,8.42,0,0,0-6.06,2.57,7.54,7.54,0,0,0-2.57,6.06V394.1a23.21,23.21,0,0,1-1.84,9.09,22.07,22.07,0,0,1-5.23,7.8c-2.29,1.92-4.59,4-7.8,5.23a26.34,26.34,0,0,1-9.08,1.83H322.59a23.39,23.39,0,0,1-9.09-1.83,25,25,0,0,1-13-12.76h0a26.34,26.34,0,0,1-1.83-9.08V351.52a9.38,9.38,0,0,0-2.3-6.06,8,8,0,0,0-6.06-2.57,7.84,7.84,0,0,0-6,2.57,7.54,7.54,0,0,0-2.57,6.06V394a44.67,44.67,0,0,0,3.12,16.15h0a43,43,0,0,0,8.62,13.22,42.2,42.2,0,0,0,13.22,9,45.1,45.1,0,0,0,16.15,3.12h12.76a38.89,38.89,0,0,0,16.15-3.12h-.37c4.87-1.93,9.09-5.23,13.22-9a42.2,42.2,0,0,0,9-13.22v.37a45.1,45.1,0,0,0,3.12-16.15V351.52A8.18,8.18,0,0,0,374,345.55Z"/><path class="c" d="M385.36,345.55a7.82,7.82,0,0,0-2.29,5.69V425a8.41,8.41,0,0,0,2.57,6.06,8.8,8.8,0,0,0,6.7,2.57,8.31,8.31,0,0,0,6.33-2.57,7.89,7.89,0,0,0,2.94-6.06v-65.8c19.91-1.11,34.69,0,45.43,2.93,8,2.3,12,6.33,12.75,11.75.37,4.22-1.83,7.53-5.5,9.45-6.06,2.57-15.15,3.12-27.08,1.93a10.11,10.11,0,0,0-5.69,1.1,6.9,6.9,0,0,0-3.76,4.22,8,8,0,0,0-.37,5.51,8.61,8.61,0,0,0,3.4,4.22l45.61,31.3a8.24,8.24,0,0,0,6.7,1.46,8.78,8.78,0,0,0,6.06-3.39,9.17,9.17,0,0,0,1.83-6.33,10.36,10.36,0,0,0-3.76-5.69l-24.14-16.43a40.84,40.84,0,0,0,9.09-3.12c10.28-4.87,15.51-12.85,15.78-24.41.65-13.5-8-23-25.23-28.18-13.49-4.22-33.87-5.23-60.94-3.12A12.18,12.18,0,0,0,385.36,345.55Z"/><path class="c" d="M491.46,347a7.43,7.43,0,0,0-1.47,4.86V426a8.41,8.41,0,0,0,2.57,6.06,7.56,7.56,0,0,0,6.05,2.57,8.42,8.42,0,0,0,6.06-2.57A8.72,8.72,0,0,0,507,426v-53l56.9,58.83a13.87,13.87,0,0,0,4.59,2.57,8.7,8.7,0,0,0,8.9-3.49,6.86,6.86,0,0,0,1.47-4.58V351.79a8.45,8.45,0,0,0-2.57-6.06,9.16,9.16,0,0,0-12.12,0,8.1,8.1,0,0,0-2.57,6.06v52.77l-56.9-58.83a9.92,9.92,0,0,0-4.59-2.29,7.83,7.83,0,0,0-4.86.64C493.75,344.82,492.28,345.55,491.46,347Z"/></svg>