<svg xmlns="http://www.w3.org/2000/svg" viewBox="0 0 906.51 440.86"><defs><style>.cls-1{fill:#aaa;}</style></defs><title>wii</title><g id="Wii"><path class="cls-1" d="M739.43,438.36H651.05V150.62h88.38Z"/><path class="cls-1" d="M898.08,438.31H809.84V150.73h88.24Z"/><path class="cls-1" d="M853.69,104.67c-29.08-.23-51.6-23.21-51.4-52.45A51.32,51.32,0,0,1,854.64.74c28.73.26,52.22,24,51.87,52.43A52.35,52.35,0,0,1,853.69,104.67Z"/><path class="cls-1" d="M747.07,52.36a51.46,51.46,0,0,1-51.59,52.32A52,52,0,1,1,694.81.74,51.43,51.43,0,0,1,747.07,52.36Z"/><path class="cls-1" d="M160.05,318Q174,251.34,187.92,184.7c8.1-38.9,15.89-77.86,24.26-116.7C220.83,27.87,254.09.78,294,.7s73.47,26.83,82,67c17.14,80.63,33.77,161.38,50.65,242.07a12.68,12.68,0,0,0,4.92,8.13q9.54-46.07,19.07-92.13c14.68-71,29.56-142,43.75-213.08C496.23,3.35,499.61.31,508.86.5c25.75.51,51.51.18,79.29.18C581.54,33.39,575.38,64.31,569,95.19q-27.88,135.72-55.87,271.43c-9,43.88-40.65,71.88-82.25,72.39-41.27.51-74.27-27-83.68-70.58-8.71-40.29-16.71-80.73-25.1-121.08-8.78-42.23-17.66-84.44-29.24-126.78-7,33-14.06,66-20.93,99.06-10.31,49.59-20.35,99.24-30.74,148.82C232.25,411.21,200,438.7,159,439c-40.36.3-73.67-26.17-82.48-68.08C50.74,248.49,25.8,125.88,0,.67,23.83.67,46.45.44,69.07.73,96.26,1.07,90.38-3,95.78,22.86q29.84,142.92,59.21,286c.65,3.14,1.81,6.18,2.74,9.27Z"/></g></svg>