<svg xmlns="http://www.w3.org/2000/svg" viewBox="0 0 558.97 440.86"><defs><style>.cls-1,.cls-2{fill:#aaa;}.cls-2{isolation:isolate;font-size:153.17px;font-family:XBOX360, X360 by Redge;}</style></defs><title>logos</title><g id="xbox"><path id="logo-3" data-name="logo" class="cls-1" d="M266.27,276.27a137.89,137.89,0,0,1-61.45-21.74c-15.53-10.19-19-14.33-19-22.61,0-16.74,18.29-45.91,49.71-79.22,17.77-19,42.62-41.08,45.39-40.56,5.17,1.21,46.94,41.94,62.65,61.1,24.68,30.37,36.07,55.22,30.37,66.27-4.31,8.46-31.58,24.85-51.6,31.24A156.94,156.94,0,0,1,266.27,276.27ZM164.78,214.49c-12.94-19.85-19.5-39.36-22.61-67.49-1-9.32-.69-14.67,2.42-33.82,3.8-23.82,17.26-51.44,33.66-68.35,6.9-7.25,7.59-7.42,16.05-4.49,10.35,3.45,21.22,11,38.31,26.41l10,9-5.35,6.73c-25.2,30.9-51.78,74.74-61.79,101.83C170,199,167.89,213.79,170.13,220,171.51,224.15,170.13,222.6,164.78,214.49Zm226.44,3.45c1.21-6.22-.34-17.61-4.14-29.17-8.11-25-35.56-71.45-60.75-103l-7.94-10L327,67.78c11.22-10.18,19-16.39,27.27-21.57,6.55-4.14,16-7.77,20-7.77,2.41,0,11.39,9.15,18.46,19.16a141.37,141.37,0,0,1,23.13,53.68c2.59,12.6,2.93,39.52.35,52.12a169.08,169.08,0,0,1-10.36,32.79,193.55,193.55,0,0,1-14.15,24.34C390.36,222.6,390.36,222.6,391.22,217.94ZM268.51,33.78C257,27.92,239,21.53,229.16,19.8A82.19,82.19,0,0,0,216,19.11c-8.11.35-7.76,0,5.35-6.21A134.06,134.06,0,0,1,253.67,2.2c13.8-2.93,39.86-2.93,53.5,0,14.67,3.11,32.1,9.49,41.77,15.53l2.93,1.73-6.73-.35c-13.29-.69-32.45,4.66-53.16,14.67a78.42,78.42,0,0,1-12.08,5.35C279.38,39.31,274.38,36.72,268.51,33.78Z"/><text class="cls-2" transform="translate(-6.28 437.22)">SERIES</text></g></svg>