<svg xmlns="http://www.w3.org/2000/svg" viewBox="0 0 409.22 440.86"><defs><style>.a{fill:#fff;}.b,.c{fill:#aaa;}.c{fill-rule:evenodd;}</style></defs><title>atarijaguar</title><path class="a" d="M410.46,444.18H.13V232.7H410.46Zm-76.29-153.6v-55.8H59.49v55.8Zm-57.42,107c.22-4.82.16-9.68.74-14.45.78-6.43,2.77-12.78,2.95-19.2.33-11.41.2-22.79,2.58-34.06,1.08-5.1,1.26-10.38,1.82-15.35l-11.91-4.11c-2.16,3.25-3.74,6.71-6.27,9.21a159.82,159.82,0,0,0-19.85,23.86,51.54,51.54,0,0,1-12.19,12.84c-3.57,2.54-6.51,4.75-7.62,9.68l5-1.45-9,12.14-4.5-3.15c1.77-4.33,4-8.55,5.23-13,3.26-12.31,9.34-23.36,14.84-34.68.88-1.8-.48-9.09-1.86-10.07-2.92-2.09-8.83-1-10.94,2a64.54,64.54,0,0,0-10.07,20c-1.62,5.68-3,11.64-5.86,16.72-4.47,8-11.77,13.53-19.54,18.26-1,.61-2.55.31-3.84.43a14,14,0,0,1,.14-3.78c5.89-18.52,16.82-34.61,25.05-52,.4-.85.17-2.94-.1-3-2.42-.56-2-2.65-2.76-4.16-.64-1.26-3.12-3-3.48-2.75-2.8,2.06-6.13,4.08-7.7,7-3.45,6.4-5.69,13.44-8.92,20-6,12.13-10.58,24.6-10.22,38.32.08,2.87-1,7.3,3.61,8s9.19.21,12.88-3.57c3.27-3.35,6.93-6.31,9.76-8.85,0,4-1.22,8.92.28,12.75,2.38,6.07,8,2.07,13.28,1.7-2.91,4.71-5.22,8.91-8,12.78-2.06,2.86-1.71,5-.1,6.62,2.35-1.06,4.2-1.85,6-2.72s4-1.46,5.27-2.84a100.78,100.78,0,0,0,9.36-11.37c3.81-5.53,7.38-11.25,10.67-17.11,3.55-6.31,7.87-11.57,14.87-14.21,3.75-1.42,7.41-3.09,11.51-4.81.18,1.57.29,2.1.29,2.64,0,6.2-.39,12.41,0,18.59.2,3.24,1.67,6.4,2.56,9.6.45,1.61-1.07,3.7,1.84,4.83,1,.37,1.51,3.61,1.14,5.29C272.91,393.45,275.76,395,276.75,397.56Zm50.66-47.45c-7.79,1.64-8.28,2.21-5.51,6.76-1.5-.69-2.57-1.23-3.67-1.68-1.57-.62-3.57-2.31-4.4.52-.61,2.06-.59,4.21,2.29,5.44a41.36,41.36,0,0,1,9.71,5.57c4.84,3.88,9,8.59,13.9,12.41,14,11,28.26,21.59,42.33,32.46,7.83,6.05,15.51,12.31,23.25,18.47l1-1.18c-3.27-2.74-6.6-5.41-9.8-8.23-2.7-2.38-4.93-6.45-7.91-7-4.92-1-7.16-4.75-10.45-7.29-2.8-2.16-4.31-6-7.1-8.18-7.1-5.57-16.09-8.69-21.36-16.63-.07-.11-.25-.14-.35-.24l-24.2-22.08.8-.91,60.51,49.15,1.08-1.31c-9.61-8.3-19.25-16.57-28.82-24.91-9.3-8.12-18.54-16.31-27.81-24.47l1-1.12c5.45,3.68,12.44,5.05,16.23,11.26a10.1,10.1,0,0,0,2.37,2.38q20.26,16.53,40.59,33c2.19,1.77,4.56,3.31,6.85,5l.85-1a26.54,26.54,0,0,0-2.33-2.52c-3.48-3-7.08-5.8-10.53-8.8-4.92-4.3-9.68-8.79-14.64-13.05s-10.15-8-14.88-12.38c-4.16-3.84-7.76-8.28-11.69-12.37-3.65-3.79-3.39-4.24,1.55-6.66a34.1,34.1,0,0,0,9.44-6.39c11.37-11.74,5.12-26.85-5.7-32.75-9.54-5.21-19.67-2.57-29.25-.51-8.88,1.92-17.37,5.74-26,8.89a9.51,9.51,0,0,0-3.64,2.91c-1.55,1.84-2.82,3.92-4.21,5.89l-1.78.17c1.45,1.88,2.59,4.17,4.41,5.57,4.64,3.55,9.88,3.49,15.53,1.19-7.38,13.06-8.33,28.05-15.1,40.93a6.45,6.45,0,0,0-.72,2.33c-.51,5-1.58,9.72-4.87,13.71-3.1,3.75-1.65,7.93-1.78,12.22,4.13-.72,5-3.41,5.53-6.2.77-3.71,2.18-1.88,3.77-.26,2.48-5.25,4.89-10.36,7.45-15.8l1.75,3.22c1.72-4.67,4.37-8.71,4.5-12.83.23-7.67,2.66-14.51,5.29-21.44,2.21-5.82,4.46-11.63,6.72-17.53l2.13,1.56c.57-1.44,1.08-2.57,1.47-3.74,1.37-4.08,4.28-5.23,8.31-4.65,1.79.25,3.65-.05,5.47.06,6.69.43,9.43,5.9,5.64,11.4-1.49,2.15-3.53,3.93-5.06,6.07-2.36,3.32-4.92,2.56-7.79.85a21.29,21.29,0,0,0-3.65-1.38l-.7,1.12ZM28.24,312.4l3.91,2.49-5.43.88c1.28,2,3.29,3.71,3.25,5.36-.12,4.91,3.07,4.31,5.93,4.1,8.5-.62,17-1.43,25.66-2.18-.9,4.78-1.48,9.47-2.71,14-2.19,8.06-4.44,16.13-7.27,24-4.46,12.32-11.35,23.16-21.42,31.77-4,3.45-13.53,5.57-18.84.95-2.83-2.47-6.41-4.09-9.66-6.08l-.67.91a23.16,23.16,0,0,0,2.27,3.35c6,6.34,13.79,9.65,22,11.55,4,.91,8.5.79,11.82-2.4,6-5.75,12.57-11.12,17.5-17.7,10.26-13.69,15.87-29.63,19.55-46.25,1.14-5.1,2.21-10.22,3.53-15.28A4.47,4.47,0,0,1,80,319.4c4.93-2.33,10-4.47,14.93-6.69,3.12-1.39,6.32-2.64,9.29-4.29,1.38-.76,2.3-2.34,3.33-3.45l-3.73-2.74,9.73-2.81c-5.84,0-11.73-.88-17.26.16-21.1,4-41.92,9.52-63.49,10.82C31.47,310.48,30.17,311.53,28.24,312.4Zm80.2,3.92c-2.29-3.25-3.76-3.76-5.21,0a79.06,79.06,0,0,1-4.56,8.81c-4.86,9.08-9.61,18.22-14.68,27.18-1.15,2-3.34,3.54-5.25,5-.95.75-2.36.92-4.09,1.55l3.82,3c-5.08,9.44-10.21,18.7-15,28.12-1.71,3.33-3.68,6.89-2.14,10.68l4-2.81.78.91,3.51-7.27,1.55,6.24c5.48-11.65,10.47-22.56,15.78-33.3,1.06-2.14,3.22-3.87,5.18-5.38a17.3,17.3,0,0,1,5.19-2.33c3.41-1.11,6.87-2,10.49-3.09,1,10.4,1.85,20,2.74,29.57l4-.53.77,6.12h.88l2.22-6.3,3,3.18v-7.64c0-8-.31-16,.1-24,.44-8.35,2-16.65,2.25-25,.15-6.14-1.14-12.32-1.81-18.77l-11.85,2.27Zm65.43,4.5c-2.91-2.12-5.7-3.2-6.84-5.21-2-3.45-4.75-2.94-7.55-2.67-8.72.84-14.75,6.38-20.14,12.48-5.78,6.55-10.29,13.88-12,22.74a34.15,34.15,0,0,0,.88,18c3.31,9.61,10.28,15.77,20,17.73,5,1,11,2.28,15.14-3.65,1.77-2.54,4.72-2.4,7,.34a25.62,25.62,0,0,0,3.08,2.68l1.29-.36c-4.59-13.82,4.74-26,3.92-38.62-5.83-3.32-10,.38-14.61,2.41a15.36,15.36,0,0,1-1.91.74c-6.25,1.82-11.72,4.58-14.19,12.07,3.2-1.39,5.84-2.87,8.68-3.68a63.91,63.91,0,0,1,8.46-1.32c-.46,5.8-1.79,11.25-1,16.38.67,4.5-1.73,4.57-4.31,5.11-1.61.34-3.35,0-5,.08-8.37.48-16-7.87-17.21-15-1.89-10.7,2.17-19.59,11.05-25.54,6.22-4.18,13.32-7,19.94-10.65A45.34,45.34,0,0,0,173.87,320.82Zm139.59,41.94-1,1.77c1.07.9,2.11,1.83,3.2,2.7,2.37,1.89,4.9,3.61,7.13,5.66,5.65,5.22,10.87,10.95,16.8,15.82,12,9.89,24.38,19.36,36.61,29,5,3.9,10,7.76,14.94,11.65a6.24,6.24,0,0,1,1.73,1.57c2.18,4,6.33,4.62,10,6-3.79-3.56-7.63-7-11.67-10.26q-10.94-8.74-22.05-17.25c-4.12-3.17-8.37-6.17-12.54-9.27a7,7,0,0,1-2.05-1.83,18.08,18.08,0,0,0-9-7.6c-1.4-.6-2.49-2-3.57-3.22-6.76-7.44-12.13-16.24-20.83-21.76C318.93,364.31,316.06,363.74,313.46,362.76Zm-12.28,24.77-1.59-.6-3.07,8.2,1.34.49Z"/><path class="b" d="M334.17,290.58H59.49v-55.8H334.17Zm-19.06-45.75-17.43,3c2.61,9.12,0,15.69-6.93,18.92-5.67,2.65-15.22,0-16.79-4.34,1.47-2.73,3.41-4.65,3.21-6.3-.48-3.93-3.74-2.28-6.15-1.88l-.66-2.8c-1.61.55-3.07,1-4.47,1.54-4.22,1.68-8.18,6.79-6.88,9.6,1.58,3.42,3.34,7.36,6.2,9.5,13.17,9.83,30.68,10.51,42.25-4.13C312.84,261.19,316.47,253.79,315.11,244.83ZM73.24,241.47c1.22,5.4,1.8,10.65,3.61,15.43,3.06,8.11,8.46,14.74,16.69,18,12.14,4.77,23.19,1.79,32.53-6.86,2.62-2.43,5.43-6,3.2-10.31-1.72-3.32-6.77-8.39-10.9-7.06-1.41,9.95-6.29,15-14.41,14.81-6.6-.12-11.84-4.17-12.31-8.62,1.81-1.49,4.34-2.6,4.37-3.78.1-3.75-3.32-2.51-5.34-2.72.18-2,.34-3.84.46-5.22Z"/><path class="b" d="M276.75,397.56c-1-2.52-3.84-4.11-3.08-7.55.37-1.68-.18-4.92-1.14-5.29-2.91-1.13-1.39-3.22-1.84-4.83-.89-3.2-2.36-6.36-2.56-9.6-.38-6.18,0-12.39,0-18.59,0-.54-.11-1.07-.29-2.64-4.1,1.72-7.76,3.39-11.51,4.81-7,2.64-11.32,7.9-14.87,14.21-3.29,5.86-6.86,11.58-10.67,17.11a100.78,100.78,0,0,1-9.36,11.37c-1.3,1.38-3.46,2-5.27,2.84s-3.64,1.66-6,2.72c-1.61-1.62-2-3.76.1-6.62,2.78-3.87,5.09-8.07,8-12.78-5.31.37-10.9,4.37-13.28-1.7-1.5-3.83-.28-8.72-.28-12.75-2.83,2.54-6.49,5.5-9.76,8.85-3.69,3.78-8.23,4.3-12.88,3.57s-3.53-5.16-3.61-8c-.36-13.72,4.24-26.19,10.22-38.32,3.23-6.53,5.47-13.57,8.92-20,1.57-2.9,4.9-4.92,7.7-7,.36-.26,2.84,1.49,3.48,2.75.77,1.51.34,3.6,2.76,4.16.27.06.5,2.15.1,3-8.23,17.39-19.16,33.48-25.05,52a14,14,0,0,0-.14,3.78c1.29-.12,2.84.18,3.84-.43,7.77-4.73,15.07-10.28,19.54-18.26,2.85-5.08,4.24-11,5.86-16.72a64.54,64.54,0,0,1,10.07-20c2.11-2.92,8-4.05,10.94-2,1.38,1,2.74,8.27,1.86,10.07-5.5,11.32-11.58,22.37-14.84,34.68-1.19,4.5-3.46,8.72-5.23,13l4.5,3.15,9-12.14L227,366c1.11-4.93,4.05-7.14,7.62-9.68a51.54,51.54,0,0,0,12.19-12.84,159.82,159.82,0,0,1,19.85-23.86c2.53-2.5,4.11-6,6.27-9.21l11.91,4.11c-.56,5-.74,10.25-1.82,15.35-2.38,11.27-2.25,22.65-2.58,34.06-.18,6.42-2.17,12.77-2.95,19.2C276.91,387.88,277,392.74,276.75,397.56Zm-20.47-56.7,1.14,1.19,8-3.6c.59-2.82,1.22-5.77,1.84-8.73l-1.05-.5Z"/><path class="b" d="M327.41,350.11l-4-5.07.7-1.12a21.29,21.29,0,0,1,3.65,1.38c2.87,1.71,5.43,2.47,7.79-.85,1.53-2.14,3.57-3.92,5.06-6.07,3.79-5.5,1.05-11-5.64-11.4-1.82-.11-3.68.19-5.47-.06-4-.58-6.94.57-8.31,4.65-.39,1.17-.9,2.3-1.47,3.74l-2.13-1.56c-2.26,5.9-4.51,11.71-6.72,17.53-2.63,6.93-5.06,13.77-5.29,21.44-.13,4.12-2.78,8.16-4.5,12.83l-1.75-3.22c-2.56,5.44-5,10.55-7.45,15.8-1.59-1.62-3-3.45-3.77.26-.57,2.79-1.4,5.48-5.53,6.2.13-4.29-1.32-8.47,1.78-12.22,3.29-4,4.36-8.74,4.87-13.71a6.45,6.45,0,0,1,.72-2.33c6.77-12.88,7.72-27.87,15.1-40.93-5.65,2.3-10.89,2.36-15.53-1.19-1.82-1.4-3-3.69-4.41-5.57l1.78-.17c1.39-2,2.66-4.05,4.21-5.89a9.51,9.51,0,0,1,3.64-2.91c8.59-3.15,17.08-7,26-8.89,9.58-2.06,19.71-4.7,29.25.51,10.82,5.9,17.07,21,5.7,32.75a34.1,34.1,0,0,1-9.44,6.39c-4.94,2.42-5.2,2.87-1.55,6.66,3.93,4.09,7.53,8.53,11.69,12.37,4.73,4.38,10,8.18,14.88,12.38s9.72,8.75,14.64,13.05c3.45,3,7.05,5.83,10.53,8.8a26.54,26.54,0,0,1,2.33,2.52l-.85,1c-2.29-1.65-4.66-3.19-6.85-5q-20.34-16.44-40.59-33a10.1,10.1,0,0,1-2.37-2.38c-3.79-6.21-10.78-7.58-16.23-11.26l-1,1.12c9.27,8.16,18.51,16.35,27.81,24.47,9.57,8.34,19.21,16.61,28.82,24.91l-1.08,1.31-60.51-49.15-.8.91,24.2,22.08c.1.1.28.13.35.24,5.27,7.94,14.26,11.06,21.36,16.63,2.79,2.18,4.3,6,7.1,8.18,3.29,2.54,5.53,6.3,10.45,7.29,3,.6,5.21,4.67,7.91,7,3.2,2.82,6.53,5.49,9.8,8.23l-1,1.18c-7.74-6.16-15.42-12.42-23.25-18.47-14.07-10.87-28.33-21.5-42.33-32.46-4.88-3.82-9.06-8.53-13.9-12.41a41.36,41.36,0,0,0-9.71-5.57c-2.88-1.23-2.9-3.38-2.29-5.44.83-2.83,2.83-1.14,4.4-.52,1.1.45,2.17,1,3.67,1.68C319.13,352.32,319.62,351.75,327.41,350.11Z"/><path class="b" d="M28.24,312.4c1.93-.87,3.23-1.92,4.59-2,21.57-1.3,42.39-6.82,63.49-10.82,5.53-1,11.42-.16,17.26-.16l-9.73,2.81,3.73,2.74c-1,1.11-2,2.69-3.33,3.45-3,1.65-6.17,2.9-9.29,4.29-5,2.22-10,4.36-14.93,6.69a4.47,4.47,0,0,0-2.33,2.44c-1.32,5.06-2.39,10.18-3.53,15.28-3.68,16.62-9.29,32.56-19.55,46.25-4.93,6.58-11.51,11.95-17.5,17.7-3.32,3.19-7.85,3.31-11.82,2.4-8.25-1.9-16-5.21-22-11.55A23.16,23.16,0,0,1,1,388.57l.67-.91c3.25,2,6.83,3.61,9.66,6.08,5.31,4.62,14.81,2.5,18.84-.95,10.07-8.61,17-19.45,21.42-31.77,2.83-7.85,5.08-15.92,7.27-24,1.23-4.52,1.81-9.21,2.71-14-8.67.75-17.16,1.56-25.66,2.18-2.86.21-6,.81-5.93-4.1,0-1.65-2-3.35-3.25-5.36l5.43-.88Z"/><path class="b" d="M108.44,316.32l1.63-3.76,11.85-2.27c.67,6.45,2,12.63,1.81,18.77-.21,8.35-1.81,16.65-2.25,25-.41,8-.1,16-.1,24v7.64l-3-3.18-2.22,6.3h-.88l-.77-6.12-4,.53c-.89-9.56-1.78-19.17-2.74-29.57-3.62,1-7.08,2-10.49,3.09a17.3,17.3,0,0,0-5.19,2.33c-2,1.51-4.12,3.24-5.18,5.38-5.31,10.74-10.3,21.65-15.78,33.3l-1.55-6.24-3.51,7.27-.78-.91-4,2.81c-1.54-3.79.43-7.35,2.14-10.68,4.84-9.42,10-18.68,15-28.12l-3.82-3c1.73-.63,3.14-.8,4.09-1.55,1.91-1.5,4.1-3,5.25-5,5.07-9,9.82-18.1,14.68-27.18a79.06,79.06,0,0,0,4.56-8.81C104.68,312.56,106.15,313.07,108.44,316.32ZM96.52,349.65c3.23-1.43,6.51-2.77,9.67-4.35A3.48,3.48,0,0,0,108,343c.19-3.84.08-7.7.08-11.55l-1.23-.4C101.67,336,100.05,343.3,96.52,349.65Z"/><path class="b" d="M173.87,320.82a45.34,45.34,0,0,1-5.38,4c-6.62,3.61-13.72,6.47-19.94,10.65-8.88,5.95-12.94,14.84-11.05,25.54,1.26,7.14,8.84,15.49,17.21,15,1.68-.1,3.42.26,5-.08,2.58-.54,5-.61,4.31-5.11-.76-5.13.57-10.58,1-16.38a63.91,63.91,0,0,0-8.46,1.32c-2.84.81-5.48,2.29-8.68,3.68,2.47-7.49,7.94-10.25,14.19-12.07a15.36,15.36,0,0,0,1.91-.74c4.57-2,8.78-5.73,14.61-2.41.82,12.62-8.51,24.8-3.92,38.62l-1.29.36a25.62,25.62,0,0,1-3.08-2.68c-2.28-2.74-5.23-2.88-7-.34-4.12,5.93-10.13,4.65-15.14,3.65-9.73-2-16.7-8.12-20-17.73a34.15,34.15,0,0,1-.88-18c1.72-8.86,6.23-16.19,12-22.74,5.39-6.1,11.42-11.64,20.14-12.48,2.8-.27,5.58-.78,7.55,2.67C168.17,317.62,171,318.7,173.87,320.82Z"/><path class="b" d="M313.46,362.76c2.6,1,5.47,1.55,7.77,3,8.7,5.52,14.07,14.32,20.83,21.76,1.08,1.19,2.17,2.62,3.57,3.22a18.08,18.08,0,0,1,9,7.6,7,7,0,0,0,2.05,1.83c4.17,3.1,8.42,6.1,12.54,9.27q11.08,8.54,22.05,17.25c4,3.23,7.88,6.7,11.67,10.26-3.72-1.42-7.87-2-10-6a6.24,6.24,0,0,0-1.73-1.57c-5-3.89-10-7.75-14.94-11.65-12.23-9.63-24.59-19.1-36.61-29-5.93-4.87-11.15-10.6-16.8-15.82-2.23-2.05-4.76-3.77-7.13-5.66-1.09-.87-2.13-1.8-3.2-2.7Z"/><path class="b" d="M301.18,387.53l-3.32,8.09-1.34-.49,3.07-8.2Z"/><path class="a" d="M315.11,244.83c1.36,9-2.27,16.36-7.65,23.16-11.57,14.64-29.08,14-42.25,4.13-2.86-2.14-4.62-6.08-6.2-9.5-1.3-2.81,2.66-7.92,6.88-9.6,1.4-.56,2.86-1,4.47-1.54l.66,2.8c2.41-.4,5.67-2.05,6.15,1.88.2,1.65-1.74,3.57-3.21,6.3,1.57,4.34,11.12,7,16.79,4.34,6.9-3.23,9.54-9.8,6.93-18.92Z"/><path class="a" d="M73.24,241.47l17.9,3.64c-.12,1.38-.28,3.2-.46,5.22,2,.21,5.44-1,5.34,2.72,0,1.18-2.56,2.29-4.37,3.78.47,4.45,5.71,8.5,12.31,8.62,8.12.15,13-4.86,14.41-14.81,4.13-1.33,9.18,3.74,10.9,7.06,2.23,4.28-.58,7.88-3.2,10.31-9.34,8.65-20.39,11.63-32.53,6.86-8.23-3.23-13.63-9.86-16.69-18C75,252.12,74.46,246.87,73.24,241.47Z"/><path class="a" d="M256.28,340.86l9.9-11.64,1.05.5c-.62,3-1.25,5.91-1.84,8.73l-8,3.6Z"/><path class="a" d="M96.52,349.65c3.53-6.35,5.15-13.62,10.32-18.62l1.23.4c0,3.85.11,7.71-.08,11.55a3.48,3.48,0,0,1-1.8,2.32C103,346.88,99.75,348.22,96.52,349.65Z"/><path class="b" d="M278.94,223.91h11V160.13h-11Z"/><path class="c" d="M153.43,171V160.19H191.7V171H178.09l0,52.87h-11V171.09Zm108,26.54a19.37,19.37,0,0,0-6.93-37.45l-7.5,0c-6.94,0-11,3.63-11,11v52.49h11V170.73h6.76a9.32,9.32,0,0,1,1.66,18.49,8,8,0,0,0-2.26.85,8.07,8.07,0,0,0-2.76,11.07h0l13.77,22.76h11.59l-15-24.63a1.12,1.12,0,0,1,.38-1.55h0a1,1,0,0,1,.32-.12l-.06,0Zm-132.9,11.07-4.16,15.18H112.81l16.08-58.3a8.21,8.21,0,0,1,15.72,0l17.64,58.38-11.43-.08-4.62-15.15-17.72,0Zm14.61-10.16-6.23-20.32-5.56,20.3ZM199,208.65l-4.17,15.18H183.35l16.08-58.3a8.21,8.21,0,0,1,15.72,0l17.64,58.38-11.43-.08-4.62-15.15-17.71,0Zm14.61-10.16-6.23-20.32-5.57,20.3Zm-23.29-197h22V144.4h-22Zm-3.59,0H171.4V44.64A77.61,77.61,0,0,1,113,119.83l-.06,24.52A88.55,88.55,0,0,0,186.81,57l-.05-55.56Zm29.19,0h15.36V44.64a77.6,77.6,0,0,0,58.45,75.19l.05,24.52A88.55,88.55,0,0,1,215.9,57l0-55.56Z"/></svg>