<svg xmlns="http://www.w3.org/2000/svg" viewBox="0 0 377.14 440.86"><defs><style>.cls-1{fill:#aaa;}.cls-2,.cls-3{fill:#fff;}.cls-3{fill-rule:evenodd;}</style></defs><title>logos</title><g id="atari"><path class="cls-1" d="M0,440.49H377.14V.49H0Z"/><path class="cls-2" d="M309.93,395h17.15V295.21H309.93Z"/><path class="cls-3" d="M113.61,312.27v-17h59.86v17H152.18L152.12,395H135V312.36ZM282.47,353.8a30.31,30.31,0,0,0-10.84-58.6l-11.73-.05c-10.87,0-17.16,5.69-17.16,17.15v82.11H259.9V311.79h10.57a14.58,14.58,0,0,1,2.59,28.93,12.09,12.09,0,0,0-3.54,1.33,12.61,12.61,0,0,0-4.31,17.31h0L286.77,395h18.12l-23.43-38.54a1.75,1.75,0,0,1,.6-2.42h0a1.78,1.78,0,0,1,.5-.19l-.09,0ZM74.57,371.11l-6.51,23.74h-18l25.16-91.2a12.83,12.83,0,0,1,24.58,0L127.4,395l-17.88-.13-7.23-23.7-27.72,0Zm22.86-15.89-9.74-31.8L79,355.18Zm87.5,15.89-6.51,23.74h-18l25.17-91.2a12.83,12.83,0,0,1,24.58,0L237.75,395l-17.88-.13-7.23-23.7-27.71,0Zm22.85-15.89L198,323.42l-8.71,31.76ZM171.35,47H205.7V270.6H171.35Zm-5.62,0h-24v67.51A121.39,121.39,0,0,1,50.28,232.17l-.08,38.35c65.6-10.88,115.68-68,115.62-136.57L165.73,47Zm45.67,0h24v67.51a121.39,121.39,0,0,0,91.43,117.62l.09,38.35c-65.6-10.88-115.69-68-115.62-136.57L211.4,47Z"/></g></svg>