<svg id="commodore" xmlns="http://www.w3.org/2000/svg" viewBox="0 0 377.14 440.86"><defs><style>.cls-1{fill:#aaa;}.cls-1,.cls-2{fill-rule:evenodd;}.cls-2{fill:#fff;}.cls-3{fill:none;stroke:#aaa;stroke-miterlimit:10;stroke-width:7px;}</style></defs><title>logos</title><g id="AMIGA"><path class="cls-1" d="M360.63,284.45q-32.2-14.44-78.26-21.82a604.44,604.44,0,0,0-95.73-7.38,610.3,610.3,0,0,0-98.28,7.68Q41.25,270.6,8.44,284.75L16,272.41q24.38-9.93,69.83-16.71a650.17,650.17,0,0,1,95.73-6.77,630,630,0,0,1,84.13,5.42,363.79,363.79,0,0,1,73.9,17.46q-2.71-3.31-7.37-8.88a113.21,113.21,0,0,1-7.08-9.18l-36.72-59.61-13.85,42.15,28.9,6,3.31,4.81q-7.37-2.13-14.9-3.61t-18.51-3.31l-1.51,3.91-8.73-1.2L286,185.11h10.53l38.23,62.31q6,9.65,13.4,20.17t12.49,16.86Z"/><polygon class="cls-1" points="192.66 237.79 180.62 237.79 180.62 185.11 192.66 185.11 192.66 237.79 192.66 237.79"/><path class="cls-1" d="M263.4,200.47A39.84,39.84,0,0,0,251.06,191a30,30,0,0,0-12.94-3.16,25.39,25.39,0,0,0-17,6q-7.08,6-7.07,19,0,11.43,8.12,18.21a27.13,27.13,0,0,0,17.76,6.77,18.74,18.74,0,0,0,7.23-1.5V217h12.34v19.27q-3.32,2.7-10.84,4.06a76.17,76.17,0,0,1-13.24,1.36q-7.53,0-20.17-3.62t-12.64-25q0-10.85,10.53-20.47T238.72,183a42.78,42.78,0,0,1,12.19,1.65,54.77,54.77,0,0,1,12.49,5.87v9.94Z"/><polygon class="cls-1" points="168.58 237.79 156.54 237.79 156.54 193.54 134.27 241.71 111.39 197.16 111.39 242.91 104.16 243.81 104.16 185.11 118.31 185.11 136.97 221.84 153.53 185.11 168.58 185.11 168.58 237.79 168.58 237.79 168.58 237.79"/><path class="cls-1" d="M101.15,244.11l-13.24,2.11L69.25,197.46,41,246.52q13.24-3.61,27.39-6l4.22,3.61a287.87,287.87,0,0,0-34.62,8.13l-3,5.42a34.49,34.49,0,0,0-12.64,3.91l46.35-76.46h7.83l24.68,59Z"/></g><g id="commodore-2" data-name="commodore"><path class="cls-1" d="M360.63,179.82H348.56V157.76h12.07v2.91a22.73,22.73,0,0,0-7.49-.41v6.66h3.33l4.16-.42v1.67l-4.16,1.25h-3.33v8.32l7.49-.42v2.5Z"/><path class="cls-1" d="M331.91,179.82h-6.24l-3.75-6.66-2.08-3.33-.41,10h-4.58V157.76h6.65a12.43,12.43,0,0,1,6.25,1.25,4.08,4.08,0,0,1,2.08,3.74c0,3.33-1.8,5.42-5.41,6.25l5.83,9.16,1.66,1.66Z"/><path class="cls-1" d="M294,168.58a11.67,11.67,0,0,1-3.53,8.54,12.71,12.71,0,0,1-9.37,3.53,15.5,15.5,0,0,1-7.91-2.49q-4.16-2.5-4.16-9.16,0-11.66,12.49-11.66,6.24,0,9.36,3.54a11.43,11.43,0,0,1,3.12,7.7Z"/><path class="cls-2" d="M324.42,163.59v-1.67q-.42-2.49-5-2.49v8.74C322.75,168.72,324.42,167.2,324.42,163.59Z"/><path class="cls-2" d="M288.62,168.17q0-9.16-7.07-9.16t-7.08,10.82q0,8.74,6.66,8.74Q288.63,178.57,288.62,168.17Z"/><path class="cls-1" d="M249.91,168.17q0,11.66-11.65,11.65H229.1V157.76h11.24Q249.91,157.76,249.91,168.17Z"/><path class="cls-2" d="M244.5,168.17q0-8.74-7.49-8.74H234.1v18.31h2.49Q244.51,177.74,244.5,168.17Z"/><path class="cls-1" d="M208.29,168.58a11.64,11.64,0,0,1-3.54,8.54,12.69,12.69,0,0,1-9.36,3.53q-11.65,0-11.66-11.65t12.49-11.66c4.16,0,7.21,1.12,9.16,3.33a11.63,11.63,0,0,1,2.91,7.91Z"/><path class="cls-2" d="M202.88,168.17q0-9.16-6.66-9.16-7.49,0-7.49,10.82,0,8.74,7.07,8.74a5.75,5.75,0,0,0,5.41-2.91,15,15,0,0,0,1.67-7.49Z"/><polygon class="cls-1" points="164.17 179.82 158.76 179.82 157.51 164.84 150.43 179.82 142.11 165.25 140.44 179.82 137.53 179.82 140.86 157.76 143.36 157.76 150.85 173.16 158.76 157.76 161.25 157.76 164.17 179.82 164.17 179.82"/><path class="cls-1" d="M119.63,179.82h-5.41l-1.25-15-7.49,15-8.33-14.57-1.24,14.57H92.58q1.24-5,2.29-11.45t1.45-10.61h2.5l7.49,15.4,7.5-15.4h2.91l2.91,22.06Z"/><path class="cls-1" d="M73.43,168.58a11.64,11.64,0,0,1-3.54,8.54,12.69,12.69,0,0,1-9.36,3.53q-12.08,0-12.07-11.65t12.9-11.66c4.16,0,7.21,1.12,9.16,3.33a11.63,11.63,0,0,1,2.91,7.91Z"/><path class="cls-2" d="M68,168.17Q68,159,60.94,159t-7.07,10.82q0,8.74,6.66,8.74,7.48,0,7.49-10.4Z"/><path class="cls-1" d="M28.89,159l-.83,2.91Q25.15,159,22.23,159q-7.49,0-7.49,10,0,9.57,7.49,9.57a7.18,7.18,0,0,0,5.83-2.49L27.64,179q-2.07,1.66-6.24,1.66a12.8,12.8,0,0,1-8.74-2.91c-2.22-1.94-3.33-4.72-3.33-8.32q0-12.07,12.9-12.08A13.17,13.17,0,0,1,28.89,159Z"/><rect class="cls-3" width="377.14" height="440.49"/></g></svg>