<svg xmlns="http://www.w3.org/2000/svg" viewBox="0 0 588.1 440.86"><defs><style>.cls-1{fill:#aaa;}</style></defs><title>logos</title><g id="gameboycolor"><path class="cls-1" d="M489.07,440.47c54.84,0,99-45,99-99.81V37.25A37,37,0,0,0,551,0H37.59A37.44,37.44,0,0,0,0,37.25V402.56c0,20.66,16.94,37.91,37.59,37.91Zm-379.26-382a14.55,14.55,0,0,1,14.54-14.55h339.4a14.54,14.54,0,0,1,14.54,14.55v326A14.54,14.54,0,0,1,463.75,399H124.35a14.54,14.54,0,0,1-14.54-14.54Zm-76,95.27a12.52,12.52,0,1,1,12.52,12.52A12.51,12.51,0,0,1,33.85,153.74Z"/><g id="Capa_51" data-name="Capa 51"><g id="g10"><g id="g12"><path id="path14" class="cls-1" d="M244.14,275.49a19.84,19.84,0,0,1-18.74,9c-15.12-1.55-16.9-14.83-16.9-14.83s-2.07-9.77,7.24-18.28c9.43-7.94,19.26-6.73,19.26-6.73s6.61.63,10,11.56c4.37,13.91-.86,19.26-.86,19.26ZM267,248c-1.89-5.75-6.9-11.21-6.9-11.21a41.12,41.12,0,0,0-22.3-13.11,35.26,35.26,0,0,0-22.59,2.93,48.45,48.45,0,0,0-15.81,11.1c-10.81,10.4-13.92,25.58-13.92,25.58s-4.13,13.22,2.42,23.69l7.13,8.62a40.91,40.91,0,0,0,20.81,9.25,43.91,43.91,0,0,0,18.8-.68A46.46,46.46,0,0,0,249.89,298s14.66-8.1,18.68-24.66L267,248"/><path id="path16" class="cls-1" d="M369.18,278.48c-16.27,9.77-26.5-.93-26.5-.93s-4.55-3-5.52-12.07c-.69-10.52,9.77-16,9.77-16a22.84,22.84,0,0,1,12.42-2.87c6.9.51,9.08.05,14.66,4.19,5.28,4.78,4.94,8.28,4.94,8.28s1.9,11.85-9.77,19.38Zm27.53-33.58C386.66,228.46,369,226,369,226s-5.64-1.9-17.71-.29c-22.65,4.31-30.52,21.73-30.52,21.73s-8.11,12.76-4.89,28.23l9.89,19.54C333,302,336,302,336.47,302.45c9.66,4.37,20.86,1.84,20.86,1.84a58,58,0,0,0,27.08-11.44,48.41,48.41,0,0,0,14.84-18.74l-2.54-29.21"/><path id="path18" class="cls-1" d="M421.09,248.58l-1.09-15s10.52-.23,14.89.52c8.62,1.32,8.16,3.73,8.16,3.73s-.29,3-6.84,6a61.73,61.73,0,0,1-15.12,4.71Zm-21.84,25.53s.34,9.19-1.1,11.44a18.74,18.74,0,0,0-1.67,8.28s-1.32,12.41,13.06,14.48c9.88-.06,11.09-8.28,11.26-11.78.58-2.76.35-15.58.35-15.58L434,291.41s9.31,7.82,14.77,12.36a81.58,81.58,0,0,0,7.13,5.29s1.21,1.44,5.57.92c3.52.06,6.73-3.11,6.73-3.11a14.56,14.56,0,0,0,5.12-8.22,8.92,8.92,0,0,0-3.56-9.25s-17.82-14.37-29.9-24.26a97.26,97.26,0,0,0,12-7.48s11.27-7.47,13.68-18.91c3.34-12.59-6.15-17.53-6.15-17.53a76.2,76.2,0,0,0-10.93-6.5,49,49,0,0,0-24.31-4.89s-16.67-1.14-27.54,12.25c-5,6.5-1.9,15-1.9,15s.62,1.37,2,7.82c2.8,13,2.54,29.21,2.54,29.21"/><path id="path20" class="cls-1" d="M315.83,275.66c-4.85-1.06-12.59.92-12.59.92s-10.81,4-12.48,3.91c-.63-.92-2-18.57-1.61-25.64a209,209,0,0,0-.8-22.65s-.52-12-7-19.15c-7.59-7.64-12.87-4.36-15.92-2.53a13.14,13.14,0,0,0-3.91,14.55l3.79,10.75A32.8,32.8,0,0,1,267,248l1.61,25.35c0,3.39,2.76,26.22,2.76,26.22s.29,7.41,7.42,8.73c7.3,1.21,14.48-2.41,17.53-3.84a67,67,0,0,1,7.08-2.71,58.76,58.76,0,0,1,6.66-1c7.82-.75,10.64-2.13,10.64-2.13a8.24,8.24,0,0,0,5.06-3.34c2-2.88,4.49-16.38-9.89-19.54"/><path id="path22" class="cls-1" d="M187.86,286.92a27.91,27.91,0,0,0-11-.51s-16.67,1.61-25.35-.23c-13.45-2.36-13-16.85-13-16.85s-.46-9.6,7.64-22.59c10-16,21-18.91,21-18.91a7.09,7.09,0,0,1,5.35.34c1.61,9.31,10.63,9.26,10.63,9.26s13,.86,12.36-14.89c-1.49-12.94-14-14.72-19.2-15.93-15.69-2.81-25.87,5.58-25.87,5.58s-10.52,5.69-23.11,25.53c-8.56,12.3-9.6,22-9.6,22s-1,2.3-.63,12.53A30.89,30.89,0,0,0,119.85,286s4.54,13.75,18.91,19.38c8.74,3.62,21.51,3.56,21.51,3.56s12.36-.17,21.84-.69c5.17.41,7.65-2.29,7.65-2.29s5.8-3.8,5.23-10.41c0,0-1.13-6.83-7.13-8.63"/><path id="path24" class="cls-1" d="M175.36,184.28,174,177.12l-3.2,7.16Zm50.26,18.19H218l-1-22.83-9.85,22.83h-5.06l-4.21-20.64-6.57,20.64H178.44l-1.94-11h-8.76l-5,11h-7.92l16.26-36.9h9.35l5,29.83,9.69-29.83h7.5l3.7,20.22,8.6-20.22H224l1.6,36.9"/><path id="path26" class="cls-1" d="M247.35,202.47l1.27-7.92H235.39l1.05-6.57h11.5l1.27-7.92H237.58l1-6.57h13.23l1.26-7.92h-21l-5.89,36.9h21.14"/><path id="path28" class="cls-1" d="M345.84,165.57H337l-7.5,12.05-4.71-12.05H316.1L325,185l-2.75,17.44h7.58l2.33-15.41,13.65-21.49"/><path id="path30" class="cls-1" d="M300.82,195.45c4,1.79,8.92-1.73,11-7.86s.46-12.57-3.55-14.37-8.92,1.73-11,7.87-.45,12.56,3.56,14.36Zm-11.48-14.6c2.36-10.2,11.08-16.9,19.48-15s13.3,11.79,10.95,22-11.07,16.9-19.47,15-13.31-11.79-11-22"/><path id="path32" class="cls-1" d="M138.68,168.86c-7.23,4.47-10.7,11.29-9.78,20.56,1.08,10.75,15,17.52,26.79,10.7,1-.6.63-.51,1-.85l2.36-15H145l-1.08,6.9h5.88l-.67,3.71c-3.37,1.35-9.1.84-11.54-3.54-1.55-2.77-3-9,3.54-14.66,5.3-4.63,14.49-5.47,19.8-3,0,0,.67-3.87,1.17-7.5a26.23,26.23,0,0,0-23.41,2.7"/><path id="path34" class="cls-1" d="M264.62,165.78l-5.85,36.62h17.05c7,0,17.3-10.35,7.95-18.81,9.61-10,.08-17.72-5-17.81-4.1-.07-14.21,0-14.21,0Zm4.18,22.16h6.35c6,0,5.86,7.35-.83,7.35h-6.69l1.17-7.35Zm2.34-14.38h4.94c5.35,0,4.26,6.85-.84,6.85H270l1.17-6.85"/><path id="path36" class="cls-1" d="M336.69,205.86h-1.43l1.2-5.1h-2.07l.26-1.1h5.57l-.26,1.1h-2.07l-1.2,5.1"/><path id="path38" class="cls-1" d="M346.18,205.86h-1.34l1.22-5.18h0l-2.49,5.18h-1.41l0-5.18h0l-1.21,5.18h-1.34l1.46-6.2h2.08l.1,4.89h0l2.36-4.89h2.07l-1.45,6.2"/></g></g></g></g></svg>