<svg xmlns="http://www.w3.org/2000/svg" viewBox="0 0 453.58 440.86"><defs><style>.cls-1,.cls-2{fill:#aaa;}.cls-2{font-size:122px;font-family:AppleGaramond, Apple Garamond;}</style></defs><title>logos</title><g id="macintosh"><path class="cls-1" d="M195.05,231h-7.8a40.88,40.88,0,0,1-19.16-13.68,147.4,147.4,0,0,1-35.16-82.55,87.94,87.94,0,0,1,5-40.43,57.67,57.67,0,0,1,30.11-32.85,46.3,46.3,0,0,1,32.64-3.79A183.91,183.91,0,0,1,218.84,64a23.16,23.16,0,0,0,18.74,0c4.64-2.11,9.69-3.79,14.53-5.48a55.61,55.61,0,0,1,51.17,7.58,42.14,42.14,0,0,1,11.8,12.43,51.38,51.38,0,0,0,6.1,91.18h0a135.71,135.71,0,0,1-30.74,51,28.24,28.24,0,0,1-28.85,8.63,132.91,132.91,0,0,1-12.85-4.63,44.81,44.81,0,0,0-31-1.48A105.17,105.17,0,0,1,195.05,231Z"/><path class="cls-1" d="M227.26,53.07A50.54,50.54,0,0,1,273.17,0a48.43,48.43,0,0,1-43.52,52.89C228.86,53,228.06,53,227.26,53.07Z"/><g id="text-2" data-name="text"><text class="cls-2" transform="translate(5.24 332.65)">Macintosh<tspan x="75.82" y="105">Classic</tspan></text></g></g></svg>