<svg xmlns="http://www.w3.org/2000/svg" viewBox="0 0 360.28 440.86"><defs><style>.cls-1{fill:#aaa;}</style></defs><title>logos</title><g id="macOS"><path class="cls-1" d="M119.55,440.86H104.68a78,78,0,0,1-36.57-26.13A281.36,281.36,0,0,1,1,257.2,168,168,0,0,1,10.65,180a110.07,110.07,0,0,1,57.46-62.69,88.43,88.43,0,0,1,62.29-7.24A351.7,351.7,0,0,1,165,122.17a44.18,44.18,0,0,0,35.76,0c8.84-4,18.49-7.23,27.73-10.45a106.09,106.09,0,0,1,97.66,14.47,80.5,80.5,0,0,1,22.5,23.71,98.06,98.06,0,0,0,11.66,174h0a259,259,0,0,1-58.68,97.26,53.84,53.84,0,0,1-55.05,16.47A251.41,251.41,0,0,1,222,428.8,85.57,85.57,0,0,0,163,426,201.87,201.87,0,0,1,119.55,440.86Z"/><path class="cls-1" d="M181,101.27A96.44,96.44,0,0,1,268.65,0a92.43,92.43,0,0,1-83,100.94Q183.32,101.17,181,101.27Z"/></g></svg>