<svg xmlns="http://www.w3.org/2000/svg" viewBox="0 0 406.41 440.86"><defs><style>.cls-1{fill:#aaa;}</style></defs><title>logos</title><g id="gamecube"><g id="GAMECUBE-2" data-name="GAMECUBE"><path class="cls-1" d="M50.36,395.31v9h-37v22.88h27v-6.33H24.71v-9.61H51v17.48c-.1,3-5.92,8.78-9.19,8.78H11.64c-4.29,0-10.12-5.82-10.12-8.78V403.48c0-4.9,3.17-8.17,7.36-8.17Z"/><polygon class="cls-1" points="79.07 426.88 79.07 436.79 48.52 436.79 73.35 394.8 83.15 394.8 102.16 426.88 102.16 394.8 112.99 394.8 129.95 423.61 146.91 394.8 157.63 394.8 157.63 436.79 146.91 436.79 146.8 415.43 134.44 436.79 125.35 436.79 112.99 415.43 112.99 436.79 94.7 436.79 77.94 408.08 66.7 426.88 79.07 426.88"/><polygon class="cls-1" points="161.52 394.8 161.52 436.79 204.63 436.79 204.63 426.88 173.26 426.88 173.26 419.62 191.45 419.62 191.45 410.43 173.26 410.43 173.26 403.89 204.63 403.89 204.63 394.8 161.52 394.8"/><path class="cls-1" d="M247.64,411.35h10.73v-9.1s1.12-7.45-6.64-7.45H217.81c-3.37,0-4.9,1.63-4.9,4.08v29.73c0,4.19,4,8.18,6.53,8.18h33.21s5.82.81,5.82-5.72V418.7H247.74v8.18h-24V404.6h23.09v6.64Z"/><path class="cls-1" d="M262.56,394.8H274.1V427H298V394.8h11.55v34.73s.71,7.46-9.91,7.46h-28.1s-9.09.82-9.09-7.46C262.56,423.71,262.56,394.8,262.56,394.8Z"/><path class="cls-1" d="M359.21,419.52v10.83c0,3.78-2.86,6.64-11.55,6.64H313.74V394.8h39.65c3.67,0,5.72,2.14,5.72,5.82v11.54c0,.92-1.23,2.46-4.09,2.46v.81A4.59,4.59,0,0,1,359.21,419.52Zm-10.73,6.64v-4.9c0-1.33-.3-1.74-.82-1.74H325.39V427h21.46C348.07,427,348.48,426.57,348.48,426.16Zm0-16.55v-4.9c0-1.33-.3-1.64-.82-1.64H325.39v7.46h21.46C348.07,410.43,348.48,410,348.48,409.61Z"/><polygon class="cls-1" points="363.3 436.99 406.41 436.99 406.41 426.98 374.13 426.98 374.13 419.62 392.31 419.62 392.31 410.43 374.13 410.43 374.13 403.89 405.49 403.89 405.49 394.69 363.3 394.69 363.3 436.99"/></g><g id="NINTENDO-3" data-name="NINTENDO"><polygon class="cls-1" points="10.51 351.78 10.51 383.15 16.34 383.15 16.34 360.06 28.7 383.15 35.24 383.15 35.24 351.78 28.7 351.78 28.7 370.69 18.79 351.78 10.51 351.78"/><polygon class="cls-1" points="109.72 351.78 109.72 383.15 115.44 383.15 115.44 360.06 127.9 383.15 134.44 383.15 134.44 351.78 127.8 351.78 127.8 370.69 117.89 351.78 109.72 351.78"/><rect class="cls-1" x="69.16" y="351.78" width="6.64" height="31.37"/><polygon class="cls-1" points="161.72 351.78 161.72 356.79 171.63 356.79 171.63 383.15 178.27 383.15 178.27 356.79 188.18 356.79 188.18 351.78 161.72 351.78"/><path class="cls-1" d="M218.83,363.33v.82H237v5H218.83v6.64a4.15,4.15,0,0,0,2.45,2.45H237v5H218.83a6,6,0,0,1-5.82-5.82V357.61c0-3.58,2.14-5.72,5.72-5.72h18.19v5H222c-1.64,0-3.27,1.74-3.27,2.56"/><polygon class="cls-1" points="266.75 383.25 272.47 383.25 272.47 360.16 284.83 383.25 290.65 383.25 290.65 351.78 284.93 351.78 284.93 370.69 274.21 351.78 266.75 351.78 266.75 383.25"/><path class="cls-1" d="M345.31,357.61v19.92c0,1.53-4.29,5.72-6.74,5.72H320.49V351.78h16.45C342.05,351.78,345.31,355.05,345.31,357.61Zm-5.92,18.18V359.34c0-.61-1.94-2.55-3.27-2.55h-9.91v22.27h9.91C337.14,379.06,339.39,376.81,339.39,375.79Z"/><path class="cls-1" d="M399,359.24v16.45c0,4.7-3.57,8.28-9,8.28h-8.48c-5.31,0-8.78-3.27-9-7.87V358.22c0-3.17,3.37-6.54,7.46-6.54h11.54C396.3,351.78,399,354.34,399,359.24ZM392.31,375V360.06c0-1.23-2.14-3.37-3.27-3.37H382.5a3.52,3.52,0,0,0-3.37,3.16v15c0,2.35.92,3.27,2.56,3.27h7.45A3.4,3.4,0,0,0,392.31,375Z"/></g><g id="logo-2" data-name="logo"><path class="cls-1" d="M148.7,122.41c4.53-2.83,8.87-5.56,13.23-8.25,14.1-8.7,28.23-17.32,42.26-26.13,2.1-1.32,3.45-1.33,5.61,0,12.95,7.64,26,15,39.07,22.55,4.79,2.75,9.57,5.52,14.67,8.46-3.1,2.15-5.81,4.07-8.56,5.94q-21.72,14.81-43.42,29.6a3.6,3.6,0,0,1-4.55.19c-10.51-6-21.15-11.66-31.76-17.45q-12.75-6.95-25.5-13.89A8.37,8.37,0,0,1,148.7,122.41Z"/><path class="cls-1" d="M145.18,125c8,4.32,15.55,8.41,23.1,12.55,7.15,3.91,14.27,7.87,21.4,11.81C194.8,152.22,200,155,205,158a4.6,4.6,0,0,1,2,3.29q.17,39,.07,78c0,.73-.14,1.47-.28,2.78-3-1.8-5.71-3.37-8.36-5q-25.65-15.6-51.26-31.27a4.12,4.12,0,0,1-1.85-2.82C145.16,177.16,145.18,151.37,145.18,125Z"/><path class="cls-1" d="M77.28,83.48c18.71-11.75,36.88-23.15,55-34.56q28.09-17.66,56.18-35.31C194.65,9.73,200.72,5.72,206.94,2a4.18,4.18,0,0,1,3.59,0Q259,30.88,307.35,60c.81.49,1.54,1.1,2.66,1.91a10.61,10.61,0,0,1-1.67,1.85Q286.65,78.1,264.87,92.3a4.2,4.2,0,0,1-3.6,0c-16.92-9.58-33.78-19.28-50.65-29L204.72,60q-20,11.38-39.81,22.66c-14,8-27.91,16-41.93,23.94a4.33,4.33,0,0,1-3.56,0c-9-4.78-17.84-9.72-26.75-14.61Z"/><path class="cls-1" d="M75.26,86.64c5.7,3.08,10.92,5.87,16.1,8.71,7.06,3.88,14.09,7.81,21.14,11.7,2.43,1.34,5,2.51,7.29,4a4.38,4.38,0,0,1,1.64,2.94c.22,2.77.08,5.58.08,8.37,0,29.65,0,59.31-.07,89a6,6,0,0,0,3.15,5.78c12.72,8.19,25.37,16.5,38,24.76,14,9.1,27.88,18.25,41.9,27.26a6.06,6.06,0,0,1,3.12,5.85c-.12,16.66-.06,33.31-.06,50v3.56c-3.42-2-6.4-3.79-9.35-5.6Q162.61,301.11,127,279.26q-25-15.33-49.88-30.78c-.87-.54-1.31-1.86-1.79-2.9a4.42,4.42,0,0,1,0-1.71V86.64Z"/><path class="cls-1" d="M211.21,326.25c-.07-1.42-.15-2.35-.15-3.28,0-16.18.05-32.35-.07-48.53a5.36,5.36,0,0,1,2.89-5.1q29.48-18.7,58.9-37.49C278.84,228,285,224.24,291,220.31a4.56,4.56,0,0,0,2-3c.13-15.3.09-30.61.08-45.92a15.82,15.82,0,0,0-.29-1.85c-3.35,1.78-6.47,3.38-9.54,5.07a90.75,90.75,0,0,0-7.93,4.64,4.55,4.55,0,0,0-1.77,3.13c-.17,6.16-.13,12.32-.05,18.49a3.61,3.61,0,0,1-2.05,3.68c-9.67,5.48-19.26,11.09-28.88,16.65l-29.36,17c-.81.46-1.67.82-2.74,1.35v-13q0-31.78,0-63.55c0-2.09.41-3.54,2.32-4.8,7.51-5,14.88-10.13,22.31-15.22,10.58-7.25,21-14.78,31.8-21.67,9.45-6,19.35-11.32,29.06-16.93q20.28-11.72,40.57-23.43c2-1.18,2.69-.8,2.83,1.59,0,.58,0,1.16,0,1.73q0,80.46,0,160.9c0,2.54-.6,4.08-3,5.52q-45.48,27.25-90.77,54.82-16.45,10-32.89,20C212.41,325.69,212.07,325.83,211.21,326.25Z"/></g></g></svg>