<svg xmlns="http://www.w3.org/2000/svg" viewBox="0 0 498.87 440.86"><defs><style>.cls-1{fill:#aaa;}.cls-2{fill:#fff;}</style></defs><title>logos</title><g id="snes"><g id="Nintendo"><rect id="background" class="cls-1" x="29" y="344.63" width="443.14" height="76.77" rx="38.38"/><path id="path1065" class="cls-1" d="M67.22,440.89c-38.93,0-64.95-26.41-64.95-58.41h0c0-32,26.08-58.71,64.89-58.63H434c38.82-.08,64.9,26.62,64.9,58.63h0c0,32-26,58.4-65,58.41Zm.12-102.64C36.52,338.3,17.6,358,17.6,382.4h0c0,24.38,18.8,44.25,49.74,44.15H433.8c30.94.1,49.75-19.77,49.75-44.15h0c0-24.38-18.92-44.09-49.75-44.15Z"/><g id="Nintendo_text" data-name="Nintendo text"><polygon id="polygon1045" class="cls-2" points="62.56 412.23 44.45 412.23 44.46 353.73 62.68 353.73 87.9 394.53 87.89 353.73 105.97 353.73 105.97 412.23 87.91 412.23 62.56 371.44 62.56 412.23"/><polygon id="polygon1047" class="cls-2" points="221.92 412.23 204.3 412.23 204.31 373.41 194.74 373.41 194.74 367.63 204.32 367.63 204.3 359.75 221.91 359.75 221.91 367.62 231.43 367.62 231.43 373.41 221.91 373.41 221.92 412.23"/><polygon id="polygon1049" class="cls-2" points="133.63 412.23 116.04 412.23 116.04 373.33 133.63 373.33 133.63 412.23"/><polygon id="polygon1051" class="cls-2" points="133.63 365.68 116 365.68 116 353.72 133.63 353.72 133.63 365.68"/><path id="path1053" class="cls-2" d="M431.41,392.47s0,5.88,0,8.24c0,6.2-3.67,8.76-7.19,8.76s-7.21-2.56-7.21-8.76c0-2.36,0-8.39,0-8.39s0-5.75,0-8.11c0-6.17,3.69-8.71,7.19-8.71s7.19,2.54,7.19,8.71c0,2.36,0,6.72,0,8.28Zm-7.07-21.8c-14.2,0-25.71,9.78-25.71,21.85s11.51,21.84,25.71,21.84,25.71-9.78,25.71-21.84S438.54,370.67,424.34,370.67Z"/><path id="path1055" class="cls-2" d="M375.54,353.73H392.9v58.5H375.51s0-1.89,0-2.25a21.11,21.11,0,0,1-20.24,1.46,20.72,20.72,0,0,1-12-19.28c0-10.27,9.68-21.49,22.36-20.38a23.48,23.48,0,0,1,10,3.47c0-9,0-21.52,0-21.52Zm.12,38.86v-7c0-6-4.15-7.55-6.88-7.55s-6.9,1.54-6.9,7.55v13.86c0,6,4.1,7.58,6.89,7.58s6.9-1.58,6.9-7.58c0-2.5,0-6.9,0-6.9Z"/><path id="path1057" class="cls-2" d="M174.82,371.53c6.58-.19,19.92,4.12,19.83,19.52,0,2.73,0,21.17,0,21.17H177.16V386.67c0-3.39-3.24-7.16-8-7.16s-8.36,3.77-8.36,7.16c0,1.66,0,25.55,0,25.55H143.33v-38.9H160.8s0,3.12,0,4.09a21.16,21.16,0,0,1,14-5.87Z"/><path id="path1059" class="cls-2" d="M317.79,371.53c6.58-.19,19.92,4.12,19.83,19.52,0,2.73,0,21.17,0,21.17H320.13V386.67c0-3.39-3.24-7.16-8-7.16s-8.36,3.77-8.36,7.16c0,1.66,0,25.55,0,25.55H286.3v-38.9h17.46s0,3.12,0,4.09a21.18,21.18,0,0,1,14-5.87Z"/><path id="path1061" class="cls-2" d="M247.82,386.89c0-3.41.05-5.69,1.16-7.63a7.18,7.18,0,0,1,6.19-3.55h0a7.18,7.18,0,0,1,6.19,3.55c1.12,1.95,1.16,4.23,1.14,7.64Zm14.62,11.73s0,.18,0,2.36c0,7.11-4.68,8.69-7.28,8.69s-7.36-1.58-7.36-8.69c0-2.13,0-8,0-8s33.14,0,33.14,0c0-12.06-11.65-22.06-26-22.06s-25.91,9.78-25.91,21.85,11.6,21.83,25.91,21.83c11.87,0,21.9-6.77,25-15.95Z"/><path id="path1063" class="cls-2" d="M452.79,358.09c2.85,0,4.26,1,4.26,2.87a2.67,2.67,0,0,1-2.18,2.65l2.23,4.45h-2.7L452.49,364h-1.18v4.09h-2.43v-10Zm-.22-3.9a9,9,0,1,0,9,9A9,9,0,0,0,452.57,354.19Zm7.28,9a7.28,7.28,0,1,1-7.28-7.29A7.28,7.28,0,0,1,459.85,363.2Zm-8.54-.69h1.19c1.38,0,2.05-.42,2.05-1.41s-.72-1.49-2.18-1.49h-1.06Z"/></g></g><g id="snes-2" data-name="snes"><path class="cls-1" d="M80.79,7.09c-15.91,0-31.37,13.08-34.21,29.28v.87l-.29.29v.87L46,39v.58l-.29.58V41l-.29.58v.87l-.29.87-.29.87-.29,1.74L44,48l-.29,2-.58,2-.29,2.32-.58,2.32-.58,2.6-.58,2.32-.87,4.93-.58,2.61L39,71.45l-.29,2.32-.58,2.32-.58,2.32-.29,2.32-.29,2-.58,1.74-.29,2v.87l-.29.58v1.45l-.29.87v1.15l-.29.58v.58c-.3,7.09.69,16.76,2.9,18.56C41,126.78,93,199,91.51,210S84,253.52,84,253.52c-1.88,10.94-9.35,19.71-20.29,19.71s-18.41-8.74-16.52-19.71L57,199.59H18.16l-13,74.8c-2.66,15.19,7.62,27.25,22.9,27.25H83.4c15.33,0,29.94-12.06,32.76-27.25,0,0,14.26-69.86,14.2-74.8s-1.45-5.51-1.45-5.51c0-5.68-46.3-82.1-51-84.94-2-1.2-3.71-8.76-3.77-13.34s6.09-35.08,6.09-35.08C82.09,49.78,92.46,41,103.4,41S118.91,49.78,117,60.72l-8.4,48.42h39.14l13.62-72.77c3.08-16.2-7.28-29.28-23.19-29.28Z"/><polygon class="cls-1" points="172.31 7.09 116.36 301.64 158.97 301.64 193.47 130.88 207.1 301.64 244.21 301.64 300.16 7.09 257.55 7.09 228.55 161.03 209.42 7.09 172.31 7.09"/><polygon class="cls-1" points="305.86 7.09 247.88 301.64 331.37 301.64 337.17 265.11 296 265.11 313.11 165.67 354.28 165.67 360.07 134.94 318.91 134.94 336.88 43.62 378.05 43.62 383.85 7.09 305.86 7.09"/><path class="cls-1" d="M417.73,7.09c-15.91,0-31.37,13.08-34.21,29.28v.87l-.29.29v.87l-.29.58v.58l-.29.58V41l-.29.58v.87l-.29.87-.29.87-.29,1.74-.58,2-.29,2L380,52l-.29,2.32-.58,2.32-.58,2.6L378,61.59l-.87,4.93-.58,2.61L376,71.45l-.29,2.32-.58,2.32-.58,2.32-.29,2.32-.29,2-.58,1.74-.29,2v.87l-.29.58v1.45l-.29.87v1.15l-.29.58v.58c-.3,7.09.69,16.76,2.9,18.56C377.92,126.78,430,199,428.46,210s-7.54,43.49-7.54,43.49c-1.89,10.94-9.35,19.71-20.3,19.71s-18.41-8.74-16.52-19.71L394,199.59H355.11l-13.05,74.8c-2.66,15.19,7.63,27.25,22.9,27.25h55.38c15.34,0,30-12.06,32.76-27.25,0,0,14.26-69.86,14.2-74.8s-1.45-5.51-1.45-5.51c0-5.68-46.3-82.1-51-84.94-2-1.2-3.71-8.76-3.77-13.34s6.09-35.08,6.09-35.08C419,49.78,429.4,41,440.34,41S455.85,49.78,454,60.72l-8.41,48.42H484.7l13.62-72.77C501.4,20.17,491,7.09,475.13,7.09Z"/></g></g></svg>