<svg xmlns="http://www.w3.org/2000/svg" viewBox="0 0 442.54 440.86"><defs><style>.cls-1{fill:#aaa;}</style></defs><title>logos</title><g id="nswitch"><path class="cls-1" d="M90.46,0H208.4V440.78H205c-35.28,0-70.57.2-105.81,0-54.06-.39-98-44.17-98.12-98.19Q.66,220.33,1,98.13A98.11,98.11,0,0,1,66.42,6C74.17,3.29,82.43,2,90.46,0Zm91.91,25.83h-4c-25.82,0-51.64-.06-77.48,0-41.66.09-74,32.3-74,73.9q-.11,120.77,0,241.45A73.65,73.65,0,0,0,28.2,355.7c7.13,35.08,36.53,59.11,72.34,59.23,26,.08,51.93,0,77.9,0h3.95Z"/><path class="cls-1" d="M234.22,0h118a13.29,13.29,0,0,0,2.39.76A98.9,98.9,0,0,1,438.7,74.93c1.22,4.82,2,9.73,3,14.61V350.38c-.39,2.24-.77,4.46-1.15,6.69-8.77,49.79-49,83.66-99.57,83.71H234.22Zm26,415h81.39c41.95-.1,74.2-32.27,74.23-74.16q.09-120.28,0-240.58c0-42.18-32.2-74.31-74.43-74.38H264.37c-1.38,0-2.76.13-4.15.2Z"/><path class="cls-1" d="M156.74,129.62a52.09,52.09,0,1,1-52-52.14h.12A52.28,52.28,0,0,1,156.74,129.62Zm-52.22,26.2a26.26,26.26,0,1,0-26.1-26.41v0A26.35,26.35,0,0,0,104.52,155.82Z"/><path class="cls-1" d="M338,181.65a52.09,52.09,0,1,1-52.15,52v-.13A52.24,52.24,0,0,1,338,181.65ZM337.78,260a26.25,26.25,0,1,0-26.06-26.46A26.25,26.25,0,0,0,337.78,260Z"/></g></svg>