<svg xmlns="http://www.w3.org/2000/svg" viewBox="0 0 251.15 440.86"><defs><style>.a{fill:#aaa;}.b{fill:#fff;}</style></defs><title>p3do</title><rect class="a" y="337.94" width="249.07" height="102.56"/><path class="a" d="M80.06,271.05c0-4.31,19.91-7.8,44.48-7.8s44.47,3.49,44.47,7.8-19.91,7.81-44.47,7.81S80.06,275.36,80.06,271.05Z"/><path class="b" d="M41.6,384.32v.16q11.24.21,16.59,4.47t5.36,10.3q0,6.74-6.1,11.12t-16.21,4.39q-8.73,0-13.51-3.5T23,403.31a6,6,0,0,1,2.14-4.79,7.69,7.69,0,0,1,5.14-1.81A7.49,7.49,0,0,1,35,398.3a5.09,5.09,0,0,1,2,4.19q0,3.48-4.66,5.83c-.61.3-.93.65-.93,1,0,.71.87,1.34,2.63,1.88a17.86,17.86,0,0,0,5.34.8q9,0,9-13.19T37.63,385.78l-6,.25c-1.2,0-1.81-.45-1.81-1.33s.64-1.54,1.9-1.54l4.35.17q6.65,0,8.9-3c1.52-2,2.27-4.78,2.27-8.42s-.57-6.5-1.71-8.26S42.46,361,39.69,361a11.57,11.57,0,0,0-4.25.77c-1.32.5-2,1-2,1.5s.43.94,1.3,1.43c2.29,1.46,3.44,3,3.44,4.73a4.78,4.78,0,0,1-1.92,4A6.94,6.94,0,0,1,32,374.94,7.86,7.86,0,0,1,27,373.25,5.15,5.15,0,0,1,24.83,369c0-2.85,1.61-5.33,4.84-7.41s7.35-3.13,12.4-3.13A26.41,26.41,0,0,1,56.18,362c3.84,2.36,5.76,5.38,5.76,9.09Q62,382.05,41.6,384.32Z"/><path class="b" d="M109.21,361V411h4.9q11.25,0,13.59-5.9T130,385c0-7.45-.48-12.81-1.44-16s-2.4-5.4-4.34-6.42a15.86,15.86,0,0,0-7.4-1.53h-7.64ZM94.06,411V361H86.21v-2.7h31.47q13.65,0,21.62,7.74t8,19.53a27.59,27.59,0,0,1-2.43,11.5,28.74,28.74,0,0,1-7.47,9.79A24.71,24.71,0,0,1,127,412.48a57.33,57.33,0,0,1-13,1.26H86.21V411Z"/><path class="b" d="M207.86,386a166.18,166.18,0,0,0-.52-16.8,11.92,11.92,0,0,0-2.73-6.54c-1.46-1.66-3.87-2.48-7.23-2.48a10.59,10.59,0,0,0-6.76,2c-1.68,1.34-2.73,3.48-3.15,6.44a157,157,0,0,0-.61,17.29,164.19,164.19,0,0,0,.53,16.86,11.47,11.47,0,0,0,2.81,6.56c1.53,1.63,3.92,2.44,7.19,2.44a10.57,10.57,0,0,0,6.62-2c1.71-1.32,2.78-3.44,3.21-6.39S207.86,394.68,207.86,386Zm-38.23-.24q0-12.45,8.22-20.38a27.44,27.44,0,0,1,19.72-7.91,28.09,28.09,0,0,1,19.1,7.44q8.43,7.45,8.42,21.18,0,12.87-8,20.64a26.86,26.86,0,0,1-19.47,7.76q-12.42,0-20.23-8.24T169.63,385.78Z"/><path class="a" d="M86.73,197.48a37.81,37.81,0,1,1,37.81,37.9A37.84,37.84,0,0,1,86.73,197.48Z"/><path class="a" d="M89.33,98.65c-5.57,3.71-7,25.26-7,25.26s1.48,21.55,7,25.26,35.21,6,35.21,6,29.65-2.23,35.2-6,7-25.26,7-25.26-1.48-21.55-7-25.26-35.2-6-35.2-6S94.88,94.93,89.33,98.65Z"/><polygon class="a" points="124.54 1.48 168.82 45.88 124.54 90.27 80.25 45.88 124.54 1.48"/></svg>