<svg xmlns="http://www.w3.org/2000/svg" viewBox="0 0 557.28 440.86"><defs><style>.cls-1,.cls-2{fill:#aaa;}.cls-2{fill-rule:evenodd;}</style></defs><title>logos</title><g id="play"><g id="PS3"><path id="_3" data-name="3" class="cls-1" d="M539.05,379.77a38.31,38.31,0,0,1,9.51,29.68C546.76,428,536,438.21,517,438.79c-14.83.41-29.66.14-44.49.14-27.76,0-55.5-.11-83.26,0-4.88,0-8.22-.5-8.22-6.81s3.49-6.82,8.29-6.82H502c6.92,0,14.38.67,18.34-6.79a24.54,24.54,0,0,0-.83-25.3c-2.19-3.45-8.07-5.89-12.5-6.31-10-.93-20.08-.32-30.13-.34H389.31c-4.79,0-8.49-.39-8.27-6.79.18-4.88,1.88-6.91,6.83-6.8,9.33.2,18.66,0,28,0,29.41,0,58.86-.5,88.28.14,18.42.42,21.46-14.47,17.29-25.62-1.42-3.84-6.69-6.7-10.79-9-2.48-1.34-6.09-.7-9.18-.7h-112c-4.1,0-8.31.45-8.42-5.86-.09-5.39,1.33-7.8,7.19-7.76,26.07.19,52.14,0,78.23,0h47.35c13.43,0,25.64,3.23,31.74,16.5s4,25.6-5.4,36.73A15.5,15.5,0,0,0,539.05,379.77Z"/><path class="cls-1" d="M209.27,437.66c-12,0-24-.11-36,0-5.21.09-7.6-2-7.63-7.34s2.3-7.51,7.51-7.47q29,.11,58.12,0c14,0,18.49-4.48,18.61-18.72.14-15.7,0-31.38,0-47.06.16-20.81,11.15-32.33,31.88-32.71,22.55-.43,45.22-.1,67.84-.19,4.87,0,7.06,1.87,7.14,6.94s-1.73,7.79-7.07,7.77q-27.76-.13-55.37,0c-13.3,0-17.88,4.49-18,17.85-.16,15.92,0,31.84,0,47.75-.14,21-11.27,32.49-32.42,32.95-11.53.3-23.07,0-34.6,0Z"/><path class="cls-1" d="M79.55,324.34c21,0,42-.45,63,.13,23.26.64,36,18.55,29.89,40.86-3.68,13.32-14.64,21-31.22,21.09-28.62.21-57.24,0-85.86,0H49.8c-8.81.37-13.88,4.74-14.38,13.55-.56,9.9-.43,19.84-.36,29.76,0,5.47-2,8-7.78,7.91C6.05,437.31,8.69,440,8.5,419.45c0-6-.19-12,.17-18,1.22-19.22,12-29.49,31.1-29.49,27.93-.14,55.85,0,83.78,0h6.24c14.38-.26,21.89-11.15,15.84-24.28-1.73-3.62-6.64-6.82-10.74-8-4.92-1.44-10.53-.57-15.82-.57Q68.19,339,17.26,339c-3.92,0-8.08.42-8.79-5.29-.89-6.94,1-9.38,8.06-9.4h63Z"/><path id="logo-3" data-name="logo" class="cls-2" d="M455.22,211.55c-7,8.82-24.13,15.12-24.13,15.12l-127.5,45.79V238.69l93.83-33.43c10.65-3.82,12.28-9.21,3.63-12s-24.28-2-34.94,1.8l-62.52,22V182l3.61-1.22a214.34,214.34,0,0,1,43.47-9.2c25.4-2.8,56.5.38,80.92,9.63C459.11,189.9,462.21,202.72,455.22,211.55ZM315.73,154V67.67c0-10.15-1.87-19.48-11.39-22.13-7.29-2.33-11.81,4.44-11.81,14.57V276.4L234.2,257.89V0c24.8,4.6,60.93,15.49,80.36,22,49.4,17,66.15,38.06,66.15,85.62C380.71,154,352.09,171.59,315.73,154ZM127.17,235.16c-28.25-8-32.95-24.53-20.07-34.08,11.9-8.82,32.13-15.46,32.13-15.46l83.64-29.74v33.91l-60.18,21.54c-10.64,3.81-12.27,9.21-3.63,12s24.29,2,34.94-1.8l28.87-10.47v30.33c-1.83.33-3.87.65-5.76,1a189.19,189.19,0,0,1-89.94-7.24Z"/></g></g></svg>