<svg xmlns="http://www.w3.org/2000/svg" viewBox="0 0 557.28 440.86"><defs><style>.cls-1,.cls-2{fill:#aaa;}.cls-2{fill-rule:evenodd;}</style></defs><title>logos</title><g id="play"><g id="PSP"><path class="cls-1" d="M458.28,327.58c20.48,0,41-.44,61.44.12,22.68.63,35.12,18.1,29.15,39.86-3.59,13-14.28,20.47-30.45,20.57-27.92.2-55.83,0-83.74,0h-5.42c-8.59.35-13.53,4.62-14,13.21-.54,9.66-.42,19.35-.36,29,0,5.33-2,7.8-7.57,7.71-20.71-.32-18.14,2.25-18.33-17.74,0-5.85-.18-11.72.17-17.54,1.19-18.75,11.66-28.76,30.34-28.76,27.23-.14,54.47,0,81.7,0h6.09c14-.26,21.35-10.88,15.45-23.69-1.69-3.53-6.48-6.64-10.47-7.8-4.81-1.4-10.27-.55-15.43-.55q-49.63-.13-99.3-.14c-3.83,0-7.89.41-8.58-5.16-.86-6.77.95-9.15,7.87-9.17h61.46Z"/><path class="cls-1" d="M190.93,438.51c-12,0-24-.1-36,0-5.2.09-7.6-2-7.63-7.34s2.3-7.51,7.51-7.47q29.06.1,58.12,0c14,0,18.49-4.48,18.61-18.72.14-15.69,0-31.37,0-47.05.16-20.82,11.15-32.34,31.88-32.72,22.55-.43,45.22-.1,67.84-.19,4.87,0,7.06,1.88,7.14,6.94s-1.73,7.79-7.07,7.77q-27.75-.14-55.37,0c-13.3,0-17.88,4.49-18,17.85-.16,15.92,0,31.84,0,47.75-.14,21.06-11.27,32.49-32.42,32.95-11.53.3-23.07,0-34.6,0Z"/><path class="cls-1" d="M78.21,325.2c21,0,42-.46,63,.12,23.26.64,36,18.56,29.89,40.86-3.68,13.32-14.64,21-31.22,21.09-28.62.21-57.24,0-85.86,0H48.46c-8.81.37-13.88,4.74-14.38,13.55-.55,9.9-.43,19.84-.36,29.76,0,5.47-2,8-7.77,7.91-21.23-.33-18.6,2.31-18.79-18.19,0-6-.19-12,.18-18,1.21-19.22,12-29.49,31.09-29.49,27.93-.13,55.86,0,83.78,0h6.25c14.37-.26,21.88-11.15,15.83-24.28-1.73-3.62-6.64-6.81-10.74-8-4.92-1.44-10.52-.58-15.81-.58q-50.89-.14-101.82-.14c-3.92,0-8.08.42-8.79-5.29-.89-6.93,1-9.38,8.06-9.4h63Z"/><path id="logo-3" data-name="logo" class="cls-2" d="M455.22,212.4c-7,8.82-24.13,15.12-24.13,15.12l-127.5,45.79V239.54l93.83-33.43c10.65-3.82,12.28-9.21,3.63-12s-24.28-2-34.94,1.81l-62.52,22V182.85l3.61-1.22a213.89,213.89,0,0,1,43.47-9.21c25.4-2.8,56.5.38,80.92,9.64C459.11,190.75,462.21,203.57,455.22,212.4ZM315.73,154.89V68.52c0-10.14-1.87-19.48-11.39-22.13-7.29-2.33-11.81,4.44-11.81,14.57V277.25L234.2,258.74V.85c24.8,4.61,60.93,15.49,80.36,22,49.4,17,66.15,38.06,66.15,85.63C380.71,154.87,352.09,172.44,315.73,154.89ZM127.17,236c-28.25-7.95-32.95-24.53-20.07-34.08,11.9-8.82,32.13-15.46,32.13-15.46l83.64-29.74v33.91l-60.18,21.54c-10.64,3.81-12.27,9.21-3.63,12s24.29,2,34.94-1.79L222.87,212v30.33c-1.83.33-3.87.65-5.76,1A189.19,189.19,0,0,1,127.17,236Z"/></g></g></svg>