<svg xmlns="http://www.w3.org/2000/svg" viewBox="0 0 501.63 440.86"><defs><style>.cls-1{fill:#aaa;fill-rule:evenodd;}</style></defs><title>logos</title><g id="sdreamcast"><g id="text"><path id="path5840" class="cls-1" d="M2.38,364.49c0-2.79-.53-6.4-1.76-7.92,8.07,0,25.5.06,33,.06,17.2,0,43.14,9.54,43.14,41.71,0,23.88-18.31,41.67-43.14,41.67C28.15,440,7.36,440,0,440a21.74,21.74,0,0,0,2.39-9.57Zm12.36,67.35c7.94,1,15.26,1.34,21.89.4,6.42-.92,28-5.56,27.83-34.17C64.34,371,47.59,364.76,34.69,364a85,85,0,0,0-19.95,1v66.82"/><path id="path5842" class="cls-1" d="M83.81,382.19l12.35-1.92v10.87c3.17-7.83,13-14.12,27-8.67l-3.28,8.6c-12.83-6.08-23.76-.74-23.76,13.5V434a16.87,16.87,0,0,0,1.14,6H84.47a11.49,11.49,0,0,0,1.9-6V391.56c0-3.07-.63-7.83-2.56-9.37"/><path id="path5844" class="cls-1" d="M474.38,388.09v37.54c0,11.77,8.13,14.92,14.14,14.92a37,37,0,0,0,8.67-1l1.55-7.28a25.13,25.13,0,0,1-8.39,1.39,6.14,6.14,0,0,1-6.5-6.42c0-3.51-.09-38,0-39.07h0c.5,0,8.32,0,9.11,0a18.62,18.62,0,0,1,6.24.93v-6.85l-15.32,0,.06-17.57-11.39,3.15c1.58,1.47,2.08,5.77,2.08,8.6v5.88l-7.25,0v5.79h7"/><path id="path5846" class="cls-1" d="M425.17,427.78c4.9,3.5,12.58,6.6,18.21,6.6,7.82,0,13.41-3.8,13.41-11,0-13.21-30.12-11-30.12-27.78,0-11.33,10.14-15.59,19.79-15.59,3.1,0,10.19.67,14.69,2.41l0,7.74C457.12,386.78,451,386,447,386c-6.39,0-11.19,3.17-11.19,9.39,0,9.13,30.09,8.6,30.09,27.34,0,12.11-10.5,17.76-22.05,17.76a61.53,61.53,0,0,1-16.39-2.4l-2.28-10.26"/><path id="path5848" class="cls-1" d="M243.4,388.21c0-.69,0-6.83,0-7.61l-12.51,1.93c1.51,1.58,2.66,6.51,2.66,10v41c0,1.39-.6,4.78-1.89,6.38h13.63c-1.29-1.6-1.89-5-1.89-6.38V402.71c0-11.29,7-15.23,13.92-15.23,6.29,0,12,2.72,12,15.23v30.84c0,1.39-.6,4.78-1.89,6.38h13.22c-1.3-1.6-1.89-5-1.89-6.38V402.71c0-12.51,7.73-15.23,14-15.23s12.87,3.94,12.87,15.23v30.84c0,1.39-.6,4.78-1.9,6.38h12.73c-1.3-1.6-1.9-5-1.9-6.38v-36.7c0-6.25-6.37-16.27-21.27-16.27-8.67,0-13.68,3.85-17.48,7.17-3.23-3.77-8.49-7.31-16.95-7.31a19.52,19.52,0,0,0-15.48,7.77"/><path id="path5850" class="cls-1" d="M213.91,407.43c-1.78,1.68-5.52,3-9.38,3.49-10.14,1.33-18.92,3-18.92,12.89,0,5.86,6.38,10.47,11.44,10.47,13.4,0,16.86-9.66,16.86-17.28Zm-31.65-24.16c5.12-2,13.37-3,18.54-3,13.22,0,22,6.6,22,21.93v25.42c0,4.71.07,9.17,1.75,12.3H213.92l-.38-6.69c-4,5.2-8.83,7.52-17,7.52-16.09,0-19.6-11-19.6-16.28,0-18.86,17.94-19.08,25.74-20.19,4.31-.62,9.86-1.83,10.69-5.88,1.38-6.68-3.4-11.7-13.17-11.7a34.24,34.24,0,0,0-18,5.12Zm228.31,24.16c-1.78,1.68-5.52,3-9.38,3.49-10.14,1.33-18.92,3-18.92,12.89,0,5.86,6.38,10.47,11.44,10.47,13.4,0,16.86-9.66,16.86-17.28Zm-31.65-24.16c5.12-2,13.37-3,18.54-3,13.21,0,22,6.6,22,21.93v25.42c0,4.71-1,9.07,1.75,12.3H410.58l-.38-6.69c-4,5.2-8.83,7.52-17,7.52-16.09,0-19.6-11-19.6-16.28,0-18.86,17.95-19.08,25.74-20.19,4.31-.62,9.86-1.83,10.69-5.88,1.38-6.68-3.4-11.7-13.17-11.7a34.24,34.24,0,0,0-17.95,5.12v-8.56"/><path id="path5852" class="cls-1" d="M367.62,391.06A33.55,33.55,0,0,0,353,386.89c-15.4,0-22.46,9.47-22.46,23.12s6.9,23.86,22,23.86c5.16,0,12.19-2.31,17.64-5.67l-2.22,9.94a53.48,53.48,0,0,1-16.42,2.44c-21.17,0-31.09-15-31.09-30.64,0-17.27,13.31-29.41,31.32-29.41a52.78,52.78,0,0,1,15.94,2.6v7.93"/><path id="path5854" class="cls-1" d="M130.63,410.73a35.7,35.7,0,0,1,.36-4.11h41c0-14.08-7-26.16-23.73-26.16-17.32,0-27.59,13.54-27.59,30.82,0,15.62,11.44,29.58,31,29.58,6.2,0,11.39-1.53,17-3.49l2-10c-4.78,3.94-12.52,6.27-19.5,6.27C138.58,433.65,130.57,424.57,130.63,410.73Zm1.65-10.35c1.33-6.85,7.67-13.83,15.26-13.83,11.59,0,15,9,15,13.83,0,0-30.21,0-30.21,0"/></g><path id="path5856" class="cls-1" d="M301,4.36c13.41,2,27.11,6.71,34.26,8.89,14.39,4.4,37.76,18.08,46,24.64A129.3,129.3,0,0,1,396.54,53.2c3.09,4,9,12.61,12.78,17.93C415.33,79.9,422.4,93,428.4,105c6.7,13.44,7.17,17.33,9.19,28.56L442,153.37c.41,3.42.76,16-6.61,17.74A16.28,16.28,0,0,1,418,164.5c-4.44-6.88-3.83-16.65-8.86-27.82-3.92-9-5.63-22.17-11.9-31.61l-4.91-8.3c-8.68-13.38-17.74-24-23.14-30.92-4.76-5.82-13.64-13.72-22.07-19.36-7.78-4.72-20.37-10.1-29.45-12.87-2.89-.95-15.27-4.59-23-5.61-10.45-1.18-17.32-2.82-27.24-3.53-12.25-.86-18.13-1.95-34-.09-6,1.63-15.56,2.28-24.15,5.56a213.11,213.11,0,0,0-26,13c-10.17,5.58-25.6,17-35.84,26.71-10.31,11-15.47,16.94-22.58,30.91-3.16,6.91-9.25,17.61-11.7,25.16-1.68,7.66-4.88,22-4.34,28.9.24,12.44-.85,15,.09,25.17,0,9.15,3,15.5,4.28,23,1.07,5.18,6,23.07,9.11,27.23,14,30.07,32.68,43.09,53.56,52.48,5.88,3,24.3,7.92,29.63,9.34a217.54,217.54,0,0,0,32.54,3c12.1.24,28.78-1.4,38.91-5.13,10.95-4,23.62-9.75,23.48-9.59,5.08-2.81,12.84-7.38,15.26-9.39,4.67-3,7.48-4.15,10.25-7,4-3.5,6.41-5.51,9.43-9.84,1.68-2.44,4.36-6.17,7-9.47,2.79-4.59,4.4-9.43,7.14-15.42,3.28-8.85,2.77-8.42,3.39-17.83.59-2.73-.06-11.88-.56-13.44-1.47-8.45-.95-15.91-2.89-24.11-2.61-11.1-4.78-19.42-8.12-30.07-3.13-12-12.34-23.1-19.26-31-4.28-4.91-17.57-16.53-36-23.79a164.15,164.15,0,0,0-19.09-4.71c-11.51-1.2-13.39-.43-24.42.38a149.14,149.14,0,0,0-15.84,3.6c-9.47,3.32-13,5.44-22.64,11.37a59.61,59.61,0,0,0-12.52,8.94c-3.68,3.41-6.3,9.19-9.28,12.58a91.62,91.62,0,0,0-11.67,21c-3.31,7.95-4.37,19.13-3.87,26.33a106.53,106.53,0,0,0,2.09,17.73c.59,2.2,2.07,9,2.39,10.39s3.87,8.58,4.36,9.63a58.6,58.6,0,0,0,12.28,16.62c4.76,5.2,14,10.3,20.85,12.28,6.17,3.39,16.59,4,22.36,4,2.83-.17,10.08-.62,13.86-1.52,7.66-1.84,9.08-1.89,17-5.32,7.09-3.29,11.91-4.48,16.84-8.12,0,0,6.78-5.32,9.87-9.2,1.62-2,4.41-11.83,3.91-17.88-.23-8.29,1-13-.72-19.81s-4.58-14.73-7.71-19.6-10-9.74-17.74-13.57c-4.34-2.14-14.64-4.13-19-4.65a23.49,23.49,0,0,0-19.44,7.09c-3.66,4.17-10.88,12.84-8,21.81,2.6,8.11,5.74,16.75,17.91,16.11,8.35,1.74,18-.78,21.22.7,4.78,2.71,6.61,8.69,4.87,12.87-1.21,8-8.91,9-17.14,9.62-7.37,1.24-26.06-2.36-30.17-5.44-2.76-1.64-7-5.58-9.95-8.23-2.14-1.92-4.56-6.18-6.21-9.24a33.49,33.49,0,0,1-3.58-9c-.62-2.91-1.89-8.47-1.41-14,.33-3.75,1.33-5.35,2.33-10.82a52.89,52.89,0,0,1,8.43-16.33c5.18-5.26,11.76-11.51,18.18-14.42,5.66-3,15.58-4.09,24.55-3.56,7.28.69,15.89,1.57,21.59,3.49,9.74,3.48,12.52,4.17,20.52,9.21,6.76,4.19,13.56,11.88,17.35,18.26,8.08,16.51,12.71,34.89,9.34,59.63-.27,4.18-1.58,8.26-4.18,13.79a43,43,0,0,1-13,16,51.37,51.37,0,0,1-9.84,7c-4.65,2.82-7.77,4.28-12.62,6.72a95.33,95.33,0,0,1-15.7,6.09c-7,2.77-12.39,2.88-21.21,4.2-8.68,2.17-32.43.62-46.58-5.62a88.6,88.6,0,0,1-28.74-20c-4.57-4.79-9-13.5-10.37-15.27-6.55-12.6-7.83-24.45-8.88-26.93-1.43-3.39-2.14-11-3.1-16.16-1.08-5.81-.4-30.2,5.47-45.85,3.31-6.23,5.24-11.79,7.48-14.71,4-5.73,6-9.3,9.4-13.36,5.16-6.26,8.92-11.37,14-15,12.81-10.42,23.51-15.91,38-22.79,18-7.33,23.38-5.81,40.41-5.54,7.66.07,18.8,2.47,24.28,3.47,10.17,1.35,16,3.8,22.89,5.73,7.35,2,11.61,5.33,17.65,9A119.21,119.21,0,0,1,337.73,88.7c9.88,7.24,14.65,14.86,20.71,24.22,1.1,1.57,8.29,16.9,9.44,21.17.53,2.14,2.15,8.28,3.2,11.86,1.34,5.69,2,10.73,3.49,17.15a287.74,287.74,0,0,1,4.62,30.78c1.66,10-1,30.45-2.58,36.72a104.39,104.39,0,0,1-21.72,39.73c-5.13,6.09-10.59,10.81-16.9,15.93-4.83,4-9,6.37-16.42,10.82-10.13,6-17.83,9.9-32,15.44a197.79,197.79,0,0,1-20.9,5.92c-15.2,1.4-30.82,2.75-47.87.72s-34.13-6.83-44.22-9.93c-5.57-2.09-16.36-6.61-20.88-9a125.22,125.22,0,0,1-14.48-9.87c-6.76-4.18-21.89-18.41-31.66-31.67-2.14-4.1-9.83-16.39-11.5-21.78-4.44-9.11-7.53-20.13-9.35-24.83-1.92-11-5.15-18.07-6.42-29.1a73.74,73.74,0,0,0-1.11-12.09c.86-7.55-.29-14.66,1.21-22.88,1.32-6.94,3.06-9.84,3.47-16.1.41-2.69,3.86-10.75,4.78-14.34,2.79-5.91,3.48-10.79,7.11-17.39C103,89.84,108.45,78,116.86,67.65c2.41-3.2,9.22-10.9,11.54-13.57,5.49-5.48,8.71-6.35,14.94-11.86.65-.4,4.76-5.09,9.06-6.7C159.54,30,165.71,28,172.5,23c13.61-6.78,18.57-9.07,32.08-14.69C212.39,5.49,223.27,4,227.2,2.43c7.45-.46,15-2.84,22.87-2.37,8.81-.08,17.68.55,26.53,1.35a145.15,145.15,0,0,1,24.37,3"/></g></svg>