<svg xmlns="http://www.w3.org/2000/svg" viewBox="0 0 484.76 440.86"><defs><style>.cls-1{fill:#aaa;}</style></defs><title>logos</title><g id="Web"><path class="cls-1" d="M484.67,257a90.71,90.71,0,0,1-3.8,9.57c-5,9.69-12.79,16-23.58,17.86-3.79.65-5.05,2.46-6.17,5.74a218.08,218.08,0,0,1-65.87,97.48c-.72.62-1.43,1.27-2.18,1.82-3.79,2.86-7.87,2.62-10.49-.62s-2.05-6.93,1.26-10.11c6.49-6.21,13-12.35,19.53-18.56,1.12-1.08,2-2.34,3.59-4.1-2-.15-3.33-.34-4.66-.34-24.75,0-49.52-.08-74.28.11a7.63,7.63,0,0,0-5.64,2.78c-14.07,23.31-30.07,45.12-49.12,64.62a23.41,23.41,0,0,0-1.49,2.63c11.83-2.34,22.61-4.08,33.16-6.67a191.31,191.31,0,0,0,50.58-20.73c3-1.72,6.32-2.53,8.7.1a9.64,9.64,0,0,1,2.44,7c-.33,2-2.61,4.26-4.6,5.42a211.36,211.36,0,0,1-77.13,26.82C214.23,446.34,159,432.67,110,396c-36.5-27.28-61.76-63-76.42-106.21-1.12-3.32-2.67-4.66-6-5.3A33.36,33.36,0,0,1,.16,252.2q-.32-31.92,0-63.86A33.36,33.36,0,0,1,27.69,155.7c3.46-.64,4.79-2.27,5.87-5.45A219.86,219.86,0,0,1,107.8,45.84c1.67-1.27,4.07-3,5.73-2.64a12,12,0,0,1,7,4.33c2,3,.17,6-2.41,8.25C110.93,62,103.76,68.24,96.76,74.57c-3,2.73-5.65,5.86-9.15,9.54,2.2.18,3.5.38,4.79.38,24.77,0,49.53.08,74.29-.11a7.62,7.62,0,0,0,5.65-2.78c14-23.32,30-45.13,49.11-64.62a20,20,0,0,0,1.4-2.52c-10.67,2-20.58,2.94-29.87,5.85C178.31,24.91,164,30.82,149.6,36.18a24.83,24.83,0,0,0-2.53,1.26c-4.42,2-8.32.89-10.11-2.78s-.59-7.78,3.79-9.76c10.46-4.73,20.76-10.12,31.7-13.43,90.54-26.9,169-6.59,234.08,62.07,20.76,21.87,35.1,48.05,44.72,76.59,1.1,3.28,2.53,5,6.2,5.71,13,2.53,21.49,10.58,25.74,23.06.5,1.47,1.05,2.91,1.57,4.37ZM242.37,271.2H448.65c13.68,0,21.79-8.13,21.82-21.73V190.8c0-13.62-8.13-21.73-21.82-21.73H36.1c-13.71,0-21.79,8.1-21.81,21.73v56.77c0,16.22,7.42,23.63,23.71,23.63Zm87.35-116.51a11.27,11.27,0,0,0-.37-2.24c-7.38-17-14.72-34.07-22.35-51-.64-1.41-3.38-2.67-5.15-2.68-39.58-.15-79.15-.08-118.73-.19-3.17,0-4.85,1-6.12,3.79-5.05,11.18-10.45,22.22-15.4,33.45-2.64,6-4.63,12.27-7,18.81ZM155.13,285.59a7.15,7.15,0,0,0,.16,1.73c7.5,17.31,15,34.65,22.69,51.85.58,1.26,3.21,2.31,4.89,2.31,39.73.13,79.47.07,119.19.16a5.19,5.19,0,0,0,5.45-3.37c4.19-9,8.75-17.81,12.72-26.88,3.63-8.32,6.67-16.9,10.12-25.81Zm166.94,55.76c1.43.14,2.05.26,2.65.26,27,0,53.93.06,80.92-.12a7.09,7.09,0,0,0,5.23-2.87Q422.09,319,432.71,299c2.15-4.09,3.37-8.68,5.06-13.17a14.16,14.16,0,0,0-2-.36q-43.78,0-87.53-.12c-3,0-3.55,1.56-4.37,3.72-4.88,12.64-9.77,25.22-14.87,37.77C327,331.58,324.54,336.14,322.07,341.35ZM162.5,99.09a12.57,12.57,0,0,0-1.92-.39q-40.91,0-81.81.1A6.68,6.68,0,0,0,74,101.67c-6.54,10.93-13.08,21.88-19,33.12-3.28,6.18-5.44,13-8.11,19.48a8.87,8.87,0,0,0,1.66.52q44.23,0,88.43.14c2.9,0,3.23-1.74,3.93-3.65,3.57-9.59,7-19.25,10.84-28.69C154.94,114.76,158.76,107.19,162.5,99.09Zm159.87-.17c.38,1.11.62,2,1,2.82,6.92,16.7,14,33.35,20.64,50.16,1.26,3.06,3,3,5.37,3H433c1.38,0,2.75-.13,4.31-.2a12.24,12.24,0,0,0-.3-2.09,198.84,198.84,0,0,0-26.65-51.37,7.63,7.63,0,0,0-5.5-2.42c-26.16-.15-52.34-.1-78.5-.08C325.16,98.69,323.93,98.82,322.37,98.92ZM47.19,285.4c.45,1.57.68,2.47,1,3.33a209.21,209.21,0,0,0,25.37,49.44,7.41,7.41,0,0,0,7,3.49c25.69-.11,51.4-.07,77.13-.07h5c-.48-1.35-.69-2.08-1-2.78-7-16.84-14.17-33.64-20.94-50.56-1-2.44-2.21-2.9-4.49-2.88-14.5.07-29,0-43.5,0ZM396.68,84.48c-22.76-33.64-100.41-73.15-134-68.65a6.87,6.87,0,0,0,.74,1.18c19,19.46,35,41.26,49.05,64.48a7.58,7.58,0,0,0,5.62,2.82c17,.22,34,.13,51,.13ZM87.65,356.2c36.67,40.23,80.92,63.22,135.29,69.13A31,31,0,0,0,221,422.8c-18.8-19.3-34.59-40.87-48.49-63.91a7.59,7.59,0,0,0-5.54-3c-24.92-.19-49.84-.13-74.76-.12C91,355.8,89.78,356,87.65,356.2Zm209.7-272C281.67,58.77,264,36.1,242.36,16.5a307.88,307.88,0,0,0-54.82,67.73ZM242.13,423.54c15.55-11.89,51.13-56.27,54.14-67.32H187.54C203.05,381.41,220.64,403.88,242.13,423.54Z"/><path class="cls-1" d="M222.81,226.29c4.3-11.83,8.22-22.45,12-33.11,1.26-3.63,3-6.82,7.33-6.92,4.59-.11,6.41,3.15,7.76,7,3.8,10.66,7.73,21.28,11.91,32.77.94-2.25,1.62-3.79,2.18-5.31,3.51-9.61,7-19.24,10.52-28.83,1.73-4.62,5.27-6.56,9.09-5.27,4.13,1.39,5.9,5.25,4.22,10-6.23,17.33-12.64,34.6-18.85,51.84-1.26,3.48-3.44,5.76-7.23,5.68s-5.81-2.6-7-6c-3.4-9.48-6.88-19-10.34-28.39-.52-1.4-1.13-2.75-2.15-5.24-3.55,9.72-6.72,18.35-9.89,27-.91,2.53-1.33,5.39-2.87,7.44s-4.13,4.46-6.63,5.05c-3.35.75-5.77-1.8-7-5.05q-4.64-12.64-9.23-25.29l-9-24.93c-2.39-6.64-1.26-10.6,3.49-12.16,4.4-1.45,7.5.9,9.91,7.59C214.85,204.37,218.61,214.7,222.81,226.29Z"/><path class="cls-1" d="M137.07,214C132.72,226,128.82,236.6,125,247.27c-1.26,3.65-3.1,6.74-7.42,6.8s-6.22-3-7.59-6.64q-9-24.85-18-49.69c-.22-.59-.43-1.19-.61-1.79-1.26-4.31.32-7.82,4.11-9.28s7.47.14,9.1,4.37c3.72,9.7,7.18,19.49,10.76,29.23.53,1.46,1.1,2.89,2,5.19.87-1.84,1.52-3,2-4.15,3.51-9.6,7-19.21,10.47-28.84,1.26-3.54,3.22-6.32,7.29-6.32s6,2.7,7.3,6.32c3.92,10.94,8,21.84,12.29,33.68,4.16-11.38,8-21.78,11.81-32.21A23,23,0,0,1,170,190c1.91-3.17,4.72-4.72,8.39-3.4s5.37,4.2,4.62,8.2a20.27,20.27,0,0,1-1,3.13c-6,16.44-12,32.88-17.88,49.31-1.27,3.67-3,6.78-7.35,6.88-4.59.1-6.38-3.18-7.74-7C145.3,236.41,141.38,225.85,137.07,214Z"/><path class="cls-1" d="M347.7,214c-4.15,11.38-7.86,21.49-11.57,31.61-.55,1.48-.76,3.35-1.8,4.3-1.84,1.68-4.23,3.88-6.32,3.79a8.85,8.85,0,0,1-6.13-4.06c-2.1-3.64-3.18-7.85-4.63-11.85l-14.67-40.37c-2-5.57-.66-9.39,3.73-11,4.06-1.45,7.59.71,9.56,6,4,10.9,7.94,21.82,12.25,33.68l11-30.16c.44-1.18.93-2.33,1.26-3.54,1.14-3.6,3.17-6.32,7.26-6.32s6.07,2.67,7.34,6.22c3.39,9.47,6.87,19,10.33,28.39.47,1.26,1,2.53,1.89,4.8.9-2.11,1.54-3.44,2-4.81,3.48-9.46,6.88-19,10.38-28.38,1.95-5.26,5.5-7.33,9.6-5.79s5.59,5.34,3.71,10.6c-6.09,16.88-12.26,33.72-18.35,50.57-1.27,3.53-3.25,6.33-7.33,6.26s-6-2.78-7.31-6.32C356,237,352.1,226.18,347.7,214Z"/></g></svg>