<svg xmlns="http://www.w3.org/2000/svg" viewBox="0 0 509.97 440.86"><defs><style>.cls-1{fill:#aaa;}.cls-2{fill:#fff;}</style></defs><title>logos</title><g id="Wii"><g id="nintendo-3" data-name="nintendo"><rect id="background" class="cls-1" x="31.45" y="342.58" width="443.14" height="76.77" rx="38.38"/><path id="path1065" class="cls-1" d="M69.67,438.85c-38.93,0-64.95-26.41-64.95-58.42h0c0-32,26.08-58.71,64.89-58.63H436.42c38.82-.08,64.9,26.62,64.9,58.63h0c0,32-26,58.41-65,58.42Zm.12-102.65C39,336.26,20.05,356,20.05,380.35h0c0,24.38,18.8,44.26,49.74,44.15H436.25c30.94.1,49.75-19.77,49.75-44.15h0c0-24.38-18.92-44.09-49.75-44.14Z"/><g id="Nintendo_text" data-name="Nintendo text"><polygon id="polygon1045" class="cls-2" points="65.01 410.19 46.9 410.19 46.91 351.69 65.13 351.69 90.35 392.48 90.34 351.69 108.42 351.69 108.42 410.19 90.36 410.19 65.01 369.39 65.01 410.19"/><polygon id="polygon1047" class="cls-2" points="224.37 410.19 206.75 410.19 206.76 371.36 197.19 371.36 197.19 365.58 206.76 365.58 206.75 357.7 224.36 357.7 224.36 365.57 233.88 365.57 233.88 371.36 224.36 371.36 224.37 410.19"/><polygon id="polygon1049" class="cls-2" points="136.08 410.19 118.49 410.19 118.49 371.28 136.08 371.29 136.08 410.19"/><polygon id="polygon1051" class="cls-2" points="136.08 363.63 118.45 363.63 118.45 351.67 136.08 351.67 136.08 363.63"/><path id="path1053" class="cls-2" d="M433.86,390.43s0,5.88,0,8.24c0,6.2-3.67,8.76-7.19,8.76s-7.21-2.56-7.21-8.76c0-2.36,0-8.39,0-8.39s0-5.76,0-8.11c0-6.18,3.69-8.72,7.19-8.72s7.19,2.54,7.19,8.72c0,2.35,0,6.71,0,8.28Zm-7.07-21.8c-14.2,0-25.71,9.78-25.71,21.84s11.51,21.85,25.71,21.85,25.71-9.78,25.71-21.85S441,368.63,426.79,368.63Z"/><path id="path1055" class="cls-2" d="M378,351.68h17.36v58.51H378s0-1.89,0-2.25a21.14,21.14,0,0,1-20.24,1.46,20.76,20.76,0,0,1-12-19.29c0-10.27,9.68-21.48,22.36-20.37a23.53,23.53,0,0,1,10,3.47c0-9,0-21.53,0-21.53Zm.12,38.86v-7c0-6-4.15-7.55-6.88-7.55s-6.9,1.53-6.9,7.55v13.85c0,6,4.1,7.58,6.89,7.58s6.9-1.57,6.9-7.58c0-2.5,0-6.9,0-6.9Z"/><path id="path1057" class="cls-2" d="M177.27,369.48c6.58-.18,19.92,4.12,19.83,19.53,0,2.73,0,21.16,0,21.16H179.61V384.62c0-3.39-3.24-7.16-8-7.16s-8.35,3.77-8.35,7.16c0,1.67,0,25.55,0,25.55H145.78v-38.9h17.48s0,3.13,0,4.09a21.16,21.16,0,0,1,14-5.87Z"/><path id="path1059" class="cls-2" d="M320.24,369.48c6.58-.18,19.92,4.12,19.83,19.53,0,2.73,0,21.16,0,21.16H322.58V384.62c0-3.39-3.24-7.16-8-7.16s-8.35,3.77-8.35,7.16c0,1.67,0,25.55,0,25.55H288.75v-38.9h17.46s0,3.13,0,4.09a21.18,21.18,0,0,1,14-5.87Z"/><path id="path1061" class="cls-2" d="M250.27,384.84c0-3.4,0-5.68,1.16-7.63a7.23,7.23,0,0,1,6.19-3.55h0a7.23,7.23,0,0,1,6.19,3.55c1.12,2,1.16,4.23,1.14,7.64Zm14.62,11.73s0,.18,0,2.36c0,7.12-4.68,8.7-7.28,8.7s-7.37-1.58-7.37-8.7c0-2.13,0-8,0-8s33.14,0,33.14,0c0-12.06-11.65-22.06-26-22.06s-25.91,9.78-25.91,21.85,11.6,21.84,25.91,21.84c11.87,0,21.9-6.77,25-16Z"/><path id="path1063" class="cls-2" d="M455.24,356c2.85,0,4.26,1,4.26,2.87a2.66,2.66,0,0,1-2.18,2.65l2.23,4.45h-2.7l-1.91-4.08h-1.18V366h-2.43V356Zm-.22-3.9a9,9,0,1,0,9,9A9,9,0,0,0,455,352.14Zm7.28,9a7.28,7.28,0,1,1-7.28-7.28A7.28,7.28,0,0,1,462.3,361.15Zm-8.54-.68h1.18c1.39,0,2.06-.42,2.06-1.42s-.72-1.48-2.18-1.48h-1.06Z"/></g></g><g id="wii-2" data-name="wii"><path class="cls-1" d="M412.1,244.52H362.85V84.16H412.1Z"/><path class="cls-1" d="M500.53,244.5H451.34V84.22h49.19Z"/><path class="cls-1" d="M475.79,58.55a28.61,28.61,0,0,1-28.65-29.23A28.6,28.6,0,0,1,476.32.63c16,.14,29.1,13.38,28.9,29.22A29.17,29.17,0,0,1,475.79,58.55Z"/><path class="cls-1" d="M416.36,29.4a28.66,28.66,0,0,1-28.75,29.15A29,29,0,1,1,387.24.63,28.66,28.66,0,0,1,416.36,29.4Z"/><path class="cls-1" d="M89.2,177.44Q97,140.3,104.73,103.15c4.52-21.68,8.86-43.39,13.52-65C123.08,15.75,141.61.65,163.84.61s40.95,15,45.7,37.31c9.56,44.94,18.83,89.94,28.23,134.91a7.11,7.11,0,0,0,2.75,4.53q5.31-25.67,10.63-51.34c8.17-39.58,16.47-79.13,24.38-118.76,1-5.18,2.92-6.87,8.07-6.77,14.35.29,28.71.1,44.19.1-3.68,18.23-7.12,35.47-10.65,52.68Q301.58,128.92,286,204.54c-5,24.46-22.66,40.06-45.84,40.35-23,.28-41.39-15-46.64-39.34-4.85-22.45-9.31-45-14-67.48-4.89-23.54-9.84-47.06-16.29-70.66-3.9,18.4-7.84,36.79-11.67,55.21-5.75,27.64-11.34,55.31-17.13,82.94-5,23.83-23,39.15-45.84,39.33-22.5.17-41.06-14.59-46-37.95C28.28,138.7,14.38,70.37,0,.59c13.28,0,25.89-.13,38.5,0C53.65.81,50.37-1.45,53.38,13Q70,92.62,86.38,172.32c.36,1.75,1,3.45,1.53,5.17Z"/></g></g></svg>