<svg xmlns="http://www.w3.org/2000/svg" viewBox="0 0 322.57 399"><defs><style>.cls-1{fill:#FFFFFF}</style></defs><g id="Capa_2" data-name="Capa 2"><g id="android"><path class="cls-1" d="M222.55 0c5.71 4 6.24 6.85 2.55 13.08l-15.62 26.33c7 5.18 14.39 9.65 20.71 15.27a103.16 103.16 0 0 1 35.9 77.15 7.47 7.47 0 0 1-6 8.67 7.78 7.78 0 0 1-1.8.11H66.59c-9.22 0-11.41-2.29-10.8-11.33a104 104 0 0 1 54.42-87.76 22.51 22.51 0 0 0 2.37-1.5c-2.55-4.21-5-8.77-7.55-12.55s-5.7-9.65-8.78-14.39S93.36 4.3 99 .35h3.87a43.86 43.86 0 0 1 5.53 5.79c5.26 8.78 10.44 17 15.44 25.72 1.23 2 2.29 2.63 4.57 1.84a100.88 100.88 0 0 1 64.33 0 3.33 3.33 0 0 0 4.49-1.46 2.54 2.54 0 0 0 .16-.38c5-8.78 10.19-17.55 15.45-25.72a43.86 43.86 0 0 1 5.5-5.79zm29.23 126a88.38 88.38 0 0 0-43.88-70.18 87.25 87.25 0 0 0-97.25 1.93A88.3 88.3 0 0 0 70 126.39zM168 329.57h-13.6V371a28 28 0 0 1-37.4 26.33 28.52 28.52 0 0 1-18.61-27.56v-40.9h-7.75a33.51 33.51 0 0 1-33.09-25.63 40 40 0 0 1-1.23-10.79V156.76c0-7.82 2.28-10 9.92-10h190.37c8 0 10.18 2.11 10.18 10.18v135a34.23 34.23 0 0 1-31.27 36.95 33.67 33.67 0 0 1-5.68 0h-5.18v4.83c0 13.78 0 27.65-.7 41.34a27.14 27.14 0 0 1-27 24 28.17 28.17 0 0 1-27.82-22.73 49.61 49.61 0 0 1-.61-8.78c-.66-12.35-.53-25.25-.53-37.98zM69.75 161.5v133.05a19.93 19.93 0 0 0 18.71 21.07 18.43 18.43 0 0 0 2.35 0h10.89c7.81 0 10 2.19 10 9.92v44.85a14.14 14.14 0 0 0 8.78 14.13 13.86 13.86 0 0 0 19.57-13.08v-46.78c0-6.41 2.63-8.78 8.78-8.78h23.08c7.81 0 10.09 2.28 10.09 10v45.55a13.79 13.79 0 0 0 9.48 13.78 13.95 13.95 0 0 0 18.52-14v-46.38c0-6.4 2.55-8.77 8.78-8.77h10.09a20.79 20.79 0 0 0 23-18.38 21.09 21.09 0 0 0 0-4.35V162.2zM49 220.74v48.36a24.36 24.36 0 0 1-27.29 25A24.84 24.84 0 0 1 .06 267.78v-93.56a35.12 35.12 0 0 1 1.4-9.92 24.22 24.22 0 0 1 26.77-16.58 24 24 0 0 1 20.63 22.55v50.65zm-14 0V172a10.26 10.26 0 0 0-9.45-11 9.58 9.58 0 0 0-2.14.06 10.6 10.6 0 0 0-9.4 11.7v95.29a12.13 12.13 0 0 0 0 3.07 10.38 10.38 0 1 0 20.63-2.37c.09-15.62 0-31.77 0-47.66zM322.26 220.83v46.78a24.75 24.75 0 0 1-19 26.33A24.49 24.49 0 0 1 274 275.55a23.93 23.93 0 0 1-.5-3v-98.68a24.57 24.57 0 0 1 49.06-2.94 24 24 0 0 1 0 2.94c-.39 15.54-.3 31.25-.3 46.96zm-35.11 0v48.8a10.18 10.18 0 0 0 9.62 10.71 11.61 11.61 0 0 0 1.18 0c6.32 0 10.18-4.92 10.18-12.64v-93.65a23.75 23.75 0 0 0 0-4.3 10.45 10.45 0 0 0-20.63 2.72c-.35 16.06-.26 32.21-.26 48.27z"/><path class="cls-1" d="M126 89.35a30.38 30.38 0 0 1-.53 5.62c-1 3.07-3.69 3.51-6.41 3.16s-8.77 2.1-11-3.08a20.63 20.63 0 0 1 0-12.2c1.93-5.61 7.64-2.63 11.68-3.16a4.74 4.74 0 0 1 5.89 3.31v.08a37.11 37.11 0 0 1 .37 6.27zM196.05 88.65v-3.51a4.67 4.67 0 0 1 0-2.29c3.42-5.79 8.77-2.63 13.51-3.07 3 0 4.48 2.11 4.66 5.09v1.58c0 11.5 0 11.85-11.59 11.76-5.53 0-6.93-1.49-6.93-6.84z"/></g></g></svg>