<svg id="Capa_1" data-name="Capa 1" xmlns="http://www.w3.org/2000/svg" viewBox="0 0 36.76 45.52"><title>android</title><path d="M206.77,177c.65.46.71.78.29,1.49l-1.78,3c.8.59,1.64,1.1,2.36,1.74a11.75,11.75,0,0,1,4.09,8.79.85.85,0,0,1-.89,1c-.12,0-.24,0-.36,0H189c-1.05,0-1.3-.26-1.23-1.29a11.85,11.85,0,0,1,6.2-10,2.66,2.66,0,0,0,.27-.17c-.29-.48-.57-1-.86-1.43s-.65-1.1-1-1.64-.33-1,.31-1.45h.44a4.89,4.89,0,0,1,.63.66c.6,1,1.19,1.94,1.76,2.93.14.23.26.3.52.21a11.49,11.49,0,0,1,7.33,0,.38.38,0,0,0,.53-.21c.57-1,1.16-2,1.76-2.93a4.89,4.89,0,0,1,.63-.66Zm3.33,14.36a10.07,10.07,0,0,0-5-8,9.94,9.94,0,0,0-11.08.22,10.06,10.06,0,0,0-4.63,7.82Z" transform="translate(-181.37 -177)"/><path d="M200.55,214.55H199V215c0,1.42,0,2.85,0,4.27a3.19,3.19,0,0,1-4.26,3,3.25,3.25,0,0,1-2.12-3.14c0-1.37,0-2.75,0-4.13v-.53h-.88a3.82,3.82,0,0,1-3.77-2.92,4.6,4.6,0,0,1-.14-1.23q0-7.73,0-15.46c0-.89.26-1.14,1.13-1.14h21.69c.91,0,1.16.24,1.16,1.16v15.38a3.9,3.9,0,0,1-4.21,4.21h-.59c0,.21,0,.38,0,.55,0,1.57,0,3.15-.08,4.71a3.09,3.09,0,0,1-3.07,2.73,3.21,3.21,0,0,1-3.17-2.59,5.65,5.65,0,0,1-.07-1C200.54,217.47,200.55,216,200.55,214.55ZM189.36,195.4v12.16c0,1,0,2,0,3a2.27,2.27,0,0,0,2.4,2.4H193c.89,0,1.14.25,1.14,1.13,0,1.7,0,3.41,0,5.11a1.61,1.61,0,0,0,1,1.61,1.58,1.58,0,0,0,2.23-1.49c0-1.78,0-3.56,0-5.33,0-.73.3-1,1-1H201c.89,0,1.15.26,1.15,1.14,0,1.73,0,3.46,0,5.19a1.57,1.57,0,0,0,1.08,1.57,1.59,1.59,0,0,0,2.11-1.59c0-1.76,0-3.53,0-5.29,0-.73.29-1,1-1,.38,0,.77,0,1.15,0a2.37,2.37,0,0,0,2.62-2.59c0-4.82,0-9.63,0-14.44v-.5Z" transform="translate(-181.37 -177)"/><path d="M187,202.15c0,1.83,0,3.67,0,5.51a2.77,2.77,0,0,1-3.11,2.85,2.83,2.83,0,0,1-2.47-3q0-5.33,0-10.66a4,4,0,0,1,.16-1.13,2.76,2.76,0,0,1,3.05-1.89,2.73,2.73,0,0,1,2.35,2.57c0,1.92,0,3.84,0,5.77Zm-1.6,0c0-1.85,0-3.7,0-5.55a1.17,1.17,0,0,0-1.32-1.25,1.21,1.21,0,0,0-1.07,1.35v10.84a1.34,1.34,0,0,0,0,.35,1.18,1.18,0,0,0,2.35-.27C185.37,205.84,185.36,204,185.36,202.19Z" transform="translate(-181.37 -177)"/><path d="M218.13,202.16c0,1.77,0,3.55,0,5.33a2.82,2.82,0,0,1-2.16,3,2.79,2.79,0,0,1-3.4-2.44c0-.17,0-.33,0-.49,0-3.58,0-7.17,0-10.75a2.8,2.8,0,1,1,5.59,0C218.12,198.58,218.13,200.37,218.13,202.16Zm-4,0v1.2c0,1.45,0,2.91,0,4.36a1.16,1.16,0,0,0,1.23,1.22c.72,0,1.16-.56,1.16-1.44V196.83a2.7,2.7,0,0,0,0-.49,1.19,1.19,0,0,0-2.35.31C214.13,198.48,214.14,200.32,214.14,202.15Z" transform="translate(-181.37 -177)"/><path d="M195.77,187.18a3.47,3.47,0,0,1-.06.64c-.11.35-.42.4-.73.36s-1,.24-1.25-.35a2.35,2.35,0,0,1,0-1.39c.22-.64.87-.3,1.33-.36a.54.54,0,0,1,.67.38A4.14,4.14,0,0,1,195.77,187.18Z" transform="translate(-181.37 -177)"/><path d="M203.75,187.1c0-.14,0-.27,0-.4a.55.55,0,0,1,0-.26c.39-.66,1-.3,1.54-.35.34,0,.51.24.53.58,0,.06,0,.12,0,.18,0,1.31,0,1.35-1.32,1.34-.63,0-.79-.17-.79-.78Z" transform="translate(-181.37 -177)"/></svg>