<svg xmlns="http://www.w3.org/2000/svg" viewBox="0 0 440.86 440.86"><path d="M120.23 0A120.39 120.39 0 0 0 0 120.23v200.39a120.39 120.39 0 0 0 120.23 120.24h200.39a120.39 120.39 0 0 0 120.24-120.24V120.23A120.39 120.39 0 0 0 320.62 0zm0 20h200.39a100 100 0 0 1 100.2 100.19v200.43a100 100 0 0 1-100.2 100.2H120.23A100 100 0 0 1 20 320.62V120.23A100 100 0 0 1 120.23 20zM86.32 151c-7 0-12.23 5-12.23 11.62s5.19 11.53 12.23 11.53 12.25-5 12.25-11.53S93.36 151 86.32 151zm104.42 5.71c-36.46 0-59.35 25.54-59.35 66.58s22.45 66.65 59.35 66.65 59.18-25.79 59.18-66.65-22.55-66.61-59.18-66.62zm129.55 0c-27.73 0-46.24 15.06-46.24 37.69 0 18.67 10.48 29.78 33.46 35.15l16.38 4c16.82 4 24.23 9.76 24.23 19.45 0 11.27-11.63 19.45-27.48 19.45-17 0-28.78-7.65-30.47-19.7H270.6c1.42 22.72 20.34 37.24 48.52 37.24 30.11 0 49-15.22 49-39.53 0-19.11-10.74-29.68-36.81-35.75l-14-3.45c-16.56-3.88-23.25-9.07-23.25-18.14 0-11.45 10.4-18.92 26-18.92 14.8 0 25 7.29 26.85 19h19.19c-1.18-21.47-20.01-36.53-45.81-36.53zm-129.55 18.4c24.14 0 39 18.68 39 48.18 0 29.31-14.89 48.25-39 48.25-24.39 0-39.18-18.93-39.18-48.25 0-29.54 15.23-48.21 39.18-48.22zM76.91 190.94v95.89h18.84v-95.89z" style="fill:#fff"/></svg>