<svg xmlns="http://www.w3.org/2000/svg" viewBox="0 0 399 399"><path d="M108.82 0A109 109 0 0 0 0 108.82v181.36A109 109 0 0 0 108.82 399h181.36A109 109 0 0 0 399 290.18V108.82A109 109 0 0 0 290.18 0zm0 18.14h181.36a90.54 90.54 0 0 1 90.68 90.68v181.36a90.54 90.54 0 0 1-90.68 90.68H108.82a90.54 90.54 0 0 1-90.68-90.68V108.82a90.54 90.54 0 0 1 90.68-90.68zm-30.7 118.49c-6.37 0-11.06 4.54-11.06 10.52s4.69 10.43 11.06 10.43 11.09-4.58 11.09-10.43-4.71-10.52-11.09-10.52zm94.51 5.17c-33 0-53.72 23.11-53.72 60.25s20.32 60.33 53.72 60.33 53.56-23.35 53.56-60.33-20.4-60.24-53.56-60.25zm117.25 0c-25.1 0-41.85 13.62-41.85 34.11 0 16.89 9.48 27 30.29 31.81l14.82 3.59c15.23 3.59 21.93 8.84 21.93 17.61 0 10.2-10.52 17.6-24.87 17.6-15.37 0-26.05-6.92-27.58-17.83h-17.71c1.28 20.57 18.41 33.7 43.91 33.7 27.26 0 44.31-13.77 44.31-35.77 0-17.3-9.72-26.87-33.31-32.36l-12.67-3.12c-15-3.51-21-8.21-21-16.42 0-10.36 9.41-17.12 23.52-17.12 13.4 0 22.63 6.59 24.3 17.19h17.38c-1.08-19.37-18.12-32.99-41.47-32.99zm-117.25 16.65c21.85 0 35.32 16.9 35.32 43.6 0 26.53-13.48 43.68-35.32 43.68-22.07 0-35.46-17.14-35.46-43.68 0-26.7 13.83-43.6 35.46-43.6zm-103 14.36v86.78h17v-86.78z" style="fill:#FFFFFF" data-name="Capa 2"/></svg>