<svg xmlns="http://www.w3.org/2000/svg" viewBox="0 0 339.5 398.85"><path d="M241.33 398.85c-9.07-2.09-15.27-7.68-19.67-15.68a5.56 5.56 0 0 0-3.44-2 191.12 191.12 0 0 0-68.48-2.17c-5.77.84-11.56 1.68-17.26 2.88a7.8 7.8 0 0 0-4.39 3c-5.54 8.18-13.28 12.37-22.9 11-8.27-1.17-16.38-3.73-24.46-6-14-4-27.93-8.64-42-12.44-8.49-2.28-17.26-3.44-25.87-5.23a18.62 18.62 0 0 1-4.64-2c-8.18-4.25-9.68-8-6.92-16.71 1.18-3.8 2.29-7.67 3.5-11.5a27.72 27.72 0 0 0 0-16.81 44 44 0 0 1-1.92-8.71c-.71-8.1 2.54-12.7 10.39-15 3.86-1.13 7.76-2.07 11.66-3.07 9.2-2.38 16.57-7 20.88-15.93a22.57 22.57 0 0 1 6.24-7.81c2.34-1.82 2.46-3.33 1.86-5.85-1.76-7.31-.51-14.26 2.36-21.21 5.78-14 11.53-28 16.58-42.31a141.31 141.31 0 0 1 22.05-40c4.55-5.84 8.56-12.11 13.41-17.66 6.83-7.84 9.38-16.94 9-26.95-.64-17.88-2-35.75-2.22-53.64a151 151 0 0 1 2.49-29.33c2.62-13.82 10.91-23.82 23.76-29.84 19.1-8.9 38.55-11.09 58.25-2.25 13.47 6.06 22 16.81 27.75 30.19 6.48 15 8.38 30.93 9.18 47.06.43 8.68.79 17.37 1.51 26 1 11.5 5.44 21.63 11.93 31.19 14.62 21.57 29.11 43.24 43 65.31a109 109 0 0 1 11.15 25.12c4.65 14.82 3.21 30-.31 45-.65 2.78-.44 4.75 1.55 6.92a26.23 26.23 0 0 1 6.93 18.92c-.28 9.59 4.38 16.26 12.38 20.93 1.67 1 3.46 1.78 5.2 2.61 11.87 5.62 13 17.29 2.38 25.2a92.32 92.32 0 0 1-8.23 5.17q-23.22 13.85-46.45 27.57a15.82 15.82 0 0 0-3.07 2.39c-6.48 6.53-13.67 11.86-23 13.64zM246 277.27c4.53-20 5.71-40-1.25-59.31-8.47-23.5-18-46.62-27.52-69.74-3.59-8.73-8.35-17-12.48-25.46-1.46-3-3.55-3.48-6.34-2.15-4.09 2-8.22 3.82-12.23 5.93-8.95 4.7-17.79 9.6-26.76 14.25-4.63 2.4-9.36 1.72-13.84-.62a42.93 42.93 0 0 1-7.25-4.49c-4.4-3.58-8.57-7.45-12.85-11.16.7 14.29-4.18 26.75-12.28 38.36a84.56 84.56 0 0 0-8.08 15.39c-5.7 13.46-10.5 27.33-16.7 40.52s-9.64 26.8-9 41.32c.38 8.9 2.89 17.18 10 23.25 7.52 6.38 15.2 12.55 22.66 19a147.59 147.59 0 0 1 13.59 12.76c5.93 6.65 3.57 16-4.55 19.68l-3.23 1.42c5 5.79 9.72 11.34 14.65 16.66a7.71 7.71 0 0 0 4.85 2.47c10.11.16 20.23.26 30.32-.17 24-1 43.14-11.86 58.32-30.1a9.94 9.94 0 0 0 2-5.55c.69-11.78 1.1-23.58 1.68-35.37.18-3.9 2.42-6.37 6.2-6.83 3.13-.38 6.39-.08 10.16-.08zm-143.63 108c2.62-.69 4.85-.68 6.28-1.75 10.81-8.08 16.08-17.06 7.76-30.22-4.7-7.42-10.61-14.06-15.43-21.43-6.73-10.3-12.64-21.15-19.53-31.34a83.84 83.84 0 0 0-13.5-15.39c-5.5-4.94-9.51-3.68-13.09 2.76-1.69 3.05-3.36 6.13-5 9.24a15.32 15.32 0 0 1-10.24 8.28c-5.52 1.41-11.12 2.58-16.57 4.2-6.81 2-7.91 4.07-6.92 11.15.13.9.32 1.79.52 2.67a33.82 33.82 0 0 1-.49 18.42c-1 2.82-1.73 5.7-2.49 8.58-2.17 8.2-.8 10.46 7.4 12.41.51.12 1 .16 1.54.26 9.06 1.63 18.31 2.56 27.12 5.07 11.17 3.19 21.92 7.82 33 11.52 6.61 2.19 13.41 3.81 19.63 5.56zm145.77-95.38c-4.94-1.23-7.14.05-7.07 4.68.11 7.25 1.49 14.58.81 21.75-1.3 13.63-3.61 27.17-5.66 40.72-1.11 7.34-1.3 14.46 2.7 21.1 4.15 6.92 10.23 9.42 17.49 6.11a57.34 57.34 0 0 0 14.59-9.34c7.91-7.18 16.27-13.61 25.86-18.42 6.25-3.15 12.41-6.47 18.55-9.81a76.5 76.5 0 0 0 8.63-5.23c3-2.19 3.22-4.67.4-7.11a39.84 39.84 0 0 0-8.65-5.84c-7-3.33-11.28-8.62-12.85-16.05a93.15 93.15 0 0 1-1.16-10c-.33-3.27-1.14-6.27-3.95-8.24-.36.18-.52.21-.58.31a11.34 11.34 0 0 0-1.07 1.59c-4.94 10.14-13.32 15.44-24.17 17.55-14.27 2.75-22.73-3.64-23.61-18.07-.12-1.93-.18-3.85-.27-5.71zM155.46 132.8l.18.47a60.6 60.6 0 0 0 7.46-3c8.62-4.73 17.16-9.61 25.7-14.51 2.49-1.44 6.66-2.44 5.78-5.8-.67-2.58-3.69-5.33-6.34-6.48-8.51-3.73-17.35-6.72-26-10-3.27-1.25-6.47-1.14-9.25.92q-10.87 8.09-21.51 16.54c-.76.62-.92 2.69-.57 3.86 1.67 5.65 18.26 17.79 24.22 18zm20.95-44c0-4-.61-8 .15-11.76 1-5.07 5.17-8.2 9.17-8.14s7.91 3.34 9.22 8.26c1.81 6.62.44 12.5-4.94 17.13 3 2.87 5.41 2.18 8-.52 8.55-9 9.28-25 1.44-34.71-7.7-9.49-20.76-9.12-27.85.83a24.88 24.88 0 0 0-4.69 18.78c1.24 8.23.47 7.5 9.52 10.09zm-33.41.25c2.64-1.59 4.67-2.69 6.55-4a4.12 4.12 0 0 0 1.52-2.38 26.59 26.59 0 0 0-3.8-20.08c-5.74-8.9-15.66-8.9-21.58-.14s-5.79 23 .26 31.63c4.1 5.87 5.65 6 10.59 1.16.14-.14.12-.45.17-.67-7.26-2.31-11.11-9.89-9.06-18.13.79-3.15 2.2-6.06 5.74-6.62 3.34-.54 5.51 1.7 7.26 4.25 3 4.37 3.18 9.32 2.35 15z" style="fill:#FFF" data-name="Capa 2"/></svg>