<svg id="Capa_1" data-name="Capa 1" xmlns="http://www.w3.org/2000/svg" viewBox="0 0 343.43 403.53"><title>linux</title><path d="M272.25,402.16c-9.17-2.12-15.45-7.77-19.9-15.86a5.63,5.63,0,0,0-3.48-2.07,193.26,193.26,0,0,0-69.28-2.17c-5.84.85-11.69,1.7-17.46,2.91a7.9,7.9,0,0,0-4.44,3.06c-5.61,8.27-13.44,12.51-23.17,11.15-8.37-1.18-16.57-3.77-24.74-6.11-14.21-4.08-28.26-8.74-42.53-12.58-8.58-2.31-17.46-3.48-26.17-5.29a18.87,18.87,0,0,1-4.69-2c-8.28-4.3-9.8-8.07-7-16.9,1.22-3.87,2.34-7.78,3.57-11.66a28,28,0,0,0,0-17,44.06,44.06,0,0,1-1.94-8.81c-.72-8.2,2.57-12.85,10.51-15.18,3.9-1.14,7.85-2.09,11.79-3.1,9.31-2.41,16.77-7.06,21.13-16.12a22.82,22.82,0,0,1,6.31-7.9c2.37-1.84,2.49-3.37,1.88-5.92-1.78-7.4-.51-14.43,2.39-21.46,5.85-14.16,11.66-28.37,16.77-42.8a143.14,143.14,0,0,1,22.31-40.45c4.6-5.91,8.66-12.25,13.57-17.87,6.91-7.93,9.49-17.13,9.13-27.26-.64-18.09-2-36.17-2.24-54.27a152.13,152.13,0,0,1,2.52-29.67c2.62-14,11-24.12,24-30.21,19.33-9,39-11.22,58.93-2.27,13.63,6.13,22.27,17,28.08,30.54,6.55,15.22,8.48,31.29,9.29,47.61.43,8.78.79,17.57,1.52,26.33,1,11.64,5.51,21.88,12.07,31.56,14.79,21.82,29.45,43.74,43.47,66.07a110,110,0,0,1,11.28,25.41c4.71,15,3.25,30.38-.31,45.5-.66,2.81-.44,4.8,1.57,7A26.56,26.56,0,0,1,344,303.51c-.28,9.7,4.43,16.45,12.52,21.17,1.69,1,3.5,1.8,5.27,2.64,12,5.69,13.14,17.5,2.4,25.5a93.78,93.78,0,0,1-8.32,5.23q-23.49,14-47,27.89a15.78,15.78,0,0,0-3.1,2.42c-6.56,6.61-13.83,12-23.24,13.8Zm4.72-123c4.58-20.26,5.77-40.45-1.27-60-8.57-23.78-18.24-47.17-27.84-70.56-3.63-8.83-8.45-17.16-12.63-25.76-1.47-3-3.59-3.52-6.41-2.17-4.14,2-8.32,3.86-12.37,6-9.06,4.75-18,9.71-27.08,14.41-4.68,2.43-9.46,1.74-14-.62a43,43,0,0,1-7.33-4.55c-4.45-3.62-8.67-7.53-13-11.29.71,14.46-4.23,27.07-12.43,38.81A86,86,0,0,0,134.44,179c-5.77,13.62-10.62,27.65-16.89,41s-9.76,27.11-9.15,41.8c.38,9,2.92,17.38,10.15,23.52,7.6,6.45,15.37,12.7,22.92,19.21a148.67,148.67,0,0,1,13.75,12.91c6,6.73,3.61,16.23-4.6,19.91l-3.27,1.44c5.1,5.85,9.83,11.47,14.82,16.85a7.8,7.8,0,0,0,4.91,2.5c10.22.16,20.46.26,30.67-.17,24.31-1,43.64-12,59-30.45a10.18,10.18,0,0,0,2-5.62c.69-11.92,1.11-23.85,1.69-35.78.19-3.95,2.45-6.45,6.28-6.91C269.88,278.82,273.18,279.13,277,279.13ZM131.66,388.41c2.65-.7,4.9-.69,6.35-1.77,10.94-8.18,16.27-17.26,7.85-30.57-4.75-7.51-10.73-14.23-15.61-21.68-6.81-10.42-12.79-21.4-19.76-31.71a84.72,84.72,0,0,0-13.65-15.57c-5.57-5-9.63-3.72-13.25,2.79-1.71,3.09-3.4,6.2-5,9.35a15.5,15.5,0,0,1-10.36,8.38c-5.59,1.42-11.25,2.61-16.77,4.25-6.89,2.05-8,4.11-7,11.28.13.91.32,1.81.53,2.7,1.4,6.26,1.55,12.46-.5,18.63-1,2.86-1.75,5.77-2.52,8.68-2.19,8.3-.81,10.59,7.49,12.56.51.12,1,.16,1.56.26,9.16,1.65,18.52,2.59,27.43,5.13,11.3,3.23,22.18,7.91,33.35,11.65C118.49,385,125.37,386.64,131.66,388.41Zm147.47-96.49c-5-1.25-7.22.05-7.15,4.73.11,7.33,1.51,14.75.82,22-1.32,13.79-3.65,27.49-5.73,41.2-1.12,7.43-1.31,14.63,2.73,21.35,4.2,7,10.35,9.53,17.7,6.18a58.25,58.25,0,0,0,14.79-9.44c8-7.27,16.46-13.77,26.16-18.64,6.32-3.18,12.56-6.54,18.77-9.92a78.87,78.87,0,0,0,8.73-5.29c3.05-2.22,3.26-4.73.4-7.2a40.14,40.14,0,0,0-8.75-5.9c-7.05-3.37-11.41-8.72-13-16.24a94.49,94.49,0,0,1-1.17-10.11c-.34-3.31-1.16-6.34-4-8.33-.36.18-.52.21-.59.31a12.56,12.56,0,0,0-1.08,1.61c-5,10.26-13.47,15.62-24.45,17.75-14.44,2.79-23-3.68-23.89-18.28C279.28,295.74,279.22,293.8,279.13,291.92ZM185.38,133l.18.48a62.21,62.21,0,0,0,7.55-3c8.72-4.78,17.36-9.72,26-14.68,2.52-1.45,6.74-2.47,5.85-5.87-.68-2.61-3.74-5.39-6.42-6.55-8.61-3.77-17.55-6.8-26.34-10.16-3.31-1.26-6.55-1.15-9.36.93q-11,8.18-21.76,16.74c-.77.62-.93,2.72-.58,3.9,1.69,5.72,18.47,18,24.5,18.21Zm21.19-44.51c0-4-.61-8.08.15-11.9,1-5.13,5.24-8.3,9.28-8.24s8,3.38,9.33,8.36c1.83,6.7.44,12.65-5,17.33,3.07,2.9,5.48,2.21,8.07-.53,8.65-9.14,9.39-25.32,1.46-35.11-7.79-9.6-21-9.23-28.17.84a25.16,25.16,0,0,0-4.75,19C198.2,86.56,197.42,85.83,206.57,88.45Zm-33.8.25c2.67-1.61,4.73-2.72,6.63-4.06a4.2,4.2,0,0,0,1.54-2.4,26.93,26.93,0,0,0-3.85-20.32c-5.8-9-15.84-9-21.83-.14s-5.86,23.24.26,32c4.15,5.94,5.72,6.11,10.72,1.17.14-.14.12-.45.17-.68-7.35-2.33-11.24-10-9.17-18.34.8-3.18,2.23-6.13,5.81-6.7,3.38-.54,5.57,1.72,7.35,4.3C173.48,78,173.61,83,172.77,88.7Z" transform="translate(-28.1 1.37)"/></svg>