<svg id="Capa_1" data-name="Capa 1" xmlns="http://www.w3.org/2000/svg" viewBox="0 0 8.96 11.01"><title>mac-os</title><path d="M198,205h-.25l-.12,0a1.94,1.94,0,0,1-.91-.65,7,7,0,0,1-1.67-3.92,4.18,4.18,0,0,1,.24-1.92,2.74,2.74,0,0,1,1.43-1.56,2.2,2.2,0,0,1,1.55-.18,8.75,8.75,0,0,1,.86.3,1.1,1.1,0,0,0,.89,0c.22-.1.46-.18.69-.26a2.64,2.64,0,0,1,2.43.36,2,2,0,0,1,.56.59,2.44,2.44,0,0,0,.29,4.33s0,0,0,0a6.44,6.44,0,0,1-1.46,2.42,1.34,1.34,0,0,1-1.37.41,6.32,6.32,0,0,1-.61-.22,2.13,2.13,0,0,0-1.47-.07A5,5,0,0,1,198,205Z" transform="translate(-195.05 -194.03)"/><path d="M199.53,196.55a2.4,2.4,0,0,1,2.18-2.52A2.3,2.3,0,0,1,199.53,196.55Z" transform="translate(-195.05 -194.03)"/></svg>