<svg xmlns="http://www.w3.org/2000/svg" viewBox="0 0 326.5 399.52"><defs><style>.cls-1{fill:#FFF}</style></defs><g id="Capa_2" data-name="Capa 2"><g id="macOS"><path class="cls-1" d="M108.35 399.52H94.87a70.6 70.6 0 0 1-33.14-23.67A254.86 254.86 0 0 1 .91 233.09a152.21 152.21 0 0 1 8.74-69.93 99.77 99.77 0 0 1 52.08-56.81 80.09 80.09 0 0 1 56.45-6.56 318 318 0 0 1 31.32 10.93 40.1 40.1 0 0 0 32.41 0c8-3.65 16.76-6.56 25.13-9.47a96.12 96.12 0 0 1 88.5 13.11 72.85 72.85 0 0 1 20.4 21.49 88.86 88.86 0 0 0 10.56 157.69 234.54 234.54 0 0 1-53.17 88.14 48.8 48.8 0 0 1-49.9 14.93 230.72 230.72 0 0 1-22.22-8 77.56 77.56 0 0 0-53.53-2.55 181.87 181.87 0 0 1-39.33 13.46zM164.07 91.78A87.39 87.39 0 0 1 243.46 0a83.76 83.76 0 0 1-75.26 91.48c-1.38.13-2.75.23-4.13.3z"/></g></g></svg>