<svg xmlns="http://www.w3.org/2000/svg" viewBox="0 0 398.98 398.97"><defs><style>.cls-1{fill:#FFF}</style></defs><g id="Capa_2" data-name="Capa 2"><g id="nswitch"><path class="cls-1" d="M81.1 0h106.74v398.9h-3.12c-31.93 0-63.87.18-95.76 0C40 398.5.31 358.88.17 310q-.34-110.61 0-221.19A88.79 88.79 0 0 1 59.35 5.45C66.36 3 73.84 1.78 81.1 0zm83.19 23.38h-3.67c-23.36 0-46.73-.05-70.11 0-37.71.08-67 29.22-67 66.87q-.09 109.29 0 218.52a66.46 66.46 0 0 0 1.25 13.13c6.46 31.75 33.06 53.5 65.47 53.61 23.5.07 47 0 70.5 0h3.57zM211.21 0H318a11.8 11.8 0 0 0 2.16.69 89.53 89.53 0 0 1 76.15 67.12c1.1 4.36 1.82 8.81 2.72 13.22v236.06c-.36 2-.7 4-1 6.05-7.95 45.06-44.39 75.71-90.12 75.76h-96.7zm23.54 375.54h73.66c38-.1 67.15-29.21 67.18-67.12q.09-108.86 0-217.72c0-38.18-29.14-67.25-67.36-67.31h-69.74c-1.25 0-2.5.11-3.76.17z"/><path class="cls-1" d="M141.09 117.3A47.14 47.14 0 1 1 94 70.12h.11a47.32 47.32 0 0 1 46.98 47.18zM93.83 141a23.76 23.76 0 1 0-23.62-23.89A23.84 23.84 0 0 0 93.83 141zM305.17 164.39A47.14 47.14 0 1 1 258 211.47v-.12a47.3 47.3 0 0 1 47.17-46.96zm-.24 70.89a23.75 23.75 0 1 0-23.59-23.94 23.74 23.74 0 0 0 23.59 23.94z"/></g></g></svg>