<svg id="Capa_1" data-name="Capa 1" xmlns="http://www.w3.org/2000/svg" viewBox="0 0 383.33 383.31"><title>switch</title><path d="M86.6,8H189.15V391.25h-3c-30.68,0-61.36.17-92-.05-47-.34-85.17-38.4-85.31-85.37q-.32-106.26,0-212.51A85.31,85.31,0,0,1,65.7,13.24C72.44,10.86,79.62,9.71,86.6,8Zm79.92,22.46H163c-22.45,0-44.9-.05-67.36,0-36.23.08-64.34,28.08-64.37,64.25q-.09,105,0,209.94a63.57,63.57,0,0,0,1.2,12.62c6.2,30.5,31.76,51.4,62.9,51.5,22.58.07,45.15,0,67.73,0h3.43Z" transform="translate(-8.67 -8)"/><path d="M211.6,8H314.15a11.4,11.4,0,0,0,2.08.66,86,86,0,0,1,73.16,64.49c1.06,4.19,1.75,8.46,2.61,12.7v226.8c-.34,1.94-.67,3.87-1,5.81-7.63,43.29-42.64,72.74-86.58,72.79q-44.34,0-88.67,0H211.6Zm22.62,360.8c23.87,0,47.32,0,70.77,0,36.47-.09,64.51-28.06,64.54-64.48q.08-104.59,0-209.18c0-36.68-28-64.61-64.72-64.67q-33.49,0-67,0c-1.2,0-2.4.11-3.61.17Z" transform="translate(-8.67 -8)"/><path d="M144.23,120.7A45.29,45.29,0,1,1,99.09,75.37,45.45,45.45,0,0,1,144.23,120.7Zm-45.4,22.78a22.83,22.83,0,1,0-22.7-22.94A22.92,22.92,0,0,0,98.83,143.48Z" transform="translate(-8.67 -8)"/><path d="M301.87,165.94a45.29,45.29,0,1,1-45.35,45.12A45.43,45.43,0,0,1,301.87,165.94Zm-.23,68.11a22.82,22.82,0,1,0-22.66-23A22.91,22.91,0,0,0,301.64,234.05Z" transform="translate(-8.67 -8)"/></svg>