<svg id="Capa_1" data-name="Capa 1" xmlns="http://www.w3.org/2000/svg" viewBox="0 0 409.6 409.6"><defs><style>.cls-1{fill:#fff;}</style></defs><title>PC</title><path class="cls-1" d="M404.6,187.42V213H200.36V366.29L404.6,391.82V404.6H-5V-5H404.6V8.57L200.44,34.1V187.42ZM174.49,37.33-4,59.65V187.19h178.5ZM-4,213.16V340.75l178.42,22.31V213.16Z" transform="translate(5 5)"/><path d="M404.6,187.42H200.44V34.1L404.6,8.57Z" transform="translate(5 5)"/><path d="M404.6,391.82,200.36,366.29V213H404.6Z" transform="translate(5 5)"/><path d="M174.49,37.33V187.19H-4V59.65Z" transform="translate(5 5)"/><path d="M-4,213.16H174.44v149.9L-4,340.75Z" transform="translate(5 5)"/></svg>