<svg xmlns="http://www.w3.org/2000/svg" viewBox="0 0 537.76 399.16"><defs><style>.cls-1{fill:#FFF}</style></defs><g id="Capa_2" data-name="Capa 2"><g id="play"><g id="num"><path id="_3" data-name="3" class="cls-1" d="M527.8 339.91a38.4 38.4 0 0 1 9.51 29.68c-1.8 18.56-12.59 28.77-31.59 29.34-14.83.42-29.67.15-44.5.15-27.76 0-55.5-.11-83.26 0-4.87 0-8.21-.51-8.21-6.82s3.48-6.81 8.28-6.81h112.69c6.93 0 14.39.66 18.34-6.8a24.52 24.52 0 0 0-.83-25.29c-2.19-3.46-8.07-5.9-12.49-6.31-10-.94-20.08-.33-30.13-.35h-87.56c-4.78 0-8.48-.39-8.27-6.79.18-4.87 1.89-6.91 6.83-6.8 9.33.2 18.67 0 28 0 29.41 0 58.86-.5 88.27.15 18.43.41 21.47-14.48 17.3-25.62-1.42-3.85-6.69-6.71-10.79-9-2.48-1.35-6.1-.7-9.19-.7h-112c-4.1 0-8.3.45-8.41-5.86-.09-5.4 1.33-7.81 7.19-7.77 26.07.2 52.14 0 78.22 0h47.36c13.43 0 25.64 3.24 31.73 16.5s4 25.6-5.39 36.73a13.82 13.82 0 0 0-1.1 2.37z"/></g><g id="ps"><path class="cls-1" d="M202.93 399.16c-12.11 0-24.23-.11-36.33 0-5.26.09-7.67-2.05-7.71-7.41s2.33-7.58 7.59-7.54q29.33.1 58.68 0c14.11 0 18.66-4.52 18.79-18.9.14-15.85 0-31.68 0-47.51.15-21 11.25-32.64 32.18-33 22.77-.44 45.65-.11 68.49-.2 4.92 0 7.12 1.9 7.21 7s-1.75 7.86-7.14 7.84q-28-.14-55.9 0c-13.43 0-18.05 4.54-18.19 18-.16 16.08 0 32.15 0 48.21-.14 21.26-11.39 32.8-32.73 33.27-11.65.3-23.29 0-34.94 0zM72 284.76c21.2 0 42.41-.46 63.6.12 23.48.65 36.35 18.74 30.17 41.26-3.77 13.45-14.77 21.19-31.55 21.29-28.89.21-57.79 0-86.68 0h-5.6c-8.9.37-14 4.78-14.52 13.68-.56 10-.44 20-.37 30.05 0 5.51-2.05 8.07-7.84 8-21.44-.33-18.78 2.33-19-18.37 0-6.06-.19-12.13.18-18.16 1.22-19.4 12.06-29.77 31.39-29.77 28.2-.14 56.39 0 84.58 0h6.31c14.51-.26 22.1-11.25 16-24.51-1.76-3.66-6.71-6.88-10.84-8.07-5-1.46-10.63-.58-16-.58q-51.39-.14-102.8-.14c-3.95 0-8.16.42-8.87-5.34-.9-7 1-9.48 8.14-9.49H72z"/></g><path id="logo" d="M442.85 211.55c-7 8.82-24.13 15.12-24.13 15.12l-127.5 45.79v-33.77l93.83-33.43c10.65-3.82 12.28-9.21 3.63-12s-24.28-2-34.94 1.8l-62.52 22V182l3.61-1.22a214.34 214.34 0 0 1 43.47-9.2c25.4-2.8 56.5.38 80.92 9.63 27.52 8.69 30.62 21.51 23.63 30.34zM303.36 154V67.67c0-10.15-1.87-19.48-11.39-22.13-7.29-2.33-11.81 4.44-11.81 14.57V276.4l-58.33-18.51V0c24.8 4.6 60.93 15.49 80.36 22 49.4 17 66.15 38.06 66.15 85.62 0 46.38-28.62 63.97-64.98 46.38zM114.8 235.16c-28.25-8-32.95-24.53-20.07-34.08 11.9-8.82 32.13-15.46 32.13-15.46l83.64-29.74v33.91l-60.18 21.54c-10.64 3.81-12.27 9.21-3.63 12s24.29 2 34.94-1.8l28.87-10.43v30.33c-1.83.33-3.87.65-5.76 1a189.19 189.19 0 0 1-89.94-7.24z" style="fill-rule:evenodd;fill:#FFF"/></g></g></svg>