<svg id="Capa_1" data-name="Capa 1" xmlns="http://www.w3.org/2000/svg" viewBox="0 0 408.8 161.51"><title>ps3</title><path d="M404.6,268.87c-3.7,9.34-10.78,12.1-20.48,12.08q-185-.27-370.06-.12c-9.91,0-16.11-4.31-17.86-12.49a24.67,24.67,0,0,1-.39-5.16q0-63.08,0-126.15c0-11.07,6.27-17.43,17.24-17.44q85.43,0,170.86,0c1.32,0,3.08-.27,3.86.44,1.73,1.56,3.78,3.5,4.19,5.58.56,2.83-1.55,5-4.49,5.68a21.51,21.51,0,0,1-4.76.25H14.65c-6.25,0-6.87.62-6.87,6.8q0,61.88,0,123.75c0,6,.67,6.73,6.54,6.73H386c6,0,6.64-.67,6.64-6.63q0-22.15,0-44.31c0-3.21,1-5.81,4.32-6.83,3.15-1,5.4.39,7,3.05.13.2.41.3.62.45Z" transform="translate(4.2 -119.44)"/><path d="M404.6,190.62c-2,2.72-4.23,5-7.94,3.62s-4.07-4.46-4.06-7.86q.07-24.33,0-48.67c0-5.35-.83-6.16-6.3-6.16q-84.37,0-168.75,0c-6.43,0-9.41-2-9.33-6.08s3-5.9,9.54-5.9c55.46,0,110.91.13,166.36-.13,9.7,0,16.77,2.76,20.46,12.09Z" transform="translate(4.2 -119.44)"/><path d="M91.55,167.56c12.11,0,24.22-.26,36.32.07,13.41.37,20.76,10.7,17.23,23.56-2.12,7.68-8.44,12.1-18,12.16-16.5.12-33,0-49.5,0-1.07,0-2.13,0-3.2,0-5.08.21-8,2.73-8.29,7.81-.32,5.71-.25,11.44-.21,17.16,0,3.15-1.17,4.61-4.48,4.56-12.24-.19-10.72,1.33-10.83-10.49,0-3.46-.11-6.93.1-10.37.7-11.08,6.89-17,17.93-17,16.1-.08,32.2,0,48.3,0,1.2,0,2.4,0,3.6,0,8.29-.15,12.62-6.43,9.13-14-1-2.09-3.83-3.93-6.19-4.61-2.84-.83-6.07-.33-9.12-.33Q85,176,55.64,176c-2.26,0-4.66.24-5.07-3.05-.51-4,.56-5.41,4.65-5.42,12.11,0,24.22,0,36.33,0Z" transform="translate(4.2 -119.44)"/><path d="M166.34,232.89c-6.92,0-13.84-.06-20.75,0-3,.05-4.38-1.17-4.4-4.23s1.33-4.33,4.33-4.31q16.75.06,33.51,0c8.06,0,10.66-2.58,10.73-10.79.08-9.05,0-18.09,0-27.13.09-12,6.43-18.64,18.38-18.86,13-.25,26.07-.06,39.11-.11,2.81,0,4.07,1.08,4.12,4s-1,4.49-4.08,4.48q-16-.08-31.92,0c-7.67,0-10.31,2.59-10.39,10.29-.09,9.18,0,18.36,0,27.53-.08,12.14-6.5,18.73-18.69,19-6.65.17-13.3,0-19.95,0Z" transform="translate(4.2 -119.44)"/><path d="M349.51,198.91a21.33,21.33,0,0,1,5.29,16.51c-1,10.32-7,16-17.57,16.32-8.25.23-16.5.08-24.75.08-15.44,0-30.87-.06-46.31,0-2.71,0-4.57-.28-4.57-3.79s1.94-3.79,4.61-3.79q31.34,0,62.68,0c3.85,0,8,.37,10.2-3.78a13.65,13.65,0,0,0-.46-14.07c-1.22-1.92-4.49-3.28-6.95-3.51-5.54-.52-11.17-.18-16.76-.19q-24.35,0-48.7,0c-2.66,0-4.72-.22-4.6-3.78.1-2.71,1.05-3.84,3.8-3.78,5.19.11,10.38,0,15.57,0,16.36,0,32.74-.28,49.1.08,10.25.23,11.94-8.05,9.62-14.25-.79-2.14-3.72-3.73-6-5-1.38-.75-3.39-.39-5.11-.39q-31.14,0-62.28,0c-2.28,0-4.62.25-4.68-3.26-.05-3,.74-4.34,4-4.32,14.5.11,29,0,43.51,0q13.17,0,26.34,0c7.47,0,14.26,1.8,17.65,9.18s2.21,14.24-3,20.43A8.28,8.28,0,0,0,349.51,198.91Z" transform="translate(4.2 -119.44)"/></svg>