<svg xmlns="http://www.w3.org/2000/svg" viewBox="0 0 557.71 440.86"><defs><style>.cls-1{fill:#fff}</style></defs><g id="play"><path id="_5" data-name="5" class="cls-1" d="M383.72 366.81v-41.93a.8.8 0 0 1 .8-.8h161.57a.8.8 0 0 1 .8.8v10.46a.8.8 0 0 1-.8.8H408.83a.82.82 0 0 0-.82.82v27.32a8.71 8.71 0 0 0 8.71 8.72h102.2a32.37 32.37 0 1 1 0 64.73H384.43a.8.8 0 0 1-.8-.81v-10.61a.82.82 0 0 1 .8-.8h122.34a20.23 20.23 0 1 0 3.53-40.31c-.37 0-.75-.06-1.12-.07a21.52 21.52 0 0 0-2.54 0H402.07a18.41 18.41 0 0 1-18.35-18.32z"/><path class="cls-1" d="M205.18 437.66c-12 0-24-.11-36 0-5.2.09-7.6-2-7.63-7.34s2.3-7.51 7.51-7.47q29.06.11 58.12 0c14 0 18.49-4.48 18.61-18.72.14-15.7 0-31.38 0-47.06.16-20.81 11.16-32.33 31.88-32.71 22.55-.43 45.22-.1 67.84-.19 4.87 0 7.06 1.87 7.14 6.94s-1.73 7.79-7.07 7.77q-27.75-.13-55.37 0c-13.3 0-17.88 4.49-18 17.85-.15 15.92 0 31.84 0 47.75-.14 21-11.27 32.49-32.42 32.95-11.53.3-23.07 0-34.6 0zM75.46 324.34c21 0 42-.45 63 .13 23.26.64 36 18.55 29.89 40.86-3.68 13.32-14.64 21-31.22 21.09-28.62.21-57.24 0-85.86 0h-5.56c-8.81.37-13.88 4.74-14.38 13.55-.55 9.9-.43 19.84-.36 29.76 0 5.47-2 8-7.77 7.91C2 437.31 4.6 440 4.41 419.45c0-6-.19-12 .18-18C5.8 382.24 16.54 372 35.69 372c27.92-.14 55.85 0 83.77 0h6.25c14.37-.26 21.89-11.15 15.83-24.28-1.73-3.62-6.64-6.82-10.73-8-4.93-1.44-10.53-.57-15.82-.57Q64.1 339 13.17 339c-3.92 0-8.08.42-8.79-5.29-.89-6.94 1-9.38 8.06-9.4h63z"/><path id="logo" d="M453.6 211.55c-7 8.82-24.13 15.12-24.13 15.12L302 272.46v-33.77l93.83-33.43c10.65-3.82 12.28-9.21 3.63-12s-24.28-2-34.94 1.8L302 217v-35l3.61-1.22a214.34 214.34 0 0 1 43.47-9.2c25.4-2.8 56.5.38 80.92 9.63 27.49 8.69 30.59 21.51 23.6 30.34zM314.11 154V67.67c0-10.15-1.87-19.48-11.39-22.13-7.29-2.33-11.81 4.44-11.81 14.57V276.4l-58.33-18.51V0c24.8 4.6 60.93 15.49 80.36 22 49.4 17 66.15 38.06 66.15 85.62 0 46.38-28.62 63.97-64.98 46.38zm-188.56 81.16c-28.25-8-32.95-24.53-20.07-34.08 11.9-8.82 32.13-15.46 32.13-15.46l83.64-29.74v33.91l-60.18 21.54c-10.64 3.81-12.27 9.21-3.63 12s24.29 2 34.94-1.8l28.87-10.47v30.33c-1.83.33-3.87.65-5.76 1a189.19 189.19 0 0 1-89.94-7.24z" style="fill-rule:evenodd;fill:#fff"/></g></svg>