<svg xmlns="http://www.w3.org/2000/svg" viewBox="0 0 600 399.97"><defs><style>.cls-1{fill:#FFF}</style></defs><g id="Capa_2" data-name="Capa 2"><g id="play"><g id="vita"><path class="cls-1" d="M600 397.35c-12.94 5.17-21.4 2.86-26.62-8.49-3.75-8.09-8.54-11.19-17.63-10.69-14.89.79-29.89.34-44.83-.15-5.61-.19-8.85 1.62-10.75 6.73a70.16 70.16 0 0 1-4.05 8c-3.89 7.41-7.44 8.45-16.17 4.24 1-2.15 1.88-4.38 3-6.47q20.46-38.58 40.95-77.16a57.62 57.62 0 0 1 3-5.13c8.36-12.23 20.1-12.09 27.1.77 15 27.5 29.55 55.31 44.21 83a33.31 33.31 0 0 1 1.79 5.35zm-39.4-32c-7.16-13.16-13.79-25.6-20.7-37.88-2.15-3.81-6-4.7-8.31-.64-7.12 12.42-13.65 25.16-20.78 38.52zM45.81 299.75c12.47 0 24.94-.38 37.38.09 16.36.63 25.47 10.47 25.71 26.87.24 16.17-8.09 26.18-24.26 27.23-15.88 1-31.86.57-47.81.73-12.42.11-15.81 3.49-15.94 16 0 7.23-.2 14.46 0 21.67.16 4.86-1.88 6.47-6.63 6.57-14.2.43-14.26.59-14.15-13.82.08-7.7-.23-15.54 1.08-23.06 2.31-13.25 11-20.38 24.42-20.7 15.19-.36 30.39 0 45.59-.21 13.12-.26 17.79-5 17-16.18-.63-8.67-5.17-13.19-13.89-13.24-22.17-.1-44.35 0-66.52 0-3.79 0-7.63.3-7.79-5.34-.13-4.51 1-7 6.19-6.92 13.2.21 26.41 0 39.61 0zM348.82 300.89a67.84 67.84 0 0 1-2.86 7.33q-20.2 38.28-40.59 76.45a50.2 50.2 0 0 1-4.76 7.55c-7.66 9.71-18.29 9.71-24.26-1.16-15.67-28.27-30.6-56.95-45.82-85.48-2.16-4.07-.84-6.11 3.76-6.08a4.57 4.57 0 0 0 .74 0c10.77-1.78 17.52 1.7 22.51 12.42 8.9 19.14 19.65 37.41 29.84 55.93 1.34 2.44 3.88 4.2 5.87 6.29 2.19-2.12 5.06-3.85 6.47-6.47 11-20.08 21.66-40.32 32.43-60.5 4.59-8.8 5.63-9.17 16.67-6.28zM167.19 349.78c0 8.22.38 16.45 0 24.64C166.3 390 158 398 142.46 398.5c-13.93.4-27.88.08-41.82.27-4.44 0-6.31-1.62-6.26-6.11s1.81-6.26 6.29-6.18c9.46.18 18.92 0 28.38 0 12.21 0 16.76-4.16 17.08-16.41.34-12.94 0-25.88.11-38.82a85.06 85.06 0 0 1 .49-11.17c1.62-11.65 10-19.69 22.3-20.22 14.41-.62 28.87-.21 43.31-.39 4.14 0 5.82 1.62 5.84 5.77s-1.23 6.57-6 6.47c-9.71-.16-19.41 0-29.11 0-11.91 0-15.43 3.56-15.64 15.66-.15 7.45 0 14.93 0 22.4zM438 311.31h-32.33c-4.37 0-7.07-1-7.12-6.18s2.77-6.08 7.09-6.08h85.18c4 0 7.31.1 7.36 5.76s-2.74 6.68-7.43 6.61c-10.41-.14-20.83 0-32 0-.13 3.24-.36 5.87-.36 8.51.09 23.18 0 46.33.46 69.54.16 7.31-2.33 10.17-9.48 9.11a14.48 14.48 0 0 0-3.72 0c-5.84.74-7.83-1.62-7.76-7.6.27-23.41.11-46.82.11-70.24zM363.88 349.17c0-13.67.26-27.33-.11-41-.17-6.34 1.61-9.46 8.42-8.5a15.94 15.94 0 0 0 4.47 0c6.58-1 8.58 1.84 8.52 8.32q-.42 41.37 0 82.74c0 6-1.62 9-7.94 8.09a20.8 20.8 0 0 0-5.23 0c-6.08.74-8.39-1.62-8.23-7.94.34-13.88.1-27.79.1-41.71z"/></g><path id="logo" d="M476.35 211.55c-7 8.82-24.14 15.12-24.14 15.12l-127.49 45.79v-33.77l93.83-33.43c10.64-3.82 12.28-9.21 3.62-12s-24.28-2-34.93 1.8l-62.52 22V182l3.6-1.22a214.55 214.55 0 0 1 43.47-9.2c25.4-2.8 56.51.38 80.93 9.63 27.52 8.69 30.62 21.51 23.63 30.34zM336.86 154V67.67c0-10.15-1.88-19.48-11.39-22.13-7.29-2.33-11.81 4.44-11.81 14.57V276.4l-58.33-18.51V0c24.8 4.6 60.93 15.49 80.35 22 49.4 17 66.15 38.06 66.15 85.62 0 46.38-28.62 63.97-64.97 46.38zM148.3 235.16c-28.25-8-33-24.53-20.08-34.08 11.9-8.82 32.14-15.46 32.14-15.46L244 155.88v33.91l-60.19 21.54c-10.63 3.81-12.27 9.21-3.63 12s24.3 2 34.95-1.8L244 211.1v30.33c-1.83.33-3.88.65-5.76 1a189.19 189.19 0 0 1-89.94-7.24z" style="fill-rule:evenodd;fill:#FFF"/></g></g></svg>