<svg xmlns="http://www.w3.org/2000/svg" viewBox="0 0 408.8 161.51"><title>psvita</title><g id="Capa_2" data-name="Capa 2"><path d="M408.8,149.43c-3.7,9.34-10.78,12.1-20.48,12.08q-185-.27-370.06-.12c-9.91,0-16.11-4.31-17.86-12.49A24.78,24.78,0,0,1,0,143.74V17.59C0,6.52,6.28.16,17.25.15H188.11c1.32,0,3.08-.27,3.86.44,1.73,1.56,3.78,3.5,4.19,5.58.56,2.83-1.55,5-4.49,5.68a21.67,21.67,0,0,1-4.76.25H18.85c-6.25,0-6.87.62-6.87,6.8V142.65c0,6,.67,6.73,6.54,6.73H390.2c6,0,6.64-.67,6.64-6.63V98.44c0-3.21,1-5.81,4.32-6.83,3.15-1,5.4.39,7,3,.13.2.41.3.62.45Z" transform="translate(0 0)"/><path d="M408.8,71.18c-2,2.72-4.23,5-7.94,3.62s-4.07-4.46-4.06-7.86q.07-24.33,0-48.67c0-5.35-.83-6.16-6.3-6.16H221.75c-6.43,0-9.41-2-9.33-6.08s3-5.9,9.54-5.9C277.42.13,332.87.26,388.32,0c9.7,0,16.77,2.76,20.46,12.09Z" transform="translate(0 0)"/></g><g id="Capa_3" data-name="Capa 3"><path d="M389,110.64c-8,3.2-13.23,1.77-16.46-5.25-2.32-5-5.28-6.92-10.9-6.61-9.21.49-18.48.21-27.72-.09-3.47-.12-5.47,1-6.65,4.16a43,43,0,0,1-2.5,4.93c-2.41,4.58-4.6,5.22-10,2.62.61-1.33,1.16-2.71,1.85-4q12.65-23.86,25.32-47.71a34.77,34.77,0,0,1,1.88-3.17c5.15-7.55,12.4-7.46,16.73.5,9.26,17,18.27,34.2,27.34,51.33A21.17,21.17,0,0,1,389,110.64ZM364.64,90.88c-4.43-8.14-8.53-15.83-12.8-23.42-1.33-2.36-3.71-2.91-5.14-.4-4.4,7.68-8.44,15.56-12.85,23.82Z" transform="translate(0 0)"/><path d="M46.33,50.29c7.71,0,15.42-.23,23.11.06,10.12.39,15.75,6.47,15.9,16.61.15,10-5,16.19-15,16.84-9.82.63-19.7.35-29.56.45-7.68.07-9.78,2.16-9.86,9.92,0,4.47-.12,8.94,0,13.4.1,3-1.16,4-4.1,4.06-8.78.24-8.84.34-8.75-8.57.05-4.76-.14-9.61.67-14.26C20.17,80.61,25.54,76.2,33.84,76c9.39-.22,18.79,0,28.19-.13,8.11-.16,11-3.07,10.53-10-.39-5.36-3.2-8.16-8.59-8.19-13.71-.06-27.42,0-41.13,0-2.39,0-4.74.21-4.83-3.3-.08-2.79.63-4.33,3.83-4.28,8.16.13,16.33,0,24.49,0Z" transform="translate(0 0)"/><path d="M233.69,51a41.83,41.83,0,0,1-1.77,4.53q-12.49,23.67-25.1,47.27a31.35,31.35,0,0,1-2.94,4.67c-4.74,6-11.31,6-15-.72-9.69-17.48-18.92-35.21-28.33-52.85-1.34-2.52-.52-3.78,2.32-3.76a3.53,3.53,0,0,0,.46,0c6.66-1.1,10.83,1.05,13.92,7.68,5.5,11.83,12.15,23.13,18.45,34.58.83,1.51,2.4,2.6,3.63,3.89,1.35-1.31,3.13-2.38,4-4,6.78-12.42,13.39-24.93,20.05-37.41C226.22,49.44,226.86,49.18,233.69,51Z" transform="translate(0 0)"/><path d="M121.38,81.23c0,5.08.24,10.17,0,15.23-.55,9.61-5.67,14.61-15.29,14.89-8.61.25-17.24.05-25.86.17-2.74,0-3.9-1-3.87-3.78s1.12-3.87,3.89-3.82c5.85.11,11.7,0,17.55,0,7.55,0,10.36-2.57,10.56-10.15.21-8,0-16,.07-24a53,53,0,0,1,.3-6.91c1-7.2,6.18-12.17,13.79-12.5,8.91-.38,17.85-.13,26.78-.24,2.56,0,3.6,1,3.61,3.57s-.76,4.06-3.68,4c-6-.1-12,0-18,0-7.36,0-9.54,2.2-9.67,9.68-.09,4.61,0,9.23,0,13.85Z" transform="translate(0 0)"/><path d="M288.84,57.44c-7.11,0-13.56,0-20,0-2.7,0-4.37-.6-4.4-3.82s1.71-3.76,4.38-3.76q26.34,0,52.67,0c2.47,0,4.52.06,4.55,3.56s-1.69,4.13-4.59,4.09c-6.44-.09-12.88,0-19.77,0-.08,2-.22,3.63-.22,5.26.05,14.33,0,28.65.28,43,.1,4.52-1.44,6.29-5.86,5.63a8.85,8.85,0,0,0-2.3,0c-3.61.46-4.84-1-4.8-4.7.17-14.47.07-28.95.07-43.43Z" transform="translate(0 0)"/><path d="M243,80.85c0-8.45.16-16.9-.07-25.35-.1-3.92,1-5.85,5.21-5.26a9.46,9.46,0,0,0,2.76,0c4.07-.61,5.31,1.14,5.27,5.15q-.26,25.58,0,51.16c0,3.68-1,5.57-4.91,5a12.93,12.93,0,0,0-3.23,0c-3.76.46-5.19-1-5.09-4.91C243.15,98.06,243,89.46,243,80.85Z" transform="translate(0 0)"/></g></svg>