<svg id="Capa_1" data-name="Capa 1" xmlns="http://www.w3.org/2000/svg" viewBox="0 0 383.32 348.27"><title>web</title><path d="M392,238.32a72.87,72.87,0,0,1-3,7.57c-3.94,7.66-10.12,12.65-18.65,14.12-3,.52-4,1.95-4.88,4.54a172.49,172.49,0,0,1-52.1,77.1c-.57.49-1.13,1-1.72,1.44-3,2.26-6.23,2.07-8.3-.49s-1.62-5.48,1-8c5.13-4.91,10.31-9.77,15.44-14.68.89-.85,1.62-1.85,2.84-3.24-1.58-.12-2.63-.27-3.68-.27-19.58,0-39.17-.06-58.75.09a6,6,0,0,0-4.46,2.2c-11.13,18.43-23.78,35.68-38.85,51.1a18.32,18.32,0,0,0-1.18,2.08c9.36-1.85,17.88-3.22,26.23-5.27a151.3,151.3,0,0,0,40-16.4c2.34-1.36,5-2,6.88.08a7.62,7.62,0,0,1,1.93,5.53c-.26,1.6-2.06,3.37-3.64,4.29a167.13,167.13,0,0,1-61,21.21c-48,6.71-91.65-4.1-130.47-33.13-28.87-21.58-48.85-49.84-60.44-84-.89-2.63-2.11-3.69-4.76-4.19A26.38,26.38,0,0,1,8.81,234.49q-.26-25.25,0-50.51a26.38,26.38,0,0,1,21.77-25.81c2.74-.51,3.79-1.8,4.64-4.31A173.92,173.92,0,0,1,93.94,71.28c1.32-1,3.22-2.37,4.53-2.09A9.48,9.48,0,0,1,104,72.62c1.61,2.37.13,4.73-1.91,6.52C96.41,84.07,90.74,89,85.21,94c-2.38,2.16-4.47,4.64-7.24,7.55,1.74.14,2.77.3,3.79.3,19.59,0,39.17.06,58.75-.09a6,6,0,0,0,4.47-2.2c11.11-18.44,23.76-35.69,38.84-51.1a15.51,15.51,0,0,0,1.11-2c-8.44,1.6-16.28,2.33-23.62,4.63C149.7,54.73,138.42,59.4,127,63.64c-.7.26-1.34.66-2,1-3.5,1.54-6.58.7-8-2.2s-.47-6.15,3-7.72c8.27-3.74,16.42-8,25.07-10.62,71.61-21.28,133.62-5.21,185.13,49.09,16.42,17.3,27.76,38,35.37,60.57.87,2.6,2,3.94,4.9,4.52,10.29,2,17,8.37,20.36,18.24.4,1.16.83,2.3,1.24,3.45Zm-191.63,11.2H363.51c10.82,0,17.24-6.43,17.26-17.19q0-23.21,0-46.4c0-10.77-6.43-17.19-17.26-17.19q-163.14,0-326.28,0c-10.84,0-17.23,6.41-17.25,17.19q0,22.44,0,44.9c0,12.83,5.87,18.69,18.75,18.69Zm69.08-92.15a8.7,8.7,0,0,0-.29-1.77c-5.84-13.46-11.64-26.95-17.68-40.32-.5-1.12-2.67-2.11-4.07-2.12-31.3-.12-62.6-.06-93.9-.15-2.51,0-3.84.81-4.84,3-4,8.84-8.27,17.57-12.18,26.45-2.09,4.74-3.66,9.71-5.58,14.88ZM131.37,260.9a5.6,5.6,0,0,0,.13,1.37c5.93,13.69,11.82,27.4,17.94,41,.46,1,2.54,1.83,3.87,1.83,31.42.1,62.85.06,94.27.13a4.11,4.11,0,0,0,4.31-2.67c3.31-7.11,6.92-14.08,10.06-21.26,2.87-6.58,5.27-13.36,8-20.41ZM263.4,305c1.13.11,1.62.2,2.1.2,21.33,0,42.65.05,64-.09a5.6,5.6,0,0,0,4.13-2.27q8.88-15.52,17.28-31.34c1.7-3.23,2.66-6.86,4-10.41a11.4,11.4,0,0,0-1.61-.29c-23.08,0-46.15,0-69.22-.09-2.38,0-2.81,1.23-3.46,2.94-3.86,10-7.73,19.95-11.76,29.87C267.31,297.27,265.36,300.88,263.4,305ZM137.2,113.4a9.7,9.7,0,0,0-1.52-.31c-21.57,0-43.13,0-64.7.08a5.3,5.3,0,0,0-3.77,2.27c-5.17,8.64-10.34,17.3-15,26.19-2.59,4.89-4.3,10.24-6.41,15.41a7.25,7.25,0,0,0,1.31.41c23.32,0,46.63,0,69.94.11,2.29,0,2.55-1.38,3.11-2.89,2.82-7.58,5.5-15.22,8.57-22.69C131.22,125.79,134.24,119.8,137.2,113.4Zm126.44-.14c.3.88.49,1.57.76,2.23,5.47,13.21,11.05,26.38,16.32,39.67,1,2.42,2.36,2.36,4.25,2.36q33.11,0,66.2,0c1.09,0,2.17-.1,3.41-.16a10.55,10.55,0,0,0-.24-1.65,157,157,0,0,0-21.08-40.63,6,6,0,0,0-4.35-1.91c-20.69-.12-41.39-.08-62.08-.07C265.85,113.08,264.87,113.18,263.64,113.26ZM46,260.75c.36,1.24.54,1.95.78,2.63a165.24,165.24,0,0,0,20.06,39.1,5.85,5.85,0,0,0,5.54,2.76c20.32-.08,40.65-.05,61-.05h3.95c-.38-1.07-.55-1.65-.77-2.2C131,289.67,125.35,276.38,120,263c-.78-1.93-1.75-2.29-3.55-2.28-11.47.06-22.94,0-34.41,0ZM322.41,101.84c-18-26.6-79.41-57.85-106-54.29a5.26,5.26,0,0,0,.58.93c15.06,15.39,27.68,32.63,38.8,51a6,6,0,0,0,4.44,2.23c13.45.17,26.91.1,40.36.1ZM78,316.74c29,31.82,64,50,107,54.68a23.46,23.46,0,0,0-1.51-2c-14.87-15.27-27.36-32.33-38.35-50.55a6,6,0,0,0-4.38-2.35c-19.71-.15-39.42-.1-59.13-.09C80.63,316.43,79.69,316.59,78,316.74Zm165.85-215.1c-12.4-20.13-26.36-38.06-43.49-53.56A243.47,243.47,0,0,0,157,101.64ZM200.18,370c12.3-9.4,40.44-44.5,42.82-53.24H157C169.27,336.68,183.18,354.45,200.18,370Z" transform="translate(-8.68 -34.99)"/><path d="M184.9,214c3.4-9.36,6.5-17.76,9.51-26.19,1-2.87,2.37-5.39,5.8-5.47,3.63-.09,5.07,2.49,6.14,5.51,3,8.43,6.11,16.83,9.42,25.92.74-1.78,1.28-3,1.72-4.2,2.78-7.6,5.5-15.22,8.32-22.8,1.37-3.66,4.17-5.19,7.19-4.17,3.27,1.1,4.67,4.15,3.34,7.88-4.93,13.7-10,27.36-14.91,41-1,2.75-2.72,4.55-5.72,4.49s-4.59-2.06-5.55-4.74c-2.69-7.5-5.44-15-8.18-22.45-.41-1.11-.89-2.18-1.7-4.15-2.81,7.69-5.31,14.52-7.82,21.36-.72,2-1.05,4.26-2.27,5.88s-3.27,3.53-5.24,4c-2.65.59-4.57-1.43-5.52-4q-3.66-10-7.3-20Q168.56,202,165,192.15c-1.89-5.25-1-8.38,2.76-9.61,3.48-1.15,5.93.71,7.84,6C178.6,196.66,181.58,204.83,184.9,214Z" transform="translate(-8.68 -34.99)"/><path d="M117.09,204.31c-3.44,9.44-6.53,17.84-9.54,26.28-1,2.89-2.45,5.33-5.87,5.38s-4.92-2.36-6-5.25q-7.11-19.66-14.28-39.3c-.17-.47-.34-.94-.48-1.42-1-3.41.25-6.18,3.25-7.34s5.91.11,7.2,3.46c2.94,7.67,5.68,15.41,8.51,23.12.42,1.15.87,2.28,1.57,4.1.69-1.45,1.2-2.34,1.55-3.28,2.78-7.59,5.56-15.19,8.28-22.81,1-2.8,2.55-5,5.77-5s4.77,2.14,5.77,5c3.1,8.65,6.29,17.27,9.72,26.64,3.29-9,6.31-17.23,9.34-25.48a18.3,18.3,0,0,1,1.23-3.11c1.51-2.51,3.73-3.74,6.63-2.69s4.25,3.32,3.66,6.48a17,17,0,0,1-.78,2.48c-4.72,13-9.48,26-14.14,39-1,2.9-2.4,5.36-5.81,5.44-3.63.08-5.05-2.52-6.12-5.54C123.6,222,120.5,213.65,117.09,204.31Z" transform="translate(-8.68 -34.99)"/><path d="M283.67,204.3c-3.28,9-6.21,17-9.15,25-.43,1.17-.6,2.65-1.42,3.4-1.46,1.33-3.35,3.07-5,3s-4-1.65-4.85-3.21c-1.66-2.88-2.51-6.21-3.66-9.37q-5.81-16-11.6-31.93c-1.59-4.41-.52-7.43,2.95-8.67,3.21-1.15,6,.56,7.56,4.72,3.17,8.62,6.28,17.26,9.69,26.64l8.67-23.85c.35-.94.74-1.85,1-2.8.9-2.85,2.51-5,5.74-5s4.8,2.11,5.81,4.92c2.68,7.49,5.43,15,8.17,22.45.37,1,.8,2,1.49,3.8.71-1.67,1.22-2.72,1.61-3.81,2.75-7.48,5.44-15,8.21-22.44,1.54-4.16,4.35-5.8,7.59-4.58s4.42,4.22,2.93,8.38c-4.81,13.35-9.69,26.67-14.51,40-1,2.79-2.57,5-5.8,4.95s-4.78-2.2-5.78-5C290.26,222.44,287.15,213.91,283.67,204.3Z" transform="translate(-8.68 -34.99)"/></svg>