<svg xmlns="http://www.w3.org/2000/svg" viewBox="0 0 438.87 398.61"><defs><style>.cls-1{fill:#FFF}</style></defs><g id="Capa_2" data-name="Capa 2"><g id="Web"><path class="cls-1" d="M438.79 232.71a81.77 81.77 0 0 1-3.43 8.67c-4.51 8.77-11.58 14.48-21.35 16.16-3.43.6-4.58 2.24-5.58 5.2A197.45 197.45 0 0 1 348.79 351c-.66.56-1.3 1.14-2 1.65-3.44 2.58-7.14 2.37-9.5-.56s-1.86-6.28 1.14-9.16c5.87-5.62 11.8-11.19 17.67-16.81 1-1 1.86-2.11 3.26-3.71-1.81-.13-3-.3-4.22-.3-22.41 0-44.84-.07-67.25.1a6.87 6.87 0 0 0-5.11 2.52c-12.74 21.09-27.22 40.84-44.47 58.49a22.37 22.37 0 0 0-1.31 2.38c10.72-2.11 20.47-3.68 30-6a173.42 173.42 0 0 0 45.79-18.77c2.68-1.56 5.72-2.29 7.87.09a8.71 8.71 0 0 1 2.21 6.33c-.3 1.83-2.36 3.86-4.17 4.91a191.26 191.26 0 0 1-69.82 24.28c-55 7.68-104.92-4.69-149.36-37.93-33-24.7-55.91-57.05-69.18-96.15-1-3-2.42-4.23-5.45-4.8A30.19 30.19 0 0 1 .15 228.33q-.3-28.9 0-57.82A30.2 30.2 0 0 1 25.07 141c3.14-.58 4.34-2.06 5.31-4.93A199.14 199.14 0 0 1 97.6 41.5c1.51-1.15 3.68-2.71 5.18-2.39a10.85 10.85 0 0 1 6.33 3.89c1.85 2.72.15 5.42-2.18 7.47-6.5 5.64-13 11.28-19.32 17-2.73 2.47-5.12 5.31-8.29 8.64 2 .16 3.17.34 4.34.34 22.42 0 44.84.07 67.25-.1a6.89 6.89 0 0 0 5.09-2.48c12.74-21.11 27.22-40.87 44.49-58.49a18.27 18.27 0 0 0 1.27-2.29c-9.66 1.83-18.64 2.66-27 5.3-13.29 4.16-26.2 9.51-39.28 14.36a22.27 22.27 0 0 0-2.29 1.15c-4 1.76-7.53.8-9.15-2.52s-.54-7 3.43-8.84c9.47-4.28 18.8-9.15 28.7-12.15 82-24.36 153-6 211.92 56.19 18.8 19.8 31.78 43.5 40.49 69.34 1 3 2.29 4.51 5.61 5.17 11.78 2.29 19.46 9.58 23.31 20.88.45 1.33 1 2.63 1.41 3.95zm-219.36 12.82h186.75c12.39 0 19.74-7.36 19.76-19.67v-53.12c0-12.33-7.36-19.68-19.76-19.68H32.68c-12.41 0-19.72 7.34-19.74 19.68v51.4c0 14.69 6.71 21.39 21.46 21.39zm79.08-105.48a9.89 9.89 0 0 0-.33-2c-6.69-15.41-13.33-30.85-20.24-46.15-.57-1.28-3.06-2.42-4.66-2.43-35.83-.14-71.66-.07-107.49-.17-2.87 0-4.4.93-5.54 3.43-4.58 10.12-9.47 20.12-13.94 30.28-2.4 5.43-4.19 11.12-6.39 17zM140.45 258.56a6.33 6.33 0 0 0 .14 1.57c6.79 15.67 13.54 31.37 20.54 46.93.53 1.15 2.91 2.1 4.43 2.1 36 .11 71.95.07 107.91.15a4.72 4.72 0 0 0 4.94-3.06c3.79-8.14 7.92-16.12 11.51-24.34 3.29-7.53 6-15.29 9.16-23.36zM291.58 309c1.3.13 1.86.23 2.41.23 24.41 0 48.82.06 73.26-.1a6.43 6.43 0 0 0 4.73-2.6q10.15-17.76 19.78-35.87c1.94-3.7 3-7.86 4.58-11.92a11.56 11.56 0 0 0-1.85-.33q-39.63 0-79.23-.11c-2.73 0-3.22 1.41-4 3.37-4.42 11.45-8.85 22.84-13.47 34.19-1.73 4.34-3.96 8.47-6.21 13.14zM147.12 89.72a10.34 10.34 0 0 0-1.74-.36q-37 0-74.06.09a6.07 6.07 0 0 0-4.32 2.6c-5.92 9.89-11.84 19.8-17.17 30-3 5.6-4.92 11.72-7.34 17.64a9 9 0 0 0 1.5.47q40 0 80.06.13c2.62 0 2.92-1.58 3.56-3.31 3.23-8.68 6.3-17.42 9.81-26 2.85-7.08 6.31-13.98 9.7-21.26zm144.74-.17c.34 1 .56 1.8.87 2.56 6.26 15.12 12.65 30.2 18.68 45.41 1.14 2.77 2.7 2.7 4.87 2.7h75.78c1.24 0 2.48-.11 3.9-.18a10.91 10.91 0 0 0-.28-1.89 179.2 179.2 0 0 0-24.13-46.51 6.86 6.86 0 0 0-5-2.19c-23.68-.14-47.38-.09-71.06-.08-1.1-.02-2.22.09-3.63.18zM42.72 258.39c.41 1.42.62 2.23.89 3a188.92 188.92 0 0 0 23 44.76 6.7 6.7 0 0 0 6.34 3.16c23.26-.09 46.53-.06 69.83-.06h4.52c-.44-1.22-.63-1.89-.88-2.52-6.37-15.24-12.84-30.46-19-45.77-.89-2.21-2-2.63-4.06-2.61-13.13.06-26.26 0-39.39 0zM359.13 76.48c-20.6-30.48-90.9-66.22-121.34-62.14a6.52 6.52 0 0 0 .67 1.06c17.24 17.6 31.68 37.35 44.41 58.38a6.84 6.84 0 0 0 5.13 2.55c15.4.2 30.81.12 46.21.12zm-279.78 246c33.2 36.43 73.26 57.24 122.49 62.6a25.92 25.92 0 0 0-1.73-2.29c-17-17.48-31.32-37-43.9-57.87a6.88 6.88 0 0 0-5-2.69c-22.56-.17-45.12-.11-67.68-.1-1.17 0-2.24.18-4.18.35zM269.2 76.25C255 53.21 239 32.69 219.42 14.94a278.65 278.65 0 0 0-49.63 61.31zm-50 307.2c14.08-10.76 46.3-50.94 49-60.94h-98.41c14.04 22.8 29.96 43.14 49.42 60.94z"/><path class="cls-1" d="M201.72 204.87c3.89-10.71 7.44-20.33 10.89-30 1.14-3.28 2.71-6.17 6.64-6.26 4.15-.1 5.8 2.85 7 6.31 3.43 9.65 7 19.27 10.78 29.67.85-2 1.47-3.43 2-4.81 3.18-8.7 6.3-17.42 9.52-26.1 1.57-4.19 4.78-5.94 8.23-4.77 3.75 1.26 5.35 4.75 3.83 9-5.65 15.68-11.45 31.32-17.07 46.93-1.15 3.15-3.11 5.21-6.55 5.14s-5.25-2.35-6.35-5.42c-3.08-8.59-6.23-17.17-9.37-25.7-.46-1.27-1-2.5-1.94-4.75-3.22 8.8-6.08 16.62-9 24.45-.83 2.29-1.21 4.88-2.6 6.73s-3.74 4-6 4.58c-3 .67-5.23-1.64-6.32-4.58q-4.19-11.45-8.36-22.89t-8.16-22.58c-2.16-6-1.14-9.59 3.16-11 4-1.32 6.79.81 9 6.87 3.46 9.31 6.87 18.69 10.67 29.18zM124.1 193.78c-3.94 10.81-7.48 20.42-10.92 30.09-1.15 3.3-2.81 6.1-6.72 6.15s-5.63-2.7-6.87-6q-8.15-22.5-16.35-45c-.19-.54-.39-1.08-.55-1.63-1.14-3.9.29-7.07 3.73-8.4s6.76.12 8.24 4c3.36 8.78 6.5 17.64 9.74 26.47.48 1.31 1 2.61 1.8 4.69.79-1.66 1.37-2.68 1.77-3.76 3.18-8.68 6.36-17.38 9.48-26.11 1.14-3.2 2.92-5.72 6.6-5.72s5.46 2.45 6.61 5.72c3.55 9.9 7.2 19.77 11.13 30.5 3.76-10.3 7.22-19.73 10.69-29.17a21.4 21.4 0 0 1 1.4-3.56c1.73-2.87 4.27-4.28 7.59-3.08s4.87 3.8 4.19 7.42a18.71 18.71 0 0 1-.89 2.84c-5.4 14.88-10.85 29.76-16.19 44.64-1.14 3.32-2.74 6.14-6.65 6.23-4.15.09-5.78-2.89-7-6.34-3.38-9.76-6.93-19.29-10.83-29.98zM314.79 193.77c-3.76 10.3-7.11 19.46-10.48 28.62-.49 1.34-.68 3-1.62 3.89-1.67 1.52-3.84 3.51-5.73 3.43a8 8 0 0 1-5.55-3.67c-1.9-3.3-2.87-7.11-4.19-10.73q-6.64-18.31-13.28-36.55c-1.82-5-.59-8.5 3.38-9.92 3.67-1.32 6.87.64 8.65 5.4 3.63 9.87 7.19 19.76 11.1 30.5l9.92-27.3c.4-1.08.85-2.12 1.15-3.21 1-3.26 2.87-5.72 6.57-5.72s5.49 2.41 6.65 5.63c3.07 8.57 6.21 17.17 9.35 25.7.42 1.14.92 2.29 1.71 4.35.81-1.91 1.39-3.12 1.84-4.36 3.15-8.57 6.23-17.17 9.4-25.69 1.76-4.76 5-6.64 8.69-5.24s5.06 4.83 3.35 9.59c-5.51 15.28-11.09 30.53-16.61 45.79-1.15 3.19-2.94 5.72-6.64 5.66s-5.47-2.51-6.62-5.72c-3.5-9.68-7.06-19.45-11.04-30.45z"/></g></g></svg>