<svg xmlns="http://www.w3.org/2000/svg" viewBox="0 0 289.65 427.13"><g data-name="Capa 2"><g data-name="xbox"><path d="M130.67 276.27a137.89 137.89 0 0 1-61.44-21.74c-15.53-10.19-19-14.33-19-22.61 0-16.74 18.29-45.91 49.7-79.22 17.78-19 42.63-41.08 45.39-40.56 5.18 1.21 46.95 41.94 62.65 61.1 24.68 30.37 36.08 55.22 30.38 66.27-4.31 8.46-31.58 24.85-51.6 31.24a157 157 0 0 1-56.08 5.52zM29.19 214.49C16.25 194.64 9.69 175.13 6.58 147c-1-9.32-.69-14.67 2.42-33.82 3.8-23.82 17.26-51.44 33.65-68.35 6.91-7.25 7.6-7.42 16.05-4.49 10.36 3.45 21.23 11 38.32 26.41l10 9-5.35 6.73c-25.2 30.9-51.78 74.74-61.79 101.83C34.37 199 32.3 213.79 34.54 220c1.38 4.15 0 2.6-5.35-5.51zm226.44 3.45c1.21-6.22-.35-17.61-4.14-29.17-8.11-25-35.56-71.45-60.75-103l-7.94-10 8.63-7.94c11.21-10.18 19-16.39 27.26-21.57 6.56-4.14 16.06-7.77 20-7.77 2.41 0 11.39 9.15 18.46 19.16a141.53 141.53 0 0 1 23.13 53.68c2.59 12.6 2.93 39.52.34 52.12a168.37 168.37 0 0 1-10.35 32.79 193.55 193.55 0 0 1-14.15 24.34c-1.35 2.02-1.35 2.02-.49-2.64zM132.92 33.78c-11.57-5.86-29.51-12.25-39.35-14a82.26 82.26 0 0 0-13.12-.69c-8.11.35-7.77 0 5.35-6.21A134.06 134.06 0 0 1 118.08 2.2c13.8-2.93 39.86-2.93 53.5 0 14.67 3.11 32.1 9.49 41.76 15.53l2.94 1.73-6.73-.35c-13.29-.69-32.45 4.66-53.16 14.67a78.42 78.42 0 0 1-12.08 5.35c-.52.18-5.52-2.41-11.39-5.35z" style="fill:#FFF"/><text transform="translate(0 395.5)" style="isolation:isolate;font-size:153.17px;font-family:XBOX360,X360 by Redge;fill:#FFF">360</text></g></g></svg>