<svg xmlns="http://www.w3.org/2000/svg" viewBox="0 0 290.28 440.86"><path d="M131.92 276.27a137.89 137.89 0 0 1-61.44-21.74c-15.54-10.19-19-14.33-19-22.61 0-16.74 18.3-45.91 49.71-79.22 17.78-19 42.63-41.08 45.39-40.56 5.18 1.21 46.94 41.94 62.65 61.1 24.68 30.37 36.07 55.22 30.37 66.27-4.3 8.49-31.6 24.85-51.6 31.24a156.92 156.92 0 0 1-56.08 5.52zM30.44 214.49c-13-19.85-19.51-39.36-22.61-67.49-1-9.32-.69-14.67 2.41-33.82C14 89.36 27.5 61.74 43.9 44.83c6.9-7.25 7.59-7.42 16.05-4.49 10.36 3.45 21.23 11 38.31 26.41l10 9-5.35 6.73c-25.19 30.9-51.77 74.74-61.78 101.83-5.52 14.69-7.59 29.48-5.34 35.69 1.38 4.15 0 2.6-5.35-5.51zm226.43 3.45c1.21-6.22-.34-17.61-4.14-29.17-8.11-25-35.55-71.45-60.75-103l-7.94-10 8.63-7.94c11.22-10.18 19-16.39 27.27-21.57 6.56-4.14 16.05-7.77 20-7.77 2.42 0 11.39 9.15 18.47 19.16a141.35 141.35 0 0 1 23.12 53.68c2.59 12.6 2.94 39.52.35 52.12a169.08 169.08 0 0 1-10.36 32.79 193.55 193.55 0 0 1-14.15 24.34c-1.37 2.02-1.37 2.02-.5-2.64zM134.16 33.78c-11.56-5.86-29.51-12.25-39.35-14a82.07 82.07 0 0 0-13.11-.69c-8.12.35-7.77 0 5.35-6.21A134 134 0 0 1 119.32 2.2c13.81-2.93 39.87-2.93 53.5 0 14.67 3.11 32.1 9.49 41.77 15.53l2.93 1.73-6.73-.35c-13.29-.69-32.44 4.66-53.15 14.67a79 79 0 0 1-12.09 5.35c-.55.18-5.55-2.41-11.39-5.35z" style="fill:#fff"/><text transform="translate(.66 437.22)" style="isolation:isolate;font-size:153.17px;font-family:XBOX360,X360 by Redge;fill:#fff">360</text></svg>