<svg xmlns="http://www.w3.org/2000/svg" width="372.368" height="372.573"><path style="fill:#000" d="M169.188 359.45c-28.683-2.748-57.723-13.049-82.67-29.325-20.904-13.639-25.624-19.245-25.624-30.434 0-22.476 24.712-61.84 66.992-106.716 24.013-25.487 57.46-55.36 61.078-54.551 7.03 1.572 63.25 56.41 84.296 82.225 33.281 40.821 48.581 74.245 40.808 89.147-5.908 11.327-42.572 33.467-69.507 41.972-22.2 7.01-51.356 9.981-75.373 7.681zM32.66 276.322c-17.371-26.65-26.147-52.886-30.385-90.832-1.399-12.53-.898-19.697 3.177-45.415 5.08-32.054 23.333-69.137 45.268-91.958 9.341-9.72 10.176-9.956 21.563-6.12 13.828 4.658 28.596 14.857 51.498 35.566l13.363 12.083-7.297 8.964c-33.873 41.613-69.63 100.597-83.106 137.09-7.326 19.838-10.28 39.753-7.128 48.043 2.128 5.598.173 3.511-6.953-7.421zm304.915 4.532c1.716-8.377-.454-23.762-5.54-39.28-11.018-33.606-47.84-96.124-81.654-138.63l-10.644-13.381 11.516-10.574c15.036-13.807 25.476-22.074 36.74-29.095 8.889-5.54 21.591-10.444 27.051-10.444 3.366 0 15.217 12.298 24.784 25.72 14.818 20.788 25.718 45.987 31.24 72.22 3.57 16.95 3.867 53.231.576 70.14-2.7 13.875-8.403 31.874-13.966 44.081-4.169 9.147-14.536 26.91-19.079 32.691-2.335 2.972-2.337 2.965-1.024-3.448zM172.26 33.105c-15.601-7.923-39.67-16.427-52.965-18.715-4.66-.803-12.612-1.25-17.669-.995-10.97.554-10.48-.02 7.118-8.333 14.63-6.912 26.834-10.977 43.4-14.455 18.637-3.913 53.666-3.96 72.006-.095 19.808 4.174 43.133 12.854 56.276 20.943l3.906 2.404-8.962-.453c-17.81-.9-43.766 6.296-71.633 19.857-8.405 4.09-15.718 7.358-16.25 7.26-.532-.097-7.384-3.436-15.227-7.418z" transform="translate(-1.57 12.357)"/></svg>