<svg xmlns="http://www.w3.org/2000/svg" viewBox="0 0 437.22 440.86"><path d="M197.14 437.85a218.11 218.11 0 0 1-97.2-34.4c-24.57-16.11-30-22.66-30-35.77 0-26.48 28.94-72.62 78.63-125.32 28.13-30 67.44-65 71.81-64.16 8.19 1.91 74.27 66.34 99.11 96.65 39.05 48 57.07 87.37 48.06 104.85-6.83 13.38-50 39.31-81.64 49.42a248.28 248.28 0 0 1-88.77 8.73zM36.6 340.11C16.12 308.71 5.74 277.85.83 233.35c-1.64-14.74-1.09-23.21 3.82-53.52 6-37.67 27.31-81.36 53.24-108.12 10.93-11.47 12-11.74 25.4-7.1 16.38 5.46 33.58 17.48 60.61 41.78l15.84 14.2-8.47 10.64c-39.86 48.88-81.91 118.23-97.74 161.09-8.74 23.21-12 46.69-8.47 56.52 2.19 6.56 0 4.1-8.46-8.73zm358.22 5.46c1.91-9.83-.55-27.85-6.55-46.15-12.83-39.59-56.25-113-96.11-163l-12.56-15.83L293.25 108c17.75-16.11 30-25.94 43.14-34.13 10.38-6.56 25.39-12.29 31.67-12.29 3.83 0 18 14.47 29.22 30.31a223.81 223.81 0 0 1 36.58 84.91c4.1 19.93 4.65 62.53.55 82.46a267.22 267.22 0 0 1-16.41 51.9 305.88 305.88 0 0 1-22.39 38.5c-2.15 3.28-2.15 3.28-.79-4.09zM200.69 54.24C182.4 45 154 34.85 138.44 32.12A128.58 128.58 0 0 0 117.69 31c-12.83.55-12.29 0 8.46-9.83a211.8 211.8 0 0 1 51.06-16.9c21.84-4.64 63.07-4.64 84.64 0 23.21 4.92 50.79 15 66.08 24.58l4.64 2.73-10.65-.58c-21-1.09-51.33 7.37-84.09 23.21a126.88 126.88 0 0 1-19.12 8.46c-.82.33-8.71-3.79-18.02-8.43z" style="fill:#fff"/></svg>