<svg xmlns="http://www.w3.org/2000/svg" viewBox="0 0 397.99 398.61"><path d="M179.45 397.84A198.47 198.47 0 0 1 91 366.53C68.61 351.87 63.64 345.9 63.64 334c0-24.11 26.34-66.11 71.57-114.08 25.6-27.34 61.39-59.15 65.37-58.4 7.46 1.74 67.6 60.39 90.22 88 35.54 43.74 51.94 79.53 43.74 95.44-6.21 12.17-45.48 35.79-74.31 45a226 226 0 0 1-80.78 7.88zm-146.14-89C14.67 280.29 5.23 252.2.76 211.69c-1.5-13.42-1-21.12 3.48-48.71 5.46-34.3 24.85-74.07 48.46-98.42 9.94-10.44 10.94-10.69 23.11-6.46 14.92 5 30.57 15.9 55.18 38l14.41 12.93-7.7 9.69c-36.29 44.49-74.56 107.61-89 146.63-7.95 21.13-10.93 42.5-7.7 51.45 2 5.99 0 3.75-7.69-7.93zm326.08 5c1.74-8.95-.49-25.35-6-42-11.68-36-51.2-102.9-87.49-148.38l-11.43-14.41 12.43-11.44C283.09 83 294.28 74 306.21 66.55c9.44-6 23.11-11.19 28.83-11.19 3.48 0 16.4 13.17 26.59 27.59a203.52 203.52 0 0 1 33.3 77.29c3.73 18.15 4.23 56.92.5 75.06a243.3 243.3 0 0 1-14.91 47.22 277.69 277.69 0 0 1-20.38 35.05c-1.99 2.98-1.99 2.98-.75-3.73zM182.68 48.65C166 40.2 140.18 31 126 28.52a117 117 0 0 0-18.89-1c-11.68.49-11.18 0 7.7-9a193 193 0 0 1 46.5-15.35c19.88-4.23 57.41-4.23 77.05 0 21.12 4.47 46.22 13.67 60.14 22.37l4.23 2.46-9.7-.49c-19.13-1-46.72 6.71-76.54 21.12a116.43 116.43 0 0 1-17.4 7.71c-.75.26-7.96-3.46-16.41-7.69z" style="fill:#FFF" data-name="Capa 2"/></svg>