<svg xmlns="http://www.w3.org/2000/svg" viewBox="0 0 336.53 428.17"><g data-name="Capa 2"><g data-name="xbox"><path d="M154.27 276.27a137.89 137.89 0 0 1-61.44-21.74c-15.53-10.19-19-14.33-19-22.61 0-16.74 18.3-45.91 49.71-79.22 17.78-19 42.63-41.08 45.39-40.56 5.18 1.21 46.94 41.94 62.65 61.1 24.68 30.37 36.07 55.22 30.38 66.27-4.32 8.46-31.59 24.85-51.61 31.24a156.92 156.92 0 0 1-56.08 5.52zM52.79 214.49c-12.95-19.85-19.5-39.36-22.61-67.49-1-9.32-.69-14.67 2.41-33.82 3.8-23.82 17.26-51.44 33.66-68.35 6.9-7.25 7.59-7.42 16-4.49 10.36 3.45 21.23 11 38.32 26.41l10 9-5.35 6.73c-25.2 30.9-51.78 74.74-61.79 101.83C58 199 55.89 213.79 58.14 220c1.38 4.15 0 2.6-5.35-5.51zm226.43 3.45c1.21-6.22-.34-17.61-4.14-29.17-8.11-25-35.55-71.45-60.75-103l-7.94-10 8.61-7.99c11.22-10.18 19-16.39 27.27-21.57 6.56-4.14 16-7.77 20-7.77 2.42 0 11.39 9.15 18.47 19.16a141.35 141.35 0 0 1 23.12 53.68c2.59 12.6 2.94 39.52.35 52.12a169.08 169.08 0 0 1-10.36 32.79 191.14 191.14 0 0 1-14.15 24.34c-1.34 2.07-1.34 2.07-.48-2.59zM156.51 33.78C145 27.92 127 21.53 117.16 19.8a82.07 82.07 0 0 0-13.11-.69c-8.12.35-7.77 0 5.35-6.21a134 134 0 0 1 32.27-10.7c13.81-2.93 39.87-2.93 53.5 0 14.67 3.11 32.11 9.49 41.77 15.53l2.93 1.73-6.73-.35c-13.29-.69-32.44 4.66-53.15 14.67a79 79 0 0 1-12.09 5.35c-.51.18-5.52-2.41-11.39-5.35z" style="fill:#FFF"/><text transform="translate(0 396.18)" style="isolation:isolate;font-size:154.85px;font-family:XBOX360,X360 by Redge;fill:#FFF">ONE</text></g></g></svg>