<svg id="Capa_1" data-name="Capa 1" xmlns="http://www.w3.org/2000/svg" viewBox="0 0 396.17 160.41"><defs><style>.cls-1{isolation:isolate;font-size:60.68px;font-family:XBOX360, X360 by Redge;}</style></defs><title>xbox_SERIES</title><g id="xbox"><path id="path4148" d="M72.9,160.6A79.9,79.9,0,0,1,37.3,148c-9-5.9-11-8.3-11-13.1,0-9.7,10.6-26.6,28.8-45.9C65.4,78,79.8,65.2,81.4,65.5c3,.7,27.2,24.3,36.3,35.4,14.3,17.6,20.9,32,17.6,38.4-2.5,4.9-18.3,14.4-29.9,18.1a91,91,0,0,1-32.5,3.2ZM14.1,124.8C6.6,113.3,2.8,102,1,85.7.4,80.3.6,77.2,2.4,66.1c2.2-13.8,10-29.8,19.5-39.6,4-4.2,4.4-4.3,9.3-2.6,6,2,12.3,6.4,22.2,15.3l5.8,5.2-3.1,3.9c-14.6,17.9-30,43.3-35.8,59-3.2,8.5-4.4,17.1-3.1,20.7C18,130.4,17.2,129.5,14.1,124.8Zm131.2,2c.7-3.6-.2-10.2-2.4-16.9-4.7-14.5-20.6-41.4-35.2-59.7l-4.6-5.8,5-4.6c6.5-5.9,11-9.5,15.8-12.5,3.8-2.4,9.3-4.5,11.6-4.5,1.4,0,6.6,5.3,10.7,11.1A81.94,81.94,0,0,1,159.6,65c1.5,7.3,1.7,22.9.2,30.2a97.9,97.9,0,0,1-6,19,112,112,0,0,1-8.2,14.1c-.8,1.2-.8,1.2-.3-1.5ZM74.2,20.1C67.5,16.7,57.1,13,51.4,12a47.16,47.16,0,0,0-7.6-.4c-4.7.2-4.5,0,3.1-3.6A77.52,77.52,0,0,1,65.6,1.8c8-1.7,23.1-1.7,31,0,8.5,1.8,18.6,5.5,24.2,9l1.7,1-3.9-.2c-7.7-.4-18.8,2.7-30.8,8.5a46.46,46.46,0,0,1-7,3.1C80.5,23.3,77.6,21.8,74.2,20.1Z" transform="translate(-0.7 -0.53)"/><text id="SERIES" class="cls-1" transform="translate(169.74 99.87)">SERIES</text></g></svg>